<svg width="187" height="138" viewBox="0 0 187 138" fill="none" xmlns="http://www.w3.org/2000/svg">
<path d="M34.7774 106.36L36.4334 98.9797H43.9574L37.0454 124.612H28.9814L27.3974 117.016C26.6534 113.392 26.0774 110.272 25.6694 107.656C25.2134 110.488 24.6254 113.608 23.9054 117.016L22.3214 124.612H14.2574L7.34539 98.9797H14.8694L16.5254 106.36C17.5814 111.04 18.3014 114.46 18.6854 116.62C19.2374 113.26 19.8734 109.84 20.5934 106.36L22.1054 98.9797H29.1974L30.7094 106.36C31.4294 109.84 32.0654 113.26 32.6174 116.62C33.0254 114.46 33.7454 111.04 34.7774 106.36ZM68.2402 124.612H60.6082L59.5282 121.264H49.4842L48.4042 124.612H41.0602L50.1682 98.9797H58.8082L68.2402 124.612ZM53.2282 109.42L51.3562 115.324H57.5842L55.6762 109.42C55.0042 107.356 54.5962 106 54.4522 105.352C53.8522 107.344 53.4442 108.7 53.2282 109.42ZM65.1901 98.9797H87.5101V105.388H79.9501V124.612H72.7501V105.388H65.1901V98.9797ZM100.628 125.188C96.6436 125.188 93.4636 123.976 91.0876 121.552C88.6876 119.152 87.4876 115.9 87.4876 111.796C87.4876 107.692 88.6636 104.428 91.0156 102.004C93.3436 99.6037 96.5476 98.4037 100.628 98.4037C103.916 98.4037 106.724 99.2917 109.052 101.068C111.332 102.868 112.712 105.352 113.192 108.52H105.92C105.584 107.248 104.948 106.276 104.012 105.604C103.076 104.908 101.948 104.56 100.628 104.56C98.7796 104.56 97.3756 105.184 96.4156 106.432C95.4556 107.68 94.9756 109.468 94.9756 111.796C94.9756 114.124 95.4556 115.912 96.4156 117.16C97.3756 118.408 98.7796 119.032 100.628 119.032C102.068 119.032 103.256 118.648 104.192 117.88C105.152 117.088 105.764 115.984 106.028 114.568H113.228C112.82 117.928 111.476 120.532 109.196 122.38C106.892 124.252 104.036 125.188 100.628 125.188ZM131.763 108.34V98.9797H138.963V124.612H131.763V114.748H122.943V124.612H115.743V98.9797H122.943V108.34H131.763ZM158.948 103.156V98.9797H165.788V124.612H158.192L152.756 115.504C151.292 113.032 150.116 110.92 149.228 109.168C149.348 112.696 149.408 116.452 149.408 120.436V124.612H142.568V98.9797H150.164L155.6 108.088C156.896 110.296 158.072 112.42 159.128 114.46C159.008 110.932 158.948 107.164 158.948 103.156Z" fill="white"/>
<path fill-rule="evenodd" clip-rule="evenodd" d="M70.0756 18.5207C70.4049 17.9399 71.0211 17.581 71.6888 17.581H114.559C115.225 17.581 115.84 17.9383 116.17 18.517C116.5 19.0957 116.494 19.8069 116.155 20.3802L94.8319 56.4046C94.4989 56.9672 93.8941 57.313 93.2403 57.3145C92.5864 57.316 91.9801 56.973 91.6444 56.4119L70.0972 20.3875C69.7545 19.8145 69.7462 19.1015 70.0756 18.5207ZM74.9589 21.2901L93.2277 51.8332L111.306 21.2901H74.9589Z" fill="white"/>
<path fill-rule="evenodd" clip-rule="evenodd" d="M105.231 18.545C106.094 19.0954 106.348 20.2418 105.798 21.1056L83.1286 56.681C82.7811 57.2262 82.1748 57.5512 81.5284 57.5386C80.882 57.526 80.2888 57.1776 79.9629 56.6192L63.9147 29.1241C63.5799 28.5506 63.5774 27.8418 63.9081 27.2658C64.2388 26.6899 64.8523 26.3348 65.5164 26.3348H76.7389C77.7631 26.3348 78.5934 27.1651 78.5934 28.1893C78.5934 29.2135 77.7631 30.0438 76.7389 30.0438H68.7461L81.634 52.1244L102.67 19.1124C103.221 18.2486 104.367 17.9946 105.231 18.545Z" fill="white"/>
<path fill-rule="evenodd" clip-rule="evenodd" d="M80.5975 18.3021C81.4714 17.7679 82.6129 18.0433 83.1471 18.9172L103.46 52.1473L116.613 30.9415H109.284C108.26 30.9415 107.43 30.1112 107.43 29.087C107.43 28.0627 108.26 27.2324 109.284 27.2324H119.946C120.619 27.2324 121.239 27.5971 121.566 28.1852C121.894 28.7733 121.877 29.4925 121.522 30.0645L105.025 56.6618C104.685 57.2089 104.086 57.5409 103.443 57.5388C102.799 57.5367 102.202 57.2008 101.866 56.6515L79.9824 20.8517C79.4482 19.9778 79.7236 18.8363 80.5975 18.3021Z" fill="white"/>
<path d="M74.0605 0.690987C37.3522 6.10057 9.39173 30.5298 0 42.0682C26.1466 67.6995 62.2001 75.7175 76.9585 76.5225C63.1124 72.4975 49.7493 56.7194 49.7493 42.0682C49.7493 15.9215 65.9568 3.58895 74.0605 0.690987Z" fill="white"/>
<path d="M112.057 0.689819C148.765 6.0994 176.725 30.5286 186.117 42.067C159.971 67.6983 123.917 75.7163 109.159 76.5214C123.005 72.4963 136.368 56.7182 136.368 42.067C136.368 15.9204 120.16 3.58778 112.057 0.689819Z" fill="white"/>
</svg>
