<svg width="31" height="21" viewBox="0 0 31 21" fill="none" xmlns="http://www.w3.org/2000/svg">
<path d="M29.897 9.98818C28.3657 7.31747 26.2005 4.89966 23.8002 3.18029C15.1008 -3.21217 5.12447 1.31683 0.129883 9.98829C-0.0253906 10.2589 -0.0253906 10.5918 0.129883 10.8625C5.12465 19.5348 15.1034 24.0624 23.8002 17.6704C26.2006 15.951 28.3658 13.5333 29.897 10.8625C30.0522 10.5918 30.0522 10.2589 29.897 9.98818ZM8.2484 10.4253C8.2484 6.69503 11.2832 3.66023 15.0135 3.66023C23.9883 4.03183 23.9857 16.8203 15.0134 17.1905C11.2832 17.1905 8.2484 14.1557 8.2484 10.4253Z" fill="white"/>
<path d="M15.0135 15.4326C17.7745 15.4326 20.0208 13.1864 20.0208 10.4253C19.7457 3.78242 10.2802 3.7843 10.0062 10.4253C10.0062 13.1864 12.2525 15.4326 15.0135 15.4326ZM15.0135 7.40873C16.6768 7.40873 18.0301 8.76195 18.0301 10.4253C17.8643 14.4271 12.1619 14.426 11.9969 10.4253C11.9969 8.76195 13.3501 7.40873 15.0135 7.40873Z" fill="white"/>
<path d="M15.0134 11.6841C15.7075 11.6841 16.2722 11.1194 16.2722 10.4254C16.203 8.75554 13.8235 8.75595 13.7546 10.4254C13.7546 11.1194 14.3193 11.6841 15.0134 11.6841Z" fill="white"/>
</svg>
