<svg width="60" height="60" viewBox="0 0 60 60" fill="none" xmlns="http://www.w3.org/2000/svg">
<path d="M14.0625 29.9999C14.0625 27.0272 14.8815 24.2425 16.3044 21.8581V11.7438H6.1902C2.17594 16.9573 0 23.3111 0 29.9999C0 36.6887 2.17594 43.0425 6.1902 48.2559H16.3044V38.1417C14.8815 35.7573 14.0625 32.9726 14.0625 29.9999Z" fill="#FBBD00"/>
<path d="M30 45.9374L22.9688 52.9686L30 59.9999C36.6889 59.9999 43.0426 57.8239 48.2561 53.8097V43.7062H38.1526C35.7473 45.1343 32.9509 45.9374 30 45.9374Z" fill="#0F9D58"/>
<path d="M16.3044 38.1417L6.19019 48.2559C6.98495 49.2881 7.85038 50.2766 8.78683 51.2132C14.4531 56.8793 21.9867 59.9999 30 59.9999V45.9374C24.1847 45.9374 19.0878 42.8061 16.3044 38.1417Z" fill="#31AA52"/>
<path d="M60 29.9999C60 28.1747 59.8348 26.3461 59.5088 24.5651L59.245 23.1238H30V37.1863H44.2327C42.8505 39.9356 40.7255 42.1787 38.1525 43.7064L48.2559 53.8098C49.2881 53.015 50.2766 52.1496 51.2132 51.2132C56.8794 45.5468 60 38.0132 60 29.9999Z" fill="#3C79E6"/>
<path d="M41.2696 18.7303L42.5125 19.9732L52.4562 10.0296L51.2133 8.78671C45.547 3.12046 38.0134 -0.00012207 30 -0.00012207L22.9688 7.03113L30 14.0624C34.257 14.0624 38.2593 15.7201 41.2696 18.7303Z" fill="#CF2D48"/>
<path d="M30.0001 14.0624V-0.00012207C21.9868 -0.00012207 14.4532 3.12046 8.78683 8.7866C7.85038 9.72304 6.98495 10.7115 6.19019 11.7438L16.3044 21.858C19.088 17.1936 24.1848 14.0624 30.0001 14.0624Z" fill="#EB4132"/>
</svg>
