<svg width="112" height="46" viewBox="0 0 112 46" fill="none" xmlns="http://www.w3.org/2000/svg">
<path fill-rule="evenodd" clip-rule="evenodd" d="M42.1907 11.0548C42.3872 10.7083 42.7549 10.4941 43.1533 10.4941H68.7357C69.1332 10.4941 69.5002 10.7073 69.6971 11.0526C69.894 11.398 69.8905 11.8224 69.6881 12.1644L56.9638 33.6618C56.7651 33.9975 56.4042 34.2038 56.014 34.2047C55.6238 34.2056 55.262 34.001 55.0617 33.6661L42.2036 12.1688C41.999 11.8269 41.9941 11.4014 42.1907 11.0548ZM45.1048 12.7074L56.0065 30.9338L66.7947 12.7074H45.1048Z" fill="#15175A"/>
<path fill-rule="evenodd" clip-rule="evenodd" d="M63.1692 11.0694C63.6846 11.3978 63.8362 12.082 63.5078 12.5974L49.9799 33.8268C49.7726 34.1521 49.4108 34.346 49.025 34.3385C48.6393 34.331 48.2853 34.1231 48.0908 33.7899L38.5142 17.3824C38.3144 17.0401 38.3129 16.6172 38.5102 16.2735C38.7076 15.9298 39.0736 15.7179 39.47 15.7179H46.1669C46.7781 15.7179 47.2736 16.2134 47.2736 16.8245C47.2736 17.4357 46.7781 17.9312 46.1669 17.9312H41.3973L49.0881 31.1077L61.6412 11.408C61.9696 10.8925 62.6537 10.7409 63.1692 11.0694Z" fill="#15175A"/>
<path fill-rule="evenodd" clip-rule="evenodd" d="M48.4696 10.9244C48.9911 10.6057 49.6722 10.77 49.991 11.2915L62.1127 31.1213L69.9617 18.4669H65.5883C64.9771 18.4669 64.4816 17.9714 64.4816 17.3602C64.4816 16.749 64.9771 16.2536 65.5883 16.2536H71.9504C72.352 16.2536 72.7221 16.4711 72.9174 16.8221C73.1127 17.173 73.1025 17.6022 72.8908 17.9436L63.0463 33.8153C62.8438 34.1418 62.4864 34.3399 62.1023 34.3386C61.7181 34.3374 61.362 34.137 61.1616 33.8092L48.1025 12.4459C47.7838 11.9244 47.9481 11.2432 48.4696 10.9244Z" fill="#15175A"/>
<path d="M44.5686 0.414551C22.6632 3.64268 5.97798 18.2206 0.373535 25.1061C15.9763 40.4014 37.491 45.1861 46.298 45.6665C38.0354 43.2646 30.0611 33.8491 30.0611 25.1061C30.0611 9.50328 39.7328 2.14389 44.5686 0.414551Z" fill="#15175A"/>
<path d="M67.2427 0.41449C89.1481 3.64262 105.833 18.2206 111.438 25.1061C95.835 40.4013 74.3203 45.186 65.5133 45.6664C73.7759 43.2645 81.7502 33.8491 81.7502 25.1061C81.7502 9.50322 72.0785 2.14383 67.2427 0.41449Z" fill="#15175A"/>
</svg>
