<svg width="63" height="66" viewBox="0 0 63 66" fill="none" xmlns="http://www.w3.org/2000/svg">
<path d="M34.4293 0.689819C34.4293 0.689819 11.2874 3.261 11.2771 3.26229C5.59448 3.26229 0.987183 7.86958 0.987183 13.5522C0.987183 19.2348 5.59448 23.8421 11.2771 23.8421C16.9596 23.8421 21.5669 19.2348 21.5669 13.5522C21.5669 10.0922 19.8537 7.03868 17.2349 5.17235L26.1511 4.18195C24.1137 6.26822 22.8532 9.11852 22.8532 12.2659C22.8532 18.6598 28.0354 23.8421 34.4293 23.8421C40.8232 23.8421 46.0054 18.6598 46.0054 12.2659C46.0054 5.87206 40.8232 0.689819 34.4293 0.689819Z" fill="#0A5078"/>
<path d="M34.4292 19.9834C37.9811 19.9834 40.8604 17.1041 40.8604 13.5523C40.8604 10.0004 37.9811 7.12109 34.4292 7.12109C30.8774 7.12109 27.998 10.0004 27.998 13.5523C27.998 17.1041 30.8774 19.9834 34.4292 19.9834Z" fill="#00325A"/>
<path d="M11.277 21.2697C14.8288 21.2697 17.7082 18.3904 17.7082 14.8385C17.7082 11.2867 14.8288 8.40735 11.277 8.40735C7.72516 8.40735 4.84583 11.2867 4.84583 14.8385C4.84583 18.3904 7.72516 21.2697 11.277 21.2697Z" fill="#00325A"/>
<path d="M34.4292 18.6974C37.9811 18.6974 40.8604 15.818 40.8604 12.2662C40.8604 8.71435 37.9811 5.83501 34.4292 5.83501C30.8774 5.83501 27.998 8.71435 27.998 12.2662C27.998 15.818 30.8774 18.6974 34.4292 18.6974Z" fill="#00143C"/>
<path d="M44.7191 46.9945H3.55953C2.13824 46.9945 0.987061 45.8433 0.987061 44.422V26.4147C0.987061 24.9934 2.13824 23.8422 3.55953 23.8422H44.7191C46.1403 23.8422 47.2915 24.9934 47.2915 26.4147V44.422C47.2915 45.8433 46.1403 46.9945 44.7191 46.9945Z" fill="#00A0C8"/>
<path d="M24.1394 43.1357H8.70455C7.28326 43.1357 6.13208 41.9845 6.13208 40.5632V32.8458C6.13208 31.4245 7.28326 30.2733 8.70455 30.2733H24.1394C25.5607 30.2733 26.7118 31.4245 26.7118 32.8458V40.5632C26.7118 41.9845 25.5607 43.1357 24.1394 43.1357Z" fill="#0082AA"/>
<path d="M33.143 32.8458C32.433 32.8458 31.8568 32.2696 31.8568 31.5596C31.8568 30.8496 32.433 30.2733 33.143 30.2733C33.853 30.2733 34.4293 30.8496 34.4293 31.5596C34.4293 32.2696 33.853 32.8458 33.143 32.8458Z" fill="#0082AA"/>
<path d="M33.143 37.9908C32.433 37.9908 31.8568 37.4146 31.8568 36.7046C31.8568 35.9946 32.433 35.4184 33.143 35.4184C33.853 35.4184 34.4293 35.9946 34.4293 36.7046C34.4293 37.4146 33.853 37.9908 33.143 37.9908Z" fill="#0082AA"/>
<path d="M33.143 43.1358C32.433 43.1358 31.8568 42.5596 31.8568 41.8496C31.8568 41.1396 32.433 40.5634 33.143 40.5634C33.853 40.5634 34.4293 41.1396 34.4293 41.8496C34.4293 42.5596 33.853 43.1358 33.143 43.1358Z" fill="#0082AA"/>
<path d="M40.8602 43.1357H38.2877C37.5777 43.1357 37.0015 42.5594 37.0015 41.8494V31.5596C37.0015 30.8496 37.5777 30.2733 38.2877 30.2733H40.8602C41.5702 30.2733 42.1464 30.8496 42.1464 31.5596V41.8494C42.1464 42.5594 41.5702 43.1357 40.8602 43.1357Z" fill="#0082AA"/>
<path d="M60.1539 49.5669L47.2915 41.8495V28.9871L60.1539 21.2697V49.5669Z" fill="#0A5078"/>
<path d="M11.277 19.9834C14.8288 19.9834 17.7082 17.1041 17.7082 13.5523C17.7082 10.0004 14.8288 7.12109 11.277 7.12109C7.72516 7.12109 4.84583 10.0004 4.84583 13.5523C4.84583 17.1041 7.72516 19.9834 11.277 19.9834Z" fill="#00143C"/>
<path d="M11.277 17.4112C13.4081 17.4112 15.1357 15.6836 15.1357 13.5525C15.1357 11.4214 13.4081 9.69377 11.277 9.69377C9.14594 9.69377 7.41833 11.4214 7.41833 13.5525C7.41833 15.6836 9.14594 17.4112 11.277 17.4112Z" fill="#F0F0F0"/>
<path d="M34.429 16.1248C36.5601 16.1248 38.2877 14.3972 38.2877 12.2661C38.2877 10.1349 36.5601 8.40735 34.429 8.40735C32.2979 8.40735 30.5703 10.1349 30.5703 12.2661C30.5703 14.3972 32.2979 16.1248 34.429 16.1248Z" fill="#F0F0F0"/>
<path d="M24.1394 41.8494H8.70455C7.28326 41.8494 6.13208 40.6982 6.13208 39.277V31.5595C6.13208 30.1383 7.28326 28.9871 8.70455 28.9871H24.1394C25.5607 28.9871 26.7118 30.1383 26.7118 31.5595V39.277C26.7118 40.6982 25.5607 41.8494 24.1394 41.8494Z" fill="#F0F0F0"/>
<path d="M22.8532 39.277H9.99082C9.28082 39.277 8.70459 38.7008 8.70459 37.9908V32.8458C8.70459 32.1358 9.28082 31.5596 9.99082 31.5596H22.8532C23.5632 31.5596 24.1394 32.1358 24.1394 32.8458V37.9908C24.1394 38.7008 23.5632 39.277 22.8532 39.277Z" fill="#FAB400"/>
<path d="M33.143 31.5595C32.433 31.5595 31.8568 30.9833 31.8568 30.2733C31.8568 29.5633 32.433 28.9871 33.143 28.9871C33.853 28.9871 34.4293 29.5633 34.4293 30.2733C34.4293 30.9833 33.853 31.5595 33.143 31.5595Z" fill="#C80A50"/>
<path d="M33.143 36.7046C32.433 36.7046 31.8568 36.1283 31.8568 35.4183C31.8568 34.7083 32.433 34.1321 33.143 34.1321C33.853 34.1321 34.4293 34.7083 34.4293 35.4183C34.4293 36.1283 33.853 36.7046 33.143 36.7046Z" fill="#F0F0F0"/>
<path d="M33.143 41.8496C32.433 41.8496 31.8568 41.2734 31.8568 40.5633C31.8568 39.8533 32.433 39.2771 33.143 39.2771C33.853 39.2771 34.4293 39.8533 34.4293 40.5633C34.4293 41.2734 33.853 41.8496 33.143 41.8496Z" fill="#00325A"/>
<path d="M37.0018 46.9943V50.853C37.0018 51.5604 36.423 52.1392 35.7156 52.1392H12.5633C11.8559 52.1392 11.2771 51.5604 11.2771 50.853V46.9943H37.0018Z" fill="#FAB400"/>
<path d="M18.9943 52.1395L18.4798 53.4257L14.1722 64.1928C13.978 64.6816 13.5047 65.0018 12.9786 65.0018H10.6042C9.69485 65.0018 9.07231 64.0822 9.41059 63.2384L13.3349 53.4257L13.8494 52.1395H18.9943Z" fill="#0A5078"/>
<path d="M37.6744 65.0018H35.3C34.774 65.0018 34.3006 64.6816 34.1064 64.1928L29.7988 53.4257L29.2843 52.1395H34.4292L34.9437 53.4257L38.868 63.2384C39.2063 64.0822 38.5838 65.0018 37.6744 65.0018Z" fill="#0A5078"/>
<path d="M13.8495 52.1395H18.9945L18.48 53.4257H13.335L13.8495 52.1395Z" fill="#00325A"/>
<path d="M34.9437 53.4257H29.7988L29.2843 52.1395H34.4292L34.9437 53.4257Z" fill="#00325A"/>
<path d="M11.2771 46.9943H37.0018V48.2805H11.2771V46.9943Z" fill="#DC9600"/>
<path d="M40.8602 41.8494H38.2877C37.5777 41.8494 37.0015 41.2732 37.0015 40.5632V30.2733C37.0015 29.5633 37.5777 28.9871 38.2877 28.9871H40.8602C41.5702 28.9871 42.1464 29.5633 42.1464 30.2733V40.5632C42.1464 41.2732 41.5702 41.8494 40.8602 41.8494Z" fill="#0A5078"/>
<path d="M61.4403 52.1395C60.7303 52.1395 60.1541 51.5633 60.1541 50.8533V19.9836C60.1541 19.2736 60.7303 18.6974 61.4403 18.6974C62.1503 18.6974 62.7265 19.2736 62.7265 19.9836V50.8533C62.7265 51.5633 62.1503 52.1395 61.4403 52.1395Z" fill="#00143C"/>
<path d="M38.2877 39.277H37.0015V31.5596H38.2877C38.9977 31.5596 39.5739 32.1358 39.5739 32.8458V37.9908C39.5739 38.7008 38.9977 39.277 38.2877 39.277Z" fill="#00325A"/>
</svg>
