<svg width="26" height="26" viewBox="0 0 26 26" fill="none" xmlns="http://www.w3.org/2000/svg">
<path d="M12.5623 25.0416C5.69656 25.0416 0.0622559 19.4073 0.0622559 12.5416C0.0622559 5.67593 5.69656 0.041626 12.5623 0.041626C19.4279 0.041626 25.0623 5.67593 25.0623 12.5416C25.0623 19.4073 19.4279 25.0416 12.5623 25.0416Z" fill="#DEECF1"/>
<path d="M25.0623 12.5416C25.0623 5.67593 19.4279 0.041626 12.5623 0.041626V25.0416C19.4279 25.0416 25.0623 19.4073 25.0623 12.5416Z" fill="#C6E2E7"/>
<path d="M12.5623 7.41466C9.73556 7.41466 7.4353 9.71492 7.4353 12.5416C7.4353 15.3683 9.73556 17.6686 12.5623 17.6686C15.3889 17.6686 17.6892 15.3683 17.6892 12.5416C17.6892 9.71492 15.3889 7.41466 12.5623 7.41466Z" fill="#E30000"/>
<path d="M17.6892 12.5416C17.6892 9.71492 15.3889 7.41466 12.5623 7.41466V17.6686C15.3889 17.6686 17.6892 15.3683 17.6892 12.5416Z" fill="#D20000"/>
</svg>
