<svg width="414" height="896" viewBox="0 0 414 896" fill="none" xmlns="http://www.w3.org/2000/svg">
<g clip-path="url(#clip0_1_1885)">
<rect width="414" height="896" rx="40" fill="white"/>
<rect width="414" height="773.285" fill="url(#paint0_linear_1_1885)"/>
<path d="M121.883 453.278L131.675 422.494H134.491L120.219 468.062H117.019L107.163 435.678C106.267 432.777 105.349 429.491 104.411 425.822C103.472 429.491 102.555 432.777 101.659 435.678L91.8025 468.062H88.6025L74.3305 422.494H77.1465L86.9385 453.278C88.0905 457.033 89.1998 460.894 90.2665 464.862C91.4185 460.425 92.5065 456.521 93.5305 453.15L102.811 422.494H106.011L115.291 453.15C116.315 456.521 117.403 460.425 118.555 464.862C119.621 460.894 120.731 457.033 121.883 453.278ZM162.615 451.422V452.382H136.183C136.311 456.777 137.441 460.211 139.575 462.686C141.708 465.161 144.631 466.398 148.343 466.398C151.244 466.398 153.655 465.587 155.575 463.966C157.495 462.302 158.732 460.041 159.287 457.182H161.975C161.335 460.723 159.799 463.561 157.367 465.694C154.935 467.785 151.905 468.83 148.279 468.83C143.713 468.83 140.108 467.251 137.463 464.094C134.817 460.937 133.495 456.755 133.495 451.55C133.495 446.302 134.796 442.121 137.399 439.006C139.959 435.849 143.521 434.27 148.087 434.27C152.695 434.27 156.279 435.87 158.839 439.07C161.356 442.355 162.615 446.473 162.615 451.422ZM148.087 436.702C144.545 436.702 141.729 437.875 139.639 440.222C137.591 442.569 136.46 445.811 136.247 449.95H159.863C159.649 445.897 158.497 442.675 156.407 440.286C154.359 437.897 151.585 436.702 148.087 436.702ZM171.527 468.062H168.903V422.494H171.527V468.062ZM192.463 468.83C187.983 468.83 184.442 467.273 181.839 464.158C179.151 461.043 177.807 456.841 177.807 451.55C177.807 446.259 179.151 442.057 181.839 438.942C184.442 435.827 187.983 434.27 192.463 434.27C196.09 434.27 199.119 435.315 201.551 437.406C203.983 439.497 205.455 442.249 205.967 445.662H203.215C202.703 442.931 201.466 440.755 199.503 439.134C197.583 437.47 195.236 436.638 192.463 436.638C188.836 436.638 185.935 437.961 183.759 440.606C181.626 443.251 180.559 446.899 180.559 451.55C180.559 456.201 181.626 459.849 183.759 462.494C185.935 465.139 188.836 466.462 192.463 466.462C195.279 466.462 197.69 465.566 199.695 463.774C201.7 461.982 202.916 459.657 203.343 456.798H206.031C205.562 460.382 204.111 463.262 201.679 465.438C199.162 467.699 196.09 468.83 192.463 468.83ZM236.101 464.03C233.37 467.23 229.743 468.83 225.221 468.83C220.783 468.83 217.178 467.23 214.405 464.03C211.631 460.787 210.245 456.627 210.245 451.55C210.245 446.473 211.631 442.313 214.405 439.07C217.178 435.87 220.783 434.27 225.221 434.27C229.743 434.27 233.37 435.87 236.101 439.07C238.874 442.313 240.261 446.473 240.261 451.55C240.261 456.627 238.874 460.787 236.101 464.03ZM225.221 466.462C228.975 466.462 231.962 465.097 234.181 462.366C236.399 459.635 237.509 456.03 237.509 451.55C237.509 447.07 236.399 443.465 234.181 440.734C231.962 438.003 228.975 436.638 225.221 436.638C221.509 436.638 218.543 438.003 216.325 440.734C214.106 443.465 212.997 447.07 212.997 451.55C212.997 456.03 214.106 459.635 216.325 462.366C218.543 465.097 221.509 466.462 225.221 466.462ZM281.472 434.27C285.098 434.27 287.872 435.358 289.792 437.534C291.754 439.667 292.736 442.697 292.736 446.622V468.062H290.112V446.878C290.112 440.051 287.146 436.638 281.216 436.638C278.186 436.638 275.733 437.79 273.856 440.094C271.978 442.355 271.018 445.641 270.976 449.95V468.062H268.352V446.878C268.352 440.051 265.365 436.638 259.392 436.638C256.405 436.638 253.952 437.79 252.032 440.094C250.154 442.355 249.194 445.641 249.152 449.95V468.062H246.528V435.038H249.024V442.206C249.92 439.731 251.306 437.79 253.184 436.382C255.061 434.974 257.258 434.27 259.776 434.27C262.592 434.27 264.917 434.974 266.752 436.382C268.629 437.79 269.866 439.774 270.464 442.334C271.402 439.774 272.832 437.79 274.752 436.382C276.672 434.974 278.912 434.27 281.472 434.27ZM328.115 451.422V452.382H301.683C301.811 456.777 302.941 460.211 305.075 462.686C307.208 465.161 310.131 466.398 313.843 466.398C316.744 466.398 319.155 465.587 321.075 463.966C322.995 462.302 324.232 460.041 324.787 457.182H327.475C326.835 460.723 325.299 463.561 322.867 465.694C320.435 467.785 317.405 468.83 313.779 468.83C309.213 468.83 305.608 467.251 302.963 464.094C300.317 460.937 298.995 456.755 298.995 451.55C298.995 446.302 300.296 442.121 302.899 439.006C305.459 435.849 309.021 434.27 313.587 434.27C318.195 434.27 321.779 435.87 324.339 439.07C326.856 442.355 328.115 446.473 328.115 451.422ZM313.587 436.702C310.045 436.702 307.229 437.875 305.139 440.222C303.091 442.569 301.96 445.811 301.747 449.95H325.363C325.149 445.897 323.997 442.675 321.907 440.286C319.859 437.897 317.085 436.702 313.587 436.702ZM336.387 456.478H334.595L334.147 435.102V422.494H336.899V435.102L336.387 456.478ZM337.539 468.062H333.443V464.03H337.539V468.062Z" fill="white"/>
<path d="M63.5367 522.955L63.7047 525.619C63.7847 526.499 63.9767 527.195 64.2807 527.707H61.6407C61.3207 527.243 61.1527 526.515 61.1367 525.523L61.0647 523.699C61.0167 522.595 60.7687 521.819 60.3207 521.371C59.8727 520.907 59.1527 520.675 58.1607 520.675H53.1927V527.707H50.6247V510.619H58.0887C59.9127 510.619 61.3447 511.043 62.3847 511.891C63.4407 512.723 63.9687 513.875 63.9687 515.347C63.9687 516.387 63.7127 517.267 63.2007 517.987C62.7047 518.691 62.0007 519.187 61.0887 519.475C61.9207 519.715 62.5287 520.123 62.9127 520.699C63.2967 521.259 63.5047 522.011 63.5367 522.955ZM53.1927 518.539H58.1367C59.1287 518.539 59.9047 518.283 60.4647 517.771C61.0407 517.259 61.3287 516.531 61.3287 515.587C61.3287 514.675 61.0327 513.987 60.4407 513.523C59.8647 513.059 59.0327 512.827 57.9447 512.827H53.1927V518.539ZM77.2975 521.611V522.307H67.9615C68.0735 523.523 68.4335 524.443 69.0415 525.067C69.6495 525.675 70.4735 525.979 71.5135 525.979C73.0815 525.979 74.1055 525.291 74.5855 523.915H77.0095C76.6735 525.179 76.0175 526.179 75.0415 526.915C74.0815 527.635 72.8895 527.995 71.4655 527.995C69.6895 527.995 68.2575 527.403 67.1695 526.219C66.0815 525.035 65.5375 523.467 65.5375 521.515C65.5375 519.563 66.0815 517.995 67.1695 516.811C68.2575 515.627 69.6735 515.035 71.4175 515.035C73.2415 515.035 74.6815 515.651 75.7375 516.883C76.7775 518.115 77.2975 519.691 77.2975 521.611ZM71.4175 517.051C70.4735 517.051 69.6975 517.339 69.0895 517.915C68.4975 518.491 68.1295 519.323 67.9855 520.411H74.8255C74.7135 519.403 74.3535 518.595 73.7455 517.987C73.1535 517.363 72.3775 517.051 71.4175 517.051ZM84.754 527.995C82.994 527.995 81.57 527.403 80.482 526.219C79.394 525.035 78.85 523.467 78.85 521.515C78.85 519.547 79.394 517.971 80.482 516.787C81.554 515.619 82.978 515.035 84.754 515.035C86.274 515.035 87.522 515.451 88.498 516.283C89.49 517.115 90.082 518.235 90.274 519.643H87.826C87.666 518.827 87.306 518.203 86.746 517.771C86.202 517.339 85.538 517.123 84.754 517.123C83.714 517.123 82.882 517.507 82.258 518.275C81.65 519.027 81.346 520.107 81.346 521.515C81.346 522.923 81.65 524.011 82.258 524.779C82.882 525.531 83.714 525.907 84.754 525.907C85.554 525.907 86.234 525.683 86.794 525.235C87.354 524.787 87.706 524.139 87.85 523.291H90.298C90.106 524.731 89.506 525.875 88.498 526.723C87.49 527.571 86.242 527.995 84.754 527.995ZM102.207 526.219C101.071 527.403 99.5915 527.995 97.7675 527.995C95.9435 527.995 94.4635 527.403 93.3275 526.219C92.1915 525.035 91.6235 523.467 91.6235 521.515C91.6235 519.547 92.1915 517.971 93.3275 516.787C94.4475 515.619 95.9275 515.035 97.7675 515.035C99.6075 515.035 101.087 515.619 102.207 516.787C103.327 517.955 103.887 519.531 103.887 521.515C103.887 523.483 103.327 525.051 102.207 526.219ZM95.1035 524.755C95.7595 525.539 96.6475 525.931 97.7675 525.931C98.8875 525.931 99.7675 525.539 100.407 524.755C101.063 523.971 101.391 522.891 101.391 521.515C101.391 520.139 101.063 519.059 100.407 518.275C99.7675 517.491 98.8875 517.099 97.7675 517.099C96.6475 517.099 95.7595 517.491 95.1035 518.275C94.4475 519.059 94.1195 520.139 94.1195 521.515C94.1195 522.891 94.4475 523.971 95.1035 524.755ZM112.172 515.131C112.524 515.131 112.756 515.139 112.868 515.155V517.435H112.268C111.036 517.435 110.084 517.739 109.412 518.347C108.74 518.955 108.404 519.835 108.404 520.987V527.707H106.004V515.323H108.308V517.531C109.092 515.931 110.38 515.131 112.172 515.131ZM123.045 517.003V510.619H125.445V527.707H123.141V525.883C122.213 527.291 120.845 527.995 119.037 527.995C117.309 527.995 115.933 527.411 114.909 526.243C113.885 525.075 113.373 523.499 113.373 521.515C113.373 519.531 113.885 517.955 114.909 516.787C115.933 515.619 117.309 515.035 119.037 515.035C120.781 515.035 122.117 515.691 123.045 517.003ZM115.869 521.611C115.869 522.987 116.197 524.051 116.853 524.803C117.509 525.555 118.389 525.931 119.493 525.931C120.629 525.931 121.517 525.539 122.157 524.755C122.797 524.003 123.117 522.923 123.117 521.515C123.117 520.123 122.797 519.035 122.157 518.251C121.517 517.483 120.629 517.099 119.493 517.099C118.389 517.099 117.509 517.499 116.853 518.299C116.197 519.099 115.869 520.203 115.869 521.611ZM127.817 527.707V524.851H130.721V527.947C130.721 530.027 129.857 531.115 128.129 531.211L127.817 531.235V529.747L128.081 529.723C128.737 529.643 129.065 529.099 129.065 528.091V527.707H127.817ZM150.982 522.955L151.15 525.619C151.23 526.499 151.422 527.195 151.726 527.707H149.086C148.766 527.243 148.598 526.515 148.582 525.523L148.51 523.699C148.462 522.595 148.214 521.819 147.766 521.371C147.318 520.907 146.598 520.675 145.606 520.675H140.638V527.707H138.07V510.619H145.534C147.358 510.619 148.79 511.043 149.83 511.891C150.886 512.723 151.414 513.875 151.414 515.347C151.414 516.387 151.158 517.267 150.646 517.987C150.15 518.691 149.446 519.187 148.534 519.475C149.366 519.715 149.974 520.123 150.358 520.699C150.742 521.259 150.95 522.011 150.982 522.955ZM140.638 518.539H145.582C146.574 518.539 147.35 518.283 147.91 517.771C148.486 517.259 148.774 516.531 148.774 515.587C148.774 514.675 148.478 513.987 147.886 513.523C147.31 513.059 146.478 512.827 145.39 512.827H140.638V518.539ZM164.285 525.859H164.957V527.707C164.605 527.755 164.213 527.779 163.781 527.779C163.013 527.779 162.437 527.643 162.053 527.371C161.685 527.083 161.461 526.635 161.381 526.027C160.549 527.339 159.205 527.995 157.349 527.995C155.989 527.995 154.909 527.675 154.109 527.035C153.325 526.379 152.933 525.475 152.933 524.323C152.933 522.083 154.485 520.803 157.589 520.483L159.413 520.291C160.053 520.211 160.517 520.051 160.805 519.811C161.109 519.555 161.261 519.195 161.261 518.731C161.261 518.107 161.061 517.659 160.661 517.387C160.277 517.099 159.629 516.955 158.717 516.955C157.725 516.955 157.013 517.123 156.581 517.459C156.149 517.779 155.901 518.355 155.837 519.187H153.461C153.637 516.419 155.389 515.035 158.717 515.035C161.981 515.035 163.613 516.251 163.613 518.683V525.235C163.613 525.651 163.837 525.859 164.285 525.859ZM157.709 526.123C158.733 526.123 159.581 525.835 160.253 525.259C160.925 524.683 161.261 523.867 161.261 522.811V521.515C160.957 521.771 160.445 521.939 159.725 522.019L157.997 522.211C157.069 522.323 156.405 522.547 156.005 522.883C155.605 523.203 155.405 523.659 155.405 524.251C155.405 524.843 155.597 525.307 155.981 525.643C156.381 525.963 156.957 526.123 157.709 526.123ZM172.001 515.323V517.291H169.505V524.731C169.505 525.099 169.609 525.371 169.817 525.547C170.041 525.707 170.409 525.787 170.921 525.787H172.001V527.707C171.473 527.755 170.985 527.779 170.537 527.779C169.369 527.779 168.505 527.555 167.945 527.107C167.385 526.659 167.105 525.939 167.105 524.947V517.291H165.113V515.323H167.105V511.771H169.505V515.323H172.001ZM184.876 521.611V522.307H175.54C175.652 523.523 176.012 524.443 176.62 525.067C177.228 525.675 178.052 525.979 179.092 525.979C180.66 525.979 181.684 525.291 182.164 523.915H184.588C184.252 525.179 183.596 526.179 182.62 526.915C181.66 527.635 180.468 527.995 179.044 527.995C177.268 527.995 175.836 527.403 174.748 526.219C173.66 525.035 173.116 523.467 173.116 521.515C173.116 519.563 173.66 517.995 174.748 516.811C175.836 515.627 177.252 515.035 178.996 515.035C180.82 515.035 182.26 515.651 183.316 516.883C184.356 518.115 184.876 519.691 184.876 521.611ZM178.996 517.051C178.052 517.051 177.276 517.339 176.668 517.915C176.076 518.491 175.708 519.323 175.564 520.411H182.404C182.292 519.403 181.932 518.595 181.324 517.987C180.732 517.363 179.956 517.051 178.996 517.051ZM202.512 525.859H203.184V527.707C202.832 527.755 202.44 527.779 202.008 527.779C201.24 527.779 200.664 527.643 200.28 527.371C199.912 527.083 199.688 526.635 199.608 526.027C198.776 527.339 197.432 527.995 195.576 527.995C194.216 527.995 193.136 527.675 192.336 527.035C191.552 526.379 191.16 525.475 191.16 524.323C191.16 522.083 192.712 520.803 195.816 520.483L197.64 520.291C198.28 520.211 198.744 520.051 199.032 519.811C199.336 519.555 199.488 519.195 199.488 518.731C199.488 518.107 199.288 517.659 198.888 517.387C198.504 517.099 197.856 516.955 196.944 516.955C195.952 516.955 195.24 517.123 194.808 517.459C194.376 517.779 194.128 518.355 194.064 519.187H191.688C191.864 516.419 193.616 515.035 196.944 515.035C200.208 515.035 201.84 516.251 201.84 518.683V525.235C201.84 525.651 202.064 525.859 202.512 525.859ZM195.936 526.123C196.96 526.123 197.808 525.835 198.48 525.259C199.152 524.683 199.488 523.867 199.488 522.811V521.515C199.184 521.771 198.672 521.939 197.952 522.019L196.224 522.211C195.296 522.323 194.632 522.547 194.232 522.883C193.832 523.203 193.632 523.659 193.632 524.251C193.632 524.843 193.824 525.307 194.208 525.643C194.608 525.963 195.184 526.123 195.936 526.123ZM210.962 515.035C212.322 515.035 213.386 515.419 214.154 516.187C214.922 516.939 215.306 518.011 215.306 519.403V527.707H212.906V519.739C212.906 518.011 212.034 517.147 210.29 517.147C209.49 517.147 208.77 517.451 208.13 518.059C207.49 518.683 207.17 519.571 207.17 520.723V527.707H204.77V515.323H207.074V517.171C208.018 515.747 209.314 515.035 210.962 515.035ZM227.108 517.003V510.619H229.508V527.707H227.204V525.883C226.276 527.291 224.908 527.995 223.1 527.995C221.372 527.995 219.996 527.411 218.972 526.243C217.948 525.075 217.436 523.499 217.436 521.515C217.436 519.531 217.948 517.955 218.972 516.787C219.996 515.619 221.372 515.035 223.1 515.035C224.844 515.035 226.18 515.691 227.108 517.003ZM219.932 521.611C219.932 522.987 220.26 524.051 220.916 524.803C221.572 525.555 222.452 525.931 223.556 525.931C224.692 525.931 225.58 525.539 226.22 524.755C226.86 524.003 227.18 522.923 227.18 521.515C227.18 520.123 226.86 519.035 226.22 518.251C225.58 517.483 224.692 517.099 223.556 517.099C222.452 517.099 221.572 517.499 220.916 518.299C220.26 519.099 219.932 520.203 219.932 521.611ZM250.123 522.955L250.291 525.619C250.371 526.499 250.563 527.195 250.867 527.707H248.227C247.907 527.243 247.739 526.515 247.723 525.523L247.651 523.699C247.603 522.595 247.355 521.819 246.907 521.371C246.459 520.907 245.739 520.675 244.747 520.675H239.779V527.707H237.211V510.619H244.675C246.499 510.619 247.931 511.043 248.971 511.891C250.027 512.723 250.555 513.875 250.555 515.347C250.555 516.387 250.299 517.267 249.787 517.987C249.291 518.691 248.587 519.187 247.675 519.475C248.507 519.715 249.115 520.123 249.499 520.699C249.883 521.259 250.091 522.011 250.123 522.955ZM239.779 518.539H244.723C245.715 518.539 246.491 518.283 247.051 517.771C247.627 517.259 247.915 516.531 247.915 515.587C247.915 514.675 247.619 513.987 247.027 513.523C246.451 513.059 245.619 512.827 244.531 512.827H239.779V518.539ZM263.883 521.611V522.307H254.547C254.659 523.523 255.019 524.443 255.627 525.067C256.235 525.675 257.059 525.979 258.099 525.979C259.667 525.979 260.691 525.291 261.171 523.915H263.595C263.259 525.179 262.603 526.179 261.627 526.915C260.667 527.635 259.475 527.995 258.051 527.995C256.275 527.995 254.843 527.403 253.755 526.219C252.667 525.035 252.123 523.467 252.123 521.515C252.123 519.563 252.667 517.995 253.755 516.811C254.843 515.627 256.259 515.035 258.003 515.035C259.827 515.035 261.267 515.651 262.323 516.883C263.363 518.115 263.883 519.691 263.883 521.611ZM258.003 517.051C257.059 517.051 256.283 517.339 255.675 517.915C255.083 518.491 254.715 519.323 254.571 520.411H261.411C261.299 519.403 260.939 518.595 260.331 517.987C259.739 517.363 258.963 517.051 258.003 517.051ZM272.099 519.859L273.755 515.323H276.299L271.547 527.707H268.883L264.155 515.323H266.747L268.427 519.859C269.563 523.235 270.171 525.075 270.251 525.379C270.299 525.219 270.403 524.899 270.563 524.419C270.723 523.939 270.947 523.283 271.235 522.451C271.523 521.603 271.811 520.739 272.099 519.859ZM280.038 513.571H277.59V511.003H280.038V513.571ZM280.014 527.707H277.614V515.323H280.014V527.707ZM293.883 521.611V522.307H284.547C284.659 523.523 285.019 524.443 285.627 525.067C286.235 525.675 287.059 525.979 288.099 525.979C289.667 525.979 290.691 525.291 291.171 523.915H293.595C293.259 525.179 292.603 526.179 291.627 526.915C290.667 527.635 289.475 527.995 288.051 527.995C286.275 527.995 284.843 527.403 283.755 526.219C282.667 525.035 282.123 523.467 282.123 521.515C282.123 519.563 282.667 517.995 283.755 516.811C284.843 515.627 286.259 515.035 288.003 515.035C289.827 515.035 291.267 515.651 292.323 516.883C293.363 518.115 293.883 519.691 293.883 521.611ZM288.003 517.051C287.059 517.051 286.283 517.339 285.675 517.915C285.083 518.491 284.715 519.323 284.571 520.411H291.411C291.299 519.403 290.939 518.595 290.331 517.987C289.739 517.363 288.963 517.051 288.003 517.051ZM308.963 520.483L310.571 515.323H313.139L309.035 527.707H306.515L304.811 522.259C304.379 520.883 303.987 519.555 303.635 518.275C303.107 520.147 302.723 521.475 302.483 522.259L300.803 527.707H298.259L294.155 515.323H296.747L298.331 520.483C298.763 521.875 299.195 523.347 299.627 524.899C299.915 523.747 300.331 522.275 300.875 520.483L302.459 515.323H304.859L306.419 520.483C307.075 522.707 307.499 524.171 307.691 524.875C307.883 524.171 308.307 522.707 308.963 520.483ZM325.954 519.571L327.394 515.323H329.938L324.898 529.267C324.482 530.451 323.93 531.283 323.242 531.763C322.554 532.243 321.578 532.483 320.314 532.483C319.882 532.483 319.466 532.459 319.066 532.411V530.467H320.266C321.338 530.467 322.058 529.971 322.426 528.979C322.458 528.883 322.506 528.731 322.57 528.523C322.65 528.315 322.714 528.155 322.762 528.043L318.178 515.323H320.794L322.234 519.571C323.002 521.939 323.618 523.915 324.082 525.499C324.706 523.467 325.33 521.491 325.954 519.571ZM340.707 526.219C339.571 527.403 338.091 527.995 336.267 527.995C334.443 527.995 332.963 527.403 331.827 526.219C330.691 525.035 330.123 523.467 330.123 521.515C330.123 519.547 330.691 517.971 331.827 516.787C332.947 515.619 334.427 515.035 336.267 515.035C338.107 515.035 339.587 515.619 340.707 516.787C341.827 517.955 342.387 519.531 342.387 521.515C342.387 523.483 341.827 525.051 340.707 526.219ZM333.603 524.755C334.259 525.539 335.147 525.931 336.267 525.931C337.387 525.931 338.267 525.539 338.907 524.755C339.563 523.971 339.891 522.891 339.891 521.515C339.891 520.139 339.563 519.059 338.907 518.275C338.267 517.491 337.387 517.099 336.267 517.099C335.147 517.099 334.259 517.491 333.603 518.275C332.947 519.059 332.619 520.139 332.619 521.515C332.619 522.891 332.947 523.971 333.603 524.755ZM352.312 522.307V515.323H354.712V527.707H352.408V525.859C351.464 527.283 350.168 527.995 348.52 527.995C347.16 527.995 346.096 527.611 345.328 526.843C344.56 526.075 344.176 525.003 344.176 523.627V515.323H346.576V523.291C346.576 525.019 347.448 525.883 349.192 525.883C350.072 525.883 350.808 525.571 351.4 524.947C352.008 524.307 352.312 523.427 352.312 522.307ZM363.586 515.131C363.938 515.131 364.17 515.139 364.282 515.155V517.435H363.682C362.45 517.435 361.498 517.739 360.826 518.347C360.154 518.955 359.818 519.835 359.818 520.987V527.707H357.418V515.323H359.722V517.531C360.506 515.931 361.794 515.131 363.586 515.131ZM118.014 553.035C119.742 553.035 121.118 553.619 122.142 554.787C123.166 555.955 123.678 557.531 123.678 559.515C123.678 561.483 123.166 563.051 122.142 564.219C121.102 565.403 119.726 565.995 118.014 565.995C116.254 565.995 114.91 565.323 113.982 563.979V570.411H111.582V553.323H113.886V555.195C114.814 553.755 116.19 553.035 118.014 553.035ZM114.918 562.755C115.558 563.539 116.438 563.931 117.558 563.931C118.678 563.931 119.566 563.531 120.222 562.731C120.862 561.947 121.182 560.843 121.182 559.419C121.182 558.043 120.862 556.979 120.222 556.227C119.582 555.475 118.694 555.099 117.558 555.099C116.454 555.099 115.574 555.483 114.918 556.251C114.262 557.051 113.934 558.139 113.934 559.515C113.934 560.891 114.262 561.971 114.918 562.755ZM135.793 564.219C134.657 565.403 133.177 565.995 131.353 565.995C129.529 565.995 128.049 565.403 126.913 564.219C125.777 563.035 125.209 561.467 125.209 559.515C125.209 557.547 125.777 555.971 126.913 554.787C128.033 553.619 129.513 553.035 131.353 553.035C133.193 553.035 134.673 553.619 135.793 554.787C136.913 555.955 137.473 557.531 137.473 559.515C137.473 561.483 136.913 563.051 135.793 564.219ZM128.689 562.755C129.345 563.539 130.233 563.931 131.353 563.931C132.473 563.931 133.353 563.539 133.993 562.755C134.649 561.971 134.977 560.891 134.977 559.515C134.977 558.139 134.649 557.059 133.993 556.275C133.353 555.491 132.473 555.099 131.353 555.099C130.233 555.099 129.345 555.491 128.689 556.275C128.033 557.059 127.705 558.139 127.705 559.515C127.705 560.891 128.033 561.971 128.689 562.755ZM141.99 565.707H139.59V548.619H141.99V565.707ZM147.1 551.571H144.652V549.003H147.1V551.571ZM147.076 565.707H144.676V553.323H147.076V565.707ZM155.09 565.995C153.33 565.995 151.906 565.403 150.818 564.219C149.73 563.035 149.186 561.467 149.186 559.515C149.186 557.547 149.73 555.971 150.818 554.787C151.89 553.619 153.314 553.035 155.09 553.035C156.61 553.035 157.858 553.451 158.834 554.283C159.826 555.115 160.418 556.235 160.61 557.643H158.162C158.002 556.827 157.642 556.203 157.082 555.771C156.538 555.339 155.874 555.123 155.09 555.123C154.05 555.123 153.218 555.507 152.594 556.275C151.986 557.027 151.682 558.107 151.682 559.515C151.682 560.923 151.986 562.011 152.594 562.779C153.218 563.531 154.05 563.907 155.09 563.907C155.89 563.907 156.57 563.683 157.13 563.235C157.69 562.787 158.042 562.139 158.186 561.291H160.634C160.442 562.731 159.842 563.875 158.834 564.723C157.826 565.571 156.578 565.995 155.09 565.995ZM173.719 559.611V560.307H164.383C164.495 561.523 164.855 562.443 165.463 563.067C166.071 563.675 166.895 563.979 167.935 563.979C169.503 563.979 170.527 563.291 171.007 561.915H173.431C173.095 563.179 172.439 564.179 171.463 564.915C170.503 565.635 169.311 565.995 167.887 565.995C166.111 565.995 164.679 565.403 163.591 564.219C162.503 563.035 161.959 561.467 161.959 559.515C161.959 557.563 162.503 555.995 163.591 554.811C164.679 553.627 166.095 553.035 167.839 553.035C169.663 553.035 171.103 553.651 172.159 554.883C173.199 556.115 173.719 557.691 173.719 559.611ZM167.839 555.051C166.895 555.051 166.119 555.339 165.511 555.915C164.919 556.491 164.551 557.323 164.407 558.411H171.247C171.135 557.403 170.775 556.595 170.167 555.987C169.575 555.363 168.799 555.051 167.839 555.051ZM191.883 559.611V560.307H182.547C182.659 561.523 183.019 562.443 183.627 563.067C184.235 563.675 185.059 563.979 186.099 563.979C187.667 563.979 188.691 563.291 189.171 561.915H191.595C191.259 563.179 190.603 564.179 189.627 564.915C188.667 565.635 187.475 565.995 186.051 565.995C184.275 565.995 182.843 565.403 181.755 564.219C180.667 563.035 180.123 561.467 180.123 559.515C180.123 557.563 180.667 555.995 181.755 554.811C182.843 553.627 184.259 553.035 186.003 553.035C187.827 553.035 189.267 553.651 190.323 554.883C191.363 556.115 191.883 557.691 191.883 559.611ZM186.003 555.051C185.059 555.051 184.283 555.339 183.675 555.915C183.083 556.491 182.715 557.323 182.571 558.411H189.411C189.299 557.403 188.939 556.595 188.331 555.987C187.739 555.363 186.963 555.051 186.003 555.051ZM200.204 553.035C201.564 553.035 202.628 553.419 203.396 554.187C204.164 554.939 204.548 556.011 204.548 557.403V565.707H202.148V557.739C202.148 556.011 201.276 555.147 199.532 555.147C198.732 555.147 198.012 555.451 197.372 556.059C196.732 556.683 196.412 557.571 196.412 558.723V565.707H194.012V553.323H196.316V555.171C197.26 553.747 198.556 553.035 200.204 553.035ZM212.582 565.995C210.822 565.995 209.398 565.403 208.31 564.219C207.222 563.035 206.678 561.467 206.678 559.515C206.678 557.547 207.222 555.971 208.31 554.787C209.382 553.619 210.806 553.035 212.582 553.035C214.102 553.035 215.35 553.451 216.326 554.283C217.318 555.115 217.91 556.235 218.102 557.643H215.654C215.494 556.827 215.134 556.203 214.574 555.771C214.03 555.339 213.366 555.123 212.582 555.123C211.542 555.123 210.71 555.507 210.086 556.275C209.478 557.027 209.174 558.107 209.174 559.515C209.174 560.923 209.478 562.011 210.086 562.779C210.71 563.531 211.542 563.907 212.582 563.907C213.382 563.907 214.062 563.683 214.622 563.235C215.182 562.787 215.534 562.139 215.678 561.291H218.126C217.934 562.731 217.334 563.875 216.326 564.723C215.318 565.571 214.07 565.995 212.582 565.995ZM230.036 564.219C228.9 565.403 227.42 565.995 225.596 565.995C223.772 565.995 222.292 565.403 221.156 564.219C220.02 563.035 219.452 561.467 219.452 559.515C219.452 557.547 220.02 555.971 221.156 554.787C222.276 553.619 223.756 553.035 225.596 553.035C227.436 553.035 228.916 553.619 230.036 554.787C231.156 555.955 231.716 557.531 231.716 559.515C231.716 561.483 231.156 563.051 230.036 564.219ZM222.932 562.755C223.588 563.539 224.476 563.931 225.596 563.931C226.716 563.931 227.596 563.539 228.236 562.755C228.892 561.971 229.22 560.891 229.22 559.515C229.22 558.139 228.892 557.059 228.236 556.275C227.596 555.491 226.716 555.099 225.596 555.099C224.476 555.099 223.588 555.491 222.932 556.275C222.276 557.059 221.948 558.139 221.948 559.515C221.948 560.891 222.276 561.971 222.932 562.755ZM241.64 560.307V553.323H244.04V565.707H241.736V563.859C240.792 565.283 239.496 565.995 237.848 565.995C236.488 565.995 235.424 565.611 234.656 564.843C233.888 564.075 233.504 563.003 233.504 561.627V553.323H235.904V561.291C235.904 563.019 236.776 563.883 238.52 563.883C239.4 563.883 240.136 563.571 240.728 562.947C241.336 562.307 241.64 561.427 241.64 560.307ZM252.938 553.035C254.298 553.035 255.362 553.419 256.13 554.187C256.898 554.939 257.282 556.011 257.282 557.403V565.707H254.882V557.739C254.882 556.011 254.01 555.147 252.266 555.147C251.466 555.147 250.746 555.451 250.106 556.059C249.466 556.683 249.146 557.571 249.146 558.723V565.707H246.746V553.323H249.05V555.171C249.994 553.747 251.29 553.035 252.938 553.035ZM265.423 553.323V555.291H262.927V562.731C262.927 563.099 263.031 563.371 263.239 563.547C263.463 563.707 263.831 563.787 264.343 563.787H265.423V565.707C264.895 565.755 264.407 565.779 263.959 565.779C262.791 565.779 261.927 565.555 261.367 565.107C260.807 564.659 260.527 563.939 260.527 562.947V555.291H258.535V553.323H260.527V549.771H262.927V553.323H265.423ZM278.298 559.611V560.307H268.962C269.074 561.523 269.434 562.443 270.042 563.067C270.65 563.675 271.474 563.979 272.514 563.979C274.082 563.979 275.106 563.291 275.586 561.915H278.01C277.674 563.179 277.018 564.179 276.042 564.915C275.082 565.635 273.89 565.995 272.466 565.995C270.69 565.995 269.258 565.403 268.17 564.219C267.082 563.035 266.538 561.467 266.538 559.515C266.538 557.563 267.082 555.995 268.17 554.811C269.258 553.627 270.674 553.035 272.418 553.035C274.242 553.035 275.682 553.651 276.738 554.883C277.778 556.115 278.298 557.691 278.298 559.611ZM272.418 555.051C271.474 555.051 270.698 555.339 270.09 555.915C269.498 556.491 269.13 557.323 268.986 558.411H275.826C275.714 557.403 275.354 556.595 274.746 555.987C274.154 555.363 273.378 555.051 272.418 555.051ZM286.594 553.131C286.946 553.131 287.178 553.139 287.29 553.155V555.435H286.69C285.458 555.435 284.506 555.739 283.834 556.347C283.162 556.955 282.826 557.835 282.826 558.987V565.707H280.426V553.323H282.73V555.531C283.514 553.931 284.802 553.131 286.594 553.131ZM293.213 566.019C289.773 566.019 287.965 564.603 287.789 561.771H290.189C290.285 562.635 290.565 563.243 291.029 563.595C291.493 563.947 292.229 564.123 293.237 564.123C295.061 564.123 295.973 563.547 295.973 562.395C295.973 561.899 295.781 561.515 295.397 561.243C295.013 560.971 294.325 560.747 293.333 560.571L292.061 560.331C289.437 559.851 288.125 558.619 288.125 556.635C288.125 555.531 288.549 554.659 289.397 554.019C290.245 553.363 291.413 553.035 292.901 553.035C296.309 553.035 298.053 554.419 298.133 557.187H295.805C295.757 556.355 295.501 555.771 295.037 555.435C294.573 555.083 293.861 554.907 292.901 554.907C292.133 554.907 291.541 555.051 291.125 555.339C290.709 555.627 290.501 556.035 290.501 556.563C290.501 557.043 290.685 557.419 291.053 557.691C291.421 557.947 292.005 558.155 292.805 558.315L294.101 558.531C295.621 558.819 296.717 559.251 297.389 559.827C298.061 560.403 298.397 561.203 298.397 562.227C298.397 563.427 297.941 564.363 297.029 565.035C296.117 565.691 294.845 566.019 293.213 566.019ZM302.752 565.707H299.848V562.851H302.752V565.707Z" fill="white"/>
<path d="M181.012 828.373L182.116 823.453H187.132L182.524 840.541H177.148L176.092 835.477C175.596 833.061 175.212 830.981 174.94 829.237C174.636 831.125 174.244 833.205 173.764 835.477L172.708 840.541H167.332L162.724 823.453H167.74L168.844 828.373C169.548 831.493 170.028 833.773 170.284 835.213C170.652 832.973 171.076 830.693 171.556 828.373L172.564 823.453H177.292L178.3 828.373C178.78 830.693 179.204 832.973 179.572 835.213C179.844 833.773 180.324 831.493 181.012 828.373ZM203.32 840.541H198.232L197.512 838.309H190.816L190.096 840.541H185.2L191.272 823.453H197.032L203.32 840.541ZM193.312 830.413L192.064 834.349H196.216L194.944 830.413C194.496 829.037 194.224 828.133 194.128 827.701C193.728 829.029 193.456 829.933 193.312 830.413ZM201.287 823.453H216.167V827.725H211.127V840.541H206.327V827.725H201.287V823.453ZM224.912 840.925C222.256 840.925 220.136 840.117 218.552 838.501C216.952 836.901 216.152 834.733 216.152 831.997C216.152 829.261 216.936 827.085 218.504 825.469C220.056 823.869 222.192 823.069 224.912 823.069C227.104 823.069 228.976 823.661 230.528 824.845C232.048 826.045 232.968 827.701 233.288 829.813H228.44C228.216 828.965 227.792 828.317 227.168 827.869C226.544 827.405 225.792 827.173 224.912 827.173C223.68 827.173 222.744 827.589 222.104 828.421C221.464 829.253 221.144 830.445 221.144 831.997C221.144 833.549 221.464 834.741 222.104 835.573C222.744 836.405 223.68 836.821 224.912 836.821C225.872 836.821 226.664 836.565 227.288 836.053C227.928 835.525 228.336 834.789 228.512 833.845H233.312C233.04 836.085 232.144 837.821 230.624 839.053C229.088 840.301 227.184 840.925 224.912 840.925ZM245.669 829.693V823.453H250.469V840.541H245.669V833.965H239.789V840.541H234.989V823.453H239.789V829.693H245.669ZM263.792 826.237V823.453H268.352V840.541H263.288L259.664 834.469C258.688 832.821 257.904 831.413 257.312 830.245C257.392 832.597 257.432 835.101 257.432 837.757V840.541H252.872V823.453H257.936L261.56 829.525C262.424 830.997 263.208 832.413 263.912 833.773C263.832 831.421 263.792 828.909 263.792 826.237Z" fill="#15175A"/>
<path d="M294.536 815.073H298.68C299.735 815.073 300.547 815.348 301.116 815.899C301.695 816.449 301.984 817.196 301.984 818.139C301.984 819.081 301.695 819.828 301.116 820.379C300.547 820.929 299.735 821.205 298.68 821.205H295.712V825.041H294.536V815.073ZM295.712 820.141H298.68C299.371 820.141 299.889 819.973 300.234 819.637C300.589 819.291 300.766 818.792 300.766 818.139C300.766 817.485 300.589 816.991 300.234 816.655C299.889 816.309 299.371 816.137 298.68 816.137H295.712V820.141ZM308.408 824.173C307.745 824.863 306.905 825.209 305.888 825.209C304.871 825.209 304.031 824.863 303.368 824.173C302.715 823.491 302.388 822.577 302.388 821.429C302.388 820.281 302.715 819.366 303.368 818.685C304.031 817.994 304.871 817.649 305.888 817.649C306.905 817.649 307.745 817.994 308.408 818.685C309.061 819.366 309.388 820.281 309.388 821.429C309.388 822.577 309.061 823.491 308.408 824.173ZM304.194 823.459C304.614 823.953 305.179 824.201 305.888 824.201C306.597 824.201 307.162 823.953 307.582 823.459C308.002 822.973 308.212 822.297 308.212 821.429C308.212 820.551 308.002 819.87 307.582 819.385C307.162 818.899 306.597 818.657 305.888 818.657C305.179 818.657 304.614 818.899 304.194 819.385C303.774 819.87 303.564 820.551 303.564 821.429C303.564 822.297 303.774 822.973 304.194 823.459ZM318.054 821.079L319.076 817.817H320.28L317.872 825.041H316.696L315.632 821.695C315.268 820.509 315.026 819.693 314.904 819.245C314.69 820.01 314.442 820.827 314.162 821.695L313.112 825.041H311.936L309.528 817.817H310.732L311.754 821.079C312.006 821.872 312.268 822.749 312.538 823.711C312.837 822.647 313.094 821.769 313.308 821.079L314.316 817.817H315.492L316.5 821.079C317.014 822.787 317.275 823.655 317.284 823.683C317.359 823.393 317.616 822.525 318.054 821.079ZM327.071 821.429V821.821H321.583C321.639 822.605 321.858 823.197 322.241 823.599C322.624 823.991 323.146 824.187 323.809 824.187C324.808 824.187 325.447 823.739 325.727 822.843H326.889C326.693 823.571 326.329 824.149 325.797 824.579C325.265 824.999 324.593 825.209 323.781 825.209C322.782 825.209 321.975 824.868 321.359 824.187C320.734 823.505 320.421 822.586 320.421 821.429C320.421 820.29 320.729 819.375 321.345 818.685C321.952 817.994 322.754 817.649 323.753 817.649C324.789 817.649 325.601 818.008 326.189 818.727C326.777 819.445 327.071 820.346 327.071 821.429ZM323.753 818.671C323.165 818.671 322.684 818.857 322.311 819.231C321.938 819.595 321.704 820.122 321.611 820.813H325.867C325.811 820.178 325.596 819.665 325.223 819.273C324.85 818.871 324.36 818.671 323.753 818.671ZM331.788 817.705C331.975 817.705 332.101 817.709 332.166 817.719V818.797H331.886C331.139 818.797 330.556 818.983 330.136 819.357C329.725 819.721 329.52 820.243 329.52 820.925V825.041H328.4V817.817H329.464V819.091C329.949 818.167 330.724 817.705 331.788 817.705ZM339.089 821.429V821.821H333.601C333.657 822.605 333.876 823.197 334.259 823.599C334.641 823.991 335.164 824.187 335.827 824.187C336.825 824.187 337.465 823.739 337.745 822.843H338.907C338.711 823.571 338.347 824.149 337.815 824.579C337.283 824.999 336.611 825.209 335.799 825.209C334.8 825.209 333.993 824.868 333.377 824.187C332.751 823.505 332.439 822.586 332.439 821.429C332.439 820.29 332.747 819.375 333.363 818.685C333.969 817.994 334.772 817.649 335.771 817.649C336.807 817.649 337.619 818.008 338.207 818.727C338.795 819.445 339.089 820.346 339.089 821.429ZM335.771 818.671C335.183 818.671 334.702 818.857 334.329 819.231C333.955 819.595 333.722 820.122 333.629 820.813H337.885C337.829 820.178 337.614 819.665 337.241 819.273C336.867 818.871 336.377 818.671 335.771 818.671ZM345.85 818.853V815.073H346.97V825.041H345.906V823.921C345.327 824.779 344.501 825.209 343.428 825.209C342.41 825.209 341.598 824.863 340.992 824.173C340.376 823.482 340.068 822.567 340.068 821.429C340.068 820.271 340.376 819.352 340.992 818.671C341.589 817.989 342.401 817.649 343.428 817.649C344.464 817.649 345.271 818.05 345.85 818.853ZM341.244 821.485C341.244 822.343 341.454 823.011 341.874 823.487C342.294 823.963 342.858 824.201 343.568 824.201C344.277 824.201 344.842 823.953 345.262 823.459C345.682 822.973 345.892 822.297 345.892 821.429C345.892 820.57 345.682 819.893 345.262 819.399C344.842 818.904 344.277 818.657 343.568 818.657C342.868 818.657 342.303 818.913 341.874 819.427C341.454 819.931 341.244 820.617 341.244 821.485ZM354.856 817.649C355.873 817.649 356.69 817.989 357.306 818.671C357.913 819.361 358.216 820.281 358.216 821.429C358.216 822.567 357.913 823.482 357.306 824.173C356.69 824.863 355.873 825.209 354.856 825.209C353.783 825.209 352.957 824.779 352.378 823.921V825.041H351.314V815.073H352.434V818.853C353.013 818.05 353.82 817.649 354.856 817.649ZM354.716 824.201C355.416 824.201 355.976 823.949 356.396 823.445C356.825 822.931 357.04 822.241 357.04 821.373C357.04 820.523 356.83 819.861 356.41 819.385C355.999 818.899 355.435 818.657 354.716 818.657C354.007 818.657 353.442 818.899 353.022 819.385C352.602 819.87 352.392 820.551 352.392 821.429C352.392 822.297 352.602 822.973 353.022 823.459C353.442 823.953 354.007 824.201 354.716 824.201ZM362.677 820.813L363.699 817.817H364.917L361.865 826.175C361.65 826.781 361.356 827.206 360.983 827.449C360.609 827.701 360.119 827.827 359.513 827.827C359.307 827.827 359.083 827.813 358.841 827.785V826.847H359.499C360.143 826.847 360.581 826.548 360.815 825.951L361.067 825.279L358.351 817.817H359.583L360.605 820.827C360.969 821.891 361.314 822.931 361.641 823.949C361.911 823.081 362.257 822.035 362.677 820.813ZM298.722 847.265C297.369 847.265 296.263 846.793 295.404 845.851C294.546 844.908 294.116 843.643 294.116 842.057C294.116 840.47 294.546 839.205 295.404 838.263C296.263 837.32 297.369 836.849 298.722 836.849C299.796 836.849 300.71 837.143 301.466 837.731C302.222 838.309 302.722 839.159 302.964 840.279H301.774C301.354 838.711 300.337 837.927 298.722 837.927C297.705 837.927 296.888 838.291 296.272 839.019C295.656 839.756 295.348 840.769 295.348 842.057C295.348 843.345 295.656 844.353 296.272 845.081C296.888 845.818 297.705 846.187 298.722 846.187C299.488 846.187 300.169 845.949 300.766 845.473C301.354 845.015 301.714 844.329 301.844 843.415H303.02C302.89 844.656 302.418 845.603 301.606 846.257C300.785 846.929 299.824 847.265 298.722 847.265ZM309.953 846.173C309.29 846.863 308.45 847.209 307.433 847.209C306.416 847.209 305.576 846.863 304.913 846.173C304.26 845.491 303.933 844.577 303.933 843.429C303.933 842.281 304.26 841.366 304.913 840.685C305.576 839.994 306.416 839.649 307.433 839.649C308.45 839.649 309.29 839.994 309.953 840.685C310.606 841.366 310.933 842.281 310.933 843.429C310.933 844.577 310.606 845.491 309.953 846.173ZM305.739 845.459C306.159 845.953 306.724 846.201 307.433 846.201C308.142 846.201 308.707 845.953 309.127 845.459C309.547 844.973 309.757 844.297 309.757 843.429C309.757 842.551 309.547 841.87 309.127 841.385C308.707 840.899 308.142 840.657 307.433 840.657C306.724 840.657 306.159 840.899 305.739 841.385C305.319 841.87 305.109 842.551 305.109 843.429C305.109 844.297 305.319 844.973 305.739 845.459ZM319.869 839.649C320.653 839.649 321.26 839.877 321.689 840.335C322.128 840.783 322.347 841.385 322.347 842.141V847.041H321.227V842.253C321.227 841.189 320.723 840.657 319.715 840.657C319.183 840.657 318.74 840.871 318.385 841.301C318.04 841.721 317.867 842.318 317.867 843.093V847.041H316.747V842.253C316.747 841.189 316.243 840.657 315.235 840.657C314.713 840.657 314.274 840.871 313.919 841.301C313.565 841.721 313.387 842.318 313.387 843.093V847.041H312.267V839.817H313.331V840.881C313.807 840.059 314.503 839.649 315.417 839.649C316.5 839.649 317.242 840.101 317.643 841.007C318.147 840.101 318.889 839.649 319.869 839.649ZM331.627 839.649C332.411 839.649 333.018 839.877 333.447 840.335C333.886 840.783 334.105 841.385 334.105 842.141V847.041H332.985V842.253C332.985 841.189 332.481 840.657 331.473 840.657C330.941 840.657 330.498 840.871 330.143 841.301C329.798 841.721 329.625 842.318 329.625 843.093V847.041H328.505V842.253C328.505 841.189 328.001 840.657 326.993 840.657C326.47 840.657 326.032 840.871 325.677 841.301C325.322 841.721 325.145 842.318 325.145 843.093V847.041H324.025V839.817H325.089V840.881C325.565 840.059 326.26 839.649 327.175 839.649C328.258 839.649 329 840.101 329.401 841.007C329.905 840.101 330.647 839.649 331.627 839.649ZM340.269 843.905V839.817H341.389V847.041H340.325V845.963C339.775 846.793 339.019 847.209 338.057 847.209C337.255 847.209 336.629 846.989 336.181 846.551C335.733 846.112 335.509 845.496 335.509 844.703V839.817H336.629V844.591C336.629 845.664 337.18 846.201 338.281 846.201C338.804 846.201 339.266 846.005 339.667 845.613C340.069 845.221 340.269 844.651 340.269 843.905ZM346.402 839.649C347.205 839.649 347.83 839.868 348.278 840.307C348.726 840.745 348.95 841.361 348.95 842.155V847.041H347.83V842.267C347.83 841.193 347.279 840.657 346.178 840.657C345.655 840.657 345.193 840.853 344.792 841.245C344.391 841.637 344.19 842.206 344.19 842.953V847.041H343.07V839.817H344.134V840.895C344.685 840.064 345.441 839.649 346.402 839.649ZM351.779 838.725H350.589V837.353H351.779V838.725ZM351.751 847.041H350.631V839.817H351.751V847.041ZM356.597 839.817V840.797H355.113V845.487C355.113 845.897 355.389 846.103 355.939 846.103H356.597V847.041C356.289 847.069 356.023 847.083 355.799 847.083C354.595 847.083 353.993 846.583 353.993 845.585V840.797H352.803V839.817H353.993V837.773H355.113V839.817H356.597ZM361.337 842.813L362.359 839.817H363.577L360.525 848.175C360.31 848.781 360.016 849.206 359.643 849.449C359.27 849.701 358.78 849.827 358.173 849.827C357.968 849.827 357.744 849.813 357.501 849.785V848.847H358.159C358.803 848.847 359.242 848.548 359.475 847.951L359.727 847.279L357.011 839.817H358.243L359.265 842.827C359.629 843.891 359.974 844.931 360.301 845.949C360.572 845.081 360.917 844.035 361.337 842.813Z" fill="#EB4132"/>
<path fill-rule="evenodd" clip-rule="evenodd" d="M84.1907 819.055C84.3872 818.708 84.7549 818.494 85.1533 818.494H110.736C111.133 818.494 111.5 818.707 111.697 819.053C111.894 819.398 111.891 819.822 111.688 820.164L98.9638 841.662C98.7651 841.998 98.4042 842.204 98.014 842.205C97.6238 842.206 97.262 842.001 97.0617 841.666L84.2036 820.169C83.999 819.827 83.9941 819.401 84.1907 819.055ZM87.1048 820.707L98.0065 838.934L108.795 820.707H87.1048Z" fill="#15175A"/>
<path fill-rule="evenodd" clip-rule="evenodd" d="M105.169 819.069C105.685 819.398 105.836 820.082 105.508 820.597L91.9799 841.827C91.7726 842.152 91.4108 842.346 91.025 842.339C90.6393 842.331 90.2853 842.123 90.0908 841.79L80.5142 825.382C80.3144 825.04 80.3129 824.617 80.5102 824.273C80.7076 823.93 81.0736 823.718 81.47 823.718H88.1669C88.7781 823.718 89.2736 824.213 89.2736 824.825C89.2736 825.436 88.7781 825.931 88.1669 825.931H83.3973L91.0881 839.108L103.641 819.408C103.97 818.893 104.654 818.741 105.169 819.069Z" fill="#15175A"/>
<path fill-rule="evenodd" clip-rule="evenodd" d="M90.4696 818.924C90.9911 818.606 91.6722 818.77 91.991 819.291L104.113 839.121L111.962 826.467H107.588C106.977 826.467 106.482 825.971 106.482 825.36C106.482 824.749 106.977 824.254 107.588 824.254H113.95C114.352 824.254 114.722 824.471 114.917 824.822C115.113 825.173 115.103 825.602 114.891 825.944L105.046 841.815C104.844 842.142 104.486 842.34 104.102 842.339C103.718 842.337 103.362 842.137 103.162 841.809L90.1025 820.446C89.7838 819.924 89.9481 819.243 90.4696 818.924Z" fill="#15175A"/>
<path d="M86.5686 808.415C64.6632 811.643 47.978 826.221 42.3735 833.106C57.9763 848.401 79.491 853.186 88.298 853.667C80.0354 851.265 72.0611 841.849 72.0611 833.106C72.0611 817.503 81.7328 810.144 86.5686 808.415Z" fill="#15175A"/>
<path d="M109.243 808.414C131.148 811.643 147.833 826.221 153.438 833.106C137.835 848.401 116.32 853.186 107.513 853.666C115.776 851.265 123.75 841.849 123.75 833.106C123.75 817.503 114.079 810.144 109.243 808.414Z" fill="#15175A"/>
<path d="M149.777 355.36L151.433 347.98H158.957L152.045 373.612H143.981L142.397 366.016C141.653 362.392 141.077 359.272 140.669 356.656C140.213 359.488 139.625 362.608 138.905 366.016L137.321 373.612H129.257L122.345 347.98H129.869L131.525 355.36C132.581 360.04 133.301 363.46 133.685 365.62C134.237 362.26 134.873 358.84 135.593 355.36L137.105 347.98H144.197L145.709 355.36C146.429 358.84 147.065 362.26 147.617 365.62C148.025 363.46 148.745 360.04 149.777 355.36ZM183.24 373.612H175.608L174.528 370.264H164.484L163.404 373.612H156.06L165.168 347.98H173.808L183.24 373.612ZM168.228 358.42L166.356 364.324H172.584L170.676 358.42C170.004 356.356 169.596 355 169.452 354.352C168.852 356.344 168.444 357.7 168.228 358.42ZM180.19 347.98H202.51V354.388H194.95V373.612H187.75V354.388H180.19V347.98ZM215.628 374.188C211.644 374.188 208.464 372.976 206.088 370.552C203.688 368.152 202.488 364.9 202.488 360.796C202.488 356.692 203.664 353.428 206.016 351.004C208.344 348.604 211.548 347.404 215.628 347.404C218.916 347.404 221.724 348.292 224.052 350.068C226.332 351.868 227.712 354.352 228.192 357.52H220.92C220.584 356.248 219.948 355.276 219.012 354.604C218.076 353.908 216.948 353.56 215.628 353.56C213.78 353.56 212.376 354.184 211.416 355.432C210.456 356.68 209.976 358.468 209.976 360.796C209.976 363.124 210.456 364.912 211.416 366.16C212.376 367.408 213.78 368.032 215.628 368.032C217.068 368.032 218.256 367.648 219.192 366.88C220.152 366.088 220.764 364.984 221.028 363.568H228.228C227.82 366.928 226.476 369.532 224.196 371.38C221.892 373.252 219.036 374.188 215.628 374.188ZM246.763 357.34V347.98H253.963V373.612H246.763V363.748H237.943V373.612H230.743V347.98H237.943V357.34H246.763ZM273.948 352.156V347.98H280.788V373.612H273.192L267.756 364.504C266.292 362.032 265.116 359.92 264.228 358.168C264.348 361.696 264.408 365.452 264.408 369.436V373.612H257.568V347.98H265.164L270.6 357.088C271.896 359.296 273.072 361.42 274.128 363.46C274.008 359.932 273.948 356.164 273.948 352.156Z" fill="white"/>
<path fill-rule="evenodd" clip-rule="evenodd" d="M185.076 267.521C185.405 266.94 186.021 266.581 186.689 266.581H229.559C230.225 266.581 230.84 266.938 231.17 267.517C231.5 268.096 231.494 268.807 231.155 269.38L209.832 305.405C209.499 305.967 208.894 306.313 208.24 306.314C207.586 306.316 206.98 305.973 206.644 305.412L185.097 269.388C184.754 268.815 184.746 268.101 185.076 267.521ZM189.959 270.29L208.228 300.833L226.306 270.29H189.959Z" fill="white"/>
<path fill-rule="evenodd" clip-rule="evenodd" d="M220.231 267.545C221.094 268.095 221.348 269.242 220.798 270.106L198.129 305.681C197.781 306.226 197.175 306.551 196.528 306.539C195.882 306.526 195.289 306.178 194.963 305.619L178.915 278.124C178.58 277.551 178.577 276.842 178.908 276.266C179.239 275.69 179.852 275.335 180.516 275.335H191.739C192.763 275.335 193.593 276.165 193.593 277.189C193.593 278.214 192.763 279.044 191.739 279.044H183.746L196.634 301.124L217.67 268.112C218.221 267.249 219.367 266.995 220.231 267.545Z" fill="white"/>
<path fill-rule="evenodd" clip-rule="evenodd" d="M195.598 267.302C196.471 266.768 197.613 267.043 198.147 267.917L218.46 301.147L231.613 279.941H224.284C223.26 279.941 222.43 279.111 222.43 278.087C222.43 277.063 223.26 276.232 224.284 276.232H234.946C235.619 276.232 236.239 276.597 236.566 277.185C236.894 277.773 236.877 278.493 236.522 279.064L220.025 305.662C219.685 306.209 219.086 306.541 218.443 306.539C217.799 306.537 217.202 306.201 216.866 305.652L194.982 269.852C194.448 268.978 194.724 267.836 195.598 267.302Z" fill="white"/>
<path d="M189.06 249.691C152.352 255.101 124.392 279.53 115 291.068C141.147 316.699 177.2 324.717 191.958 325.523C178.112 321.498 164.749 305.719 164.749 291.068C164.749 264.922 180.957 252.589 189.06 249.691Z" fill="white"/>
<path d="M227.057 249.69C263.765 255.099 291.725 279.529 301.117 291.067C274.971 316.698 238.917 324.716 224.159 325.521C238.005 321.496 251.368 305.718 251.368 291.067C251.368 264.92 235.16 252.588 227.057 249.69Z" fill="white"/>
</g>
<defs>
<linearGradient id="paint0_linear_1_1885" x1="207" y1="0" x2="207" y2="773.285" gradientUnits="userSpaceOnUse">
<stop stop-color="#383A7D"/>
<stop offset="1" stop-color="#141659"/>
</linearGradient>
<clipPath id="clip0_1_1885">
<rect width="414" height="896" rx="40" fill="white"/>
</clipPath>
</defs>
</svg>
