<svg width="270" height="280" viewBox="0 0 270 280" fill="none" xmlns="http://www.w3.org/2000/svg">
<path d="M249.181 56.3473C250.677 55.6869 251.946 54.6025 252.831 53.2284C253.717 51.8543 254.18 50.2507 254.164 48.616C254.164 43.9986 250.685 40.2431 246.357 40.2242C242.029 40.2053 238.506 43.9294 238.487 48.5468C238.456 50.1949 238.914 51.8152 239.803 53.2034C240.692 54.5916 241.972 55.6855 243.482 56.3473C231.423 58.1654 231.97 71.2752 231.97 71.2752L260.486 71.4073C260.486 71.4073 261.14 58.1528 249.181 56.3473Z" fill="#F5F5F5"/>
<path d="M80.684 7.36161L62.0445 0.768921L43.5875 7.27354C41.2348 8.36812 39.184 9.02236 39.184 11.1864V21.9498C39.1609 29.5094 41.2692 36.9224 45.2672 43.3383C49.2911 49.8779 55.2174 55.0316 62.2521 58.1089C69.801 55.6933 75.4249 49.2642 78.8723 43.7598C82.8655 37.3421 84.9714 29.9299 84.9491 22.3713V12.6899C84.9239 9.6074 83.2632 8.10391 80.684 7.36161Z" fill="#F5F5F5"/>
<path d="M68.2157 24.7366C68.2201 23.776 67.9563 22.8333 67.4539 22.0146C66.9515 21.1959 66.2305 20.5338 65.3721 20.1027C64.5137 19.6717 63.552 19.4889 62.5953 19.5749C61.6386 19.661 60.725 20.0124 59.9572 20.5897C59.1895 21.1669 58.5982 21.9471 58.2499 22.8423C57.9017 23.7375 57.8103 24.7121 57.986 25.6565C58.1618 26.6008 58.5977 27.4773 59.2447 28.1872C59.8917 28.8972 60.7241 29.4124 61.6481 29.6748V37.3935H64.4664V29.6748C65.5437 29.3721 66.4929 28.726 67.1696 27.8347C67.8463 26.9434 68.2136 25.8556 68.2157 24.7366Z" fill="#EBEBEB"/>
<path d="M239.16 107.114L242.337 108.837L240.909 111.228L237.701 109.341L237.764 112.87H235.021V109.309L231.844 111.209L230.441 108.818L233.618 107.095L230.441 105.346L231.844 102.956L235.046 104.918V101.358H237.789L237.726 104.918L240.934 102.993L242.362 105.384L239.16 107.114Z" fill="#E0E0E0"/>
<path d="M252.396 107.114L255.573 108.837L254.145 111.228L250.936 109.341L250.999 112.87H248.257L248.288 109.309L245.08 111.234L243.677 108.844L246.854 107.12L243.677 105.371L245.08 102.981L248.288 104.906L248.257 101.345H250.999L250.936 104.906L254.145 102.981L255.573 105.371L252.396 107.114Z" fill="#E0E0E0"/>
<path d="M265.632 107.114L268.815 108.837L267.387 111.228L264.178 109.341L264.235 112.87H261.492L261.524 109.309L258.315 111.234L256.913 108.844L260.096 107.12L256.938 105.365L258.341 102.974L261.549 104.899L261.517 101.339H264.26L264.204 104.899L267.412 102.974L268.84 105.365L265.632 107.114Z" fill="#E0E0E0"/>
<path d="M130.959 257.695V277.234H159.532H191.049V257.695H130.959Z" fill="#F5F5F5"/>
<path d="M128.437 252.228V257.695H193.15V252.228H159.532H128.437Z" fill="#EBEBEB"/>
<path d="M160.79 277.234H191.049V257.695H193.15V252.228H159.532V257.185L160.79 277.234Z" fill="#EBEBEB"/>
<path d="M151.549 260.84H139.364V263.784H151.549V260.84Z" fill="#E0E0E0"/>
<path d="M153.443 267.464H137.791V273.673H153.443V267.464Z" fill="white"/>
<path d="M140.201 232.714V252.253H168.779H200.296V232.714H140.201Z" fill="#F5F5F5"/>
<path d="M137.678 227.248V232.714H202.397V227.248H168.78H137.678Z" fill="#EBEBEB"/>
<path d="M170.038 252.253H200.296V232.714H202.397V227.248H168.78V232.211L170.038 252.253Z" fill="#EBEBEB"/>
<path d="M160.79 235.866H148.605V238.81H160.79V235.866Z" fill="#E0E0E0"/>
<path d="M162.69 242.484H147.039V248.693H162.69V242.484Z" fill="white"/>
<path d="M269.563 277.385C269.563 277.473 209.267 277.549 134.904 277.549C60.5412 277.549 0.231934 277.473 0.231934 277.385C0.231934 277.297 60.516 277.221 134.904 277.221C209.292 277.221 269.563 277.284 269.563 277.385Z" fill="#263238"/>
<path d="M228.497 136.825H134.753C132.536 136.825 130.74 138.622 130.74 140.838V189.365C130.74 191.582 132.536 193.379 134.753 193.379H228.497C230.714 193.379 232.511 191.582 232.511 189.365V140.838C232.511 138.622 230.714 136.825 228.497 136.825Z" fill="white"/>
<path d="M228.504 193.379C228.504 193.379 228.774 193.379 229.29 193.284C230.055 193.119 230.756 192.737 231.309 192.183C231.713 191.776 232.024 191.287 232.221 190.749C232.334 190.438 232.41 190.115 232.448 189.787C232.448 189.447 232.448 189.082 232.448 188.705C232.448 187.195 232.448 185.452 232.448 183.496C232.448 175.651 232.416 164.315 232.398 150.306C232.398 148.551 232.398 146.758 232.398 144.927V142.147C232.398 141.21 232.492 140.26 232.108 139.392C231.844 138.734 231.404 138.162 230.838 137.736C230.271 137.31 229.599 137.047 228.894 136.976C228.428 136.944 227.912 136.976 227.422 136.976H221.351H195.043H134.765C134.123 136.975 133.491 137.134 132.927 137.439C132.362 137.745 131.882 138.187 131.532 138.725C131.175 139.258 130.959 139.872 130.903 140.511C130.872 141.14 130.903 141.832 130.903 142.487V165.75C130.903 170.782 130.903 175.731 130.903 180.596V187.792C130.903 188.384 130.903 188.981 130.903 189.56C130.932 190.126 131.082 190.68 131.343 191.183C131.611 191.677 131.983 192.108 132.432 192.445C132.882 192.783 133.399 193.02 133.948 193.14C134.507 193.229 135.074 193.259 135.64 193.228H160.218H183.141L216.331 193.278L225.352 193.309H227.698H228.504H227.698H225.352L216.331 193.341L183.141 193.391H160.218H135.64C135.053 193.422 134.465 193.39 133.885 193.297C133.292 193.169 132.734 192.914 132.249 192.549C131.765 192.184 131.366 191.718 131.079 191.183C130.79 190.643 130.625 190.046 130.595 189.434C130.595 188.805 130.595 188.252 130.595 187.654C130.595 185.282 130.595 182.879 130.595 180.457V165.75C130.595 160.717 130.595 155.59 130.595 150.369V142.505C130.595 141.839 130.595 141.197 130.595 140.505C130.642 139.817 130.858 139.152 131.224 138.567C131.606 137.986 132.124 137.507 132.734 137.171C133.35 136.843 134.036 136.668 134.734 136.661H195.012H221.32H227.39C227.893 136.661 228.372 136.661 228.887 136.661C229.392 136.714 229.882 136.859 230.334 137.089C231.232 137.544 231.936 138.308 232.316 139.241C232.5 139.697 232.598 140.183 232.605 140.675C232.605 141.147 232.605 141.618 232.605 142.09V144.871C232.605 146.699 232.605 148.492 232.605 150.249C232.605 164.259 232.561 175.595 232.549 183.439C232.549 185.396 232.549 187.138 232.549 188.648C232.549 189.025 232.549 189.384 232.549 189.736C232.508 190.072 232.428 190.401 232.31 190.718C232.107 191.264 231.787 191.76 231.372 192.171C230.806 192.728 230.088 193.106 229.309 193.259C229.114 193.296 228.916 193.317 228.718 193.322L228.504 193.379Z" fill="#263238"/>
<path d="M166.2 156.811V157.515H163.256V153.741H166.125V154.445H164.131V155.244H165.892V155.93H164.131V156.811H166.2Z" fill="#263238"/>
<path d="M170.39 153.716V157.49H169.666L167.779 155.181V157.49H166.911V153.716H167.609L169.497 156.024V153.716H170.39Z" fill="#263238"/>
<path d="M172.082 154.433H170.862V153.716H174.177V154.433H172.957V157.515H172.082V154.433Z" fill="#263238"/>
<path d="M177.593 156.811V157.515H174.649V153.741H177.524V154.445H175.523V155.244H177.291V155.93H175.523V156.811H177.593Z" fill="#263238"/>
<path d="M180.719 157.515L179.983 156.458H179.178V157.515H178.304V153.741H179.952C180.965 153.741 181.6 154.263 181.6 155.118C181.608 155.374 181.537 155.626 181.398 155.841C181.258 156.056 181.057 156.223 180.82 156.32L181.669 157.54L180.719 157.515ZM179.895 154.433H179.178V155.754H179.895C180.43 155.754 180.7 155.508 180.7 155.093C180.7 154.678 180.43 154.433 179.895 154.433Z" fill="#263238"/>
<path d="M183.588 155.615C183.613 155.206 183.757 154.812 184.004 154.483C184.25 154.155 184.588 153.906 184.975 153.768C185.361 153.63 185.78 153.609 186.179 153.707C186.578 153.805 186.939 154.018 187.218 154.32L186.651 154.842C186.534 154.702 186.388 154.59 186.222 154.513C186.057 154.436 185.878 154.396 185.695 154.395C185.388 154.417 185.1 154.555 184.889 154.781C184.679 155.007 184.562 155.304 184.562 155.612C184.562 155.921 184.679 156.218 184.889 156.444C185.1 156.67 185.388 156.807 185.695 156.83C185.878 156.832 186.059 156.794 186.225 156.716C186.39 156.639 186.536 156.525 186.651 156.383L187.218 156.905C186.941 157.209 186.58 157.425 186.181 157.525C185.782 157.625 185.362 157.605 184.974 157.467C184.586 157.329 184.248 157.08 184.001 156.751C183.755 156.421 183.611 156.026 183.588 155.615Z" fill="#263238"/>
<path d="M187.495 155.616C187.472 155.199 187.575 154.786 187.79 154.429C188.004 154.072 188.321 153.787 188.7 153.612C189.078 153.437 189.5 153.38 189.911 153.448C190.323 153.515 190.704 153.705 191.007 153.992C191.309 154.278 191.518 154.649 191.608 155.056C191.697 155.464 191.662 155.888 191.507 156.275C191.353 156.662 191.085 156.994 190.74 157.227C190.395 157.461 189.987 157.585 189.57 157.585C189.303 157.6 189.035 157.56 188.783 157.468C188.531 157.376 188.301 157.234 188.107 157.049C187.912 156.865 187.757 156.642 187.652 156.396C187.547 156.149 187.493 155.884 187.495 155.616ZM190.759 155.616C190.754 155.381 190.681 155.154 190.547 154.962C190.413 154.77 190.226 154.621 190.008 154.535C189.791 154.449 189.552 154.429 189.323 154.478C189.095 154.526 188.885 154.642 188.721 154.809C188.558 154.976 188.447 155.188 188.403 155.418C188.359 155.648 188.384 155.886 188.475 156.101C188.565 156.317 188.718 156.501 188.913 156.631C189.108 156.76 189.336 156.83 189.57 156.83C189.73 156.833 189.888 156.804 190.036 156.744C190.183 156.684 190.317 156.594 190.428 156.48C190.54 156.367 190.627 156.231 190.684 156.082C190.741 155.934 190.766 155.775 190.759 155.616Z" fill="#263238"/>
<path d="M192.319 153.716H194.031C194.531 153.716 195.011 153.915 195.365 154.268C195.719 154.622 195.918 155.102 195.918 155.603C195.918 156.103 195.719 156.583 195.365 156.937C195.011 157.291 194.531 157.49 194.031 157.49H192.307L192.319 153.716ZM193.999 156.792C194.311 156.792 194.61 156.668 194.831 156.447C195.052 156.227 195.175 155.927 195.175 155.615C195.175 155.304 195.052 155.004 194.831 154.784C194.61 154.563 194.311 154.439 193.999 154.439H193.2V156.792H193.999Z" fill="#263238"/>
<path d="M199.749 156.811V157.515H196.805V153.741H199.692V154.445H197.679V155.244H199.447V155.93H197.679V156.811H199.749Z" fill="#263238"/>
<path d="M151.769 163.586H142.528C141.156 163.586 140.043 164.698 140.043 166.071V180.457C140.043 181.83 141.156 182.942 142.528 182.942H151.769C153.142 182.942 154.254 181.83 154.254 180.457V166.071C154.254 164.698 153.142 163.586 151.769 163.586Z" fill="#EBEBEB"/>
<path d="M169.515 163.586H160.274C158.902 163.586 157.79 164.698 157.79 166.071V180.457C157.79 181.83 158.902 182.942 160.274 182.942H169.515C170.888 182.942 172 181.83 172 180.457V166.071C172 164.698 170.888 163.586 169.515 163.586Z" fill="#EBEBEB"/>
<path d="M187.262 163.586H178.02C176.648 163.586 175.536 164.698 175.536 166.071V180.457C175.536 181.83 176.648 182.942 178.02 182.942H187.262C188.634 182.942 189.746 181.83 189.746 180.457V166.071C189.746 164.698 188.634 163.586 187.262 163.586Z" fill="#EBEBEB"/>
<path d="M205.002 163.586H195.76C194.388 163.586 193.276 164.698 193.276 166.071V180.457C193.276 181.83 194.388 182.942 195.76 182.942H205.002C206.374 182.942 207.486 181.83 207.486 180.457V166.071C207.486 164.698 206.374 163.586 205.002 163.586Z" fill="#EBEBEB"/>
<path d="M222.748 163.586H213.507C212.134 163.586 211.022 164.698 211.022 166.071V180.457C211.022 181.83 212.134 182.942 213.507 182.942H222.748C224.12 182.942 225.232 181.83 225.232 180.457V166.071C225.232 164.698 224.12 163.586 222.748 163.586Z" fill="#EBEBEB"/>
<path d="M150.247 174.746C150.247 176.123 149.178 177.023 147.731 177.023C145.743 177.023 144.692 175.595 144.692 173.248C144.692 170.694 146.057 169.373 148.052 169.373C148.649 169.346 149.242 169.481 149.769 169.763L149.543 170.204C149.087 169.954 148.571 169.834 148.052 169.858C146.359 169.858 145.246 170.971 145.246 173.167C145.246 173.47 145.267 173.772 145.309 174.072C145.486 173.586 145.817 173.171 146.252 172.89C146.687 172.61 147.202 172.479 147.718 172.519C149.228 172.519 150.247 173.399 150.247 174.746ZM149.694 174.746C149.694 173.67 148.92 172.965 147.643 172.965C147.385 172.937 147.124 172.961 146.876 173.038C146.628 173.115 146.398 173.242 146.202 173.411C146.005 173.581 145.846 173.789 145.733 174.023C145.621 174.257 145.558 174.511 145.548 174.771C145.548 175.658 146.29 176.538 147.706 176.538C147.957 176.566 148.211 176.54 148.452 176.462C148.692 176.385 148.914 176.257 149.101 176.088C149.289 175.918 149.439 175.711 149.541 175.48C149.643 175.249 149.695 174.998 149.694 174.746Z" fill="#407BFF"/>
<path d="M167.798 174.89H166.213V176.985H165.672V174.89H161.363V174.494L165.464 169.43H166.093L162.067 174.406H165.697V172.563H166.226V174.406H167.811L167.798 174.89Z" fill="#407BFF"/>
<path d="M186.098 178.061C183.908 178.279 181.702 178.279 179.511 178.061C181.702 177.843 183.908 177.843 186.098 178.061Z" fill="#407BFF"/>
<path d="M137.2 144.015C138.051 144.015 138.741 143.325 138.741 142.474C138.741 141.623 138.051 140.933 137.2 140.933C136.349 140.933 135.659 141.623 135.659 142.474C135.659 143.325 136.349 144.015 137.2 144.015Z" fill="#263238"/>
<path d="M143.183 142.474C143.183 142.779 143.092 143.077 142.923 143.33C142.753 143.584 142.513 143.781 142.231 143.898C141.95 144.015 141.64 144.045 141.341 143.986C141.042 143.926 140.767 143.779 140.552 143.564C140.336 143.348 140.189 143.074 140.13 142.775C140.07 142.476 140.101 142.166 140.217 141.884C140.334 141.603 140.532 141.362 140.785 141.193C141.039 141.023 141.337 140.933 141.641 140.933C142.05 140.933 142.442 141.095 142.731 141.384C143.02 141.673 143.183 142.065 143.183 142.474Z" fill="#263238"/>
<path d="M146.001 144.015C146.852 144.015 147.542 143.325 147.542 142.474C147.542 141.623 146.852 140.933 146.001 140.933C145.149 140.933 144.459 141.623 144.459 142.474C144.459 143.325 145.149 144.015 146.001 144.015Z" fill="#263238"/>
<path d="M232.668 146.815C232.668 146.903 209.877 146.978 181.776 146.978C153.676 146.978 130.884 146.903 130.884 146.815C130.884 146.726 153.663 146.651 181.776 146.651C209.89 146.651 232.668 146.72 232.668 146.815Z" fill="#263238"/>
<path d="M213.978 12.627H101.601C99.3217 12.627 97.4741 14.4745 97.4741 16.7537V120.142C97.4741 122.421 99.3217 124.269 101.601 124.269H213.978C216.258 124.269 218.105 122.421 218.105 120.142V16.7537C218.105 14.4745 216.258 12.627 213.978 12.627Z" fill="white"/>
<path d="M213.978 124.269H214.274C214.566 124.244 214.855 124.19 215.136 124.105C215.684 123.937 216.192 123.656 216.625 123.28C217.059 122.904 217.408 122.441 217.652 121.922C217.991 121.143 218.125 120.289 218.042 119.444C218.042 118.506 218.042 117.475 218.042 116.361C218.042 114.134 218.042 111.561 218.042 108.668C218.042 97.0926 218.011 80.3592 217.986 59.6501C217.986 49.3019 217.986 37.9723 217.986 25.7997C217.986 22.7634 217.986 19.6746 217.986 16.5334C217.938 15.7655 217.67 15.0276 217.212 14.4091C216.754 13.7906 216.127 13.318 215.406 13.0484C214.657 12.8114 213.868 12.7259 213.085 12.7968H190.633H101.613C100.669 12.8022 99.7567 13.1434 99.0404 13.7592C98.3004 14.3841 97.8167 15.2598 97.6816 16.2189C97.6383 16.6999 97.6236 17.183 97.6376 17.6658V56.3978C97.6376 71.288 97.6376 85.6497 97.6376 99.3321C97.6376 106.176 97.6376 112.842 97.6376 119.33C97.6376 119.733 97.6376 120.148 97.6376 120.532C97.6739 120.918 97.765 121.297 97.9081 121.658C98.1991 122.38 98.6956 123.001 99.3361 123.444C99.9701 123.887 100.721 124.132 101.494 124.149H113.138H146.988L196.006 124.206H209.33H212.796H213.978H212.796H209.33L196.006 124.237L146.988 124.287H113.138H101.488C100.656 124.266 99.8496 124.003 99.1666 123.529C98.4836 123.055 97.9543 122.391 97.6439 121.62C97.4895 121.233 97.39 120.827 97.3482 120.412C97.3168 119.985 97.3482 119.595 97.3482 119.186C97.3482 112.698 97.3482 106.032 97.3482 99.1874C97.3482 85.505 97.3482 71.1433 97.3482 56.2531C97.3482 48.8049 97.3482 41.233 97.3482 33.5373V17.6343C97.3309 17.1368 97.3477 16.6387 97.3985 16.1434C97.5368 15.1203 98.0475 14.1841 98.8328 13.5139C99.6039 12.8396 100.589 12.4607 101.613 12.4445H190.633H213.047C213.865 12.3739 214.689 12.4681 215.469 12.7213C216.241 13.01 216.912 13.5159 217.402 14.1779C217.892 14.8399 218.18 15.6296 218.231 16.4517C218.231 19.597 218.231 22.6921 218.231 25.7368C218.231 37.9094 218.231 49.239 218.231 59.5872C218.231 80.2837 218.193 97.0297 218.181 108.605C218.181 111.498 218.181 114.071 218.181 116.298C218.181 117.412 218.181 118.443 218.181 119.381C218.261 120.241 218.118 121.108 217.765 121.897C217.45 122.558 216.963 123.123 216.356 123.534C215.749 123.944 215.043 124.185 214.312 124.231L213.978 124.269Z" fill="#263238"/>
<path d="M106.589 20.3645C106.589 20.7779 106.467 21.1819 106.237 21.5255C106.007 21.8691 105.681 22.1368 105.299 22.2947C104.917 22.4526 104.496 22.4936 104.091 22.4125C103.686 22.3314 103.314 22.1318 103.022 21.8391C102.73 21.5464 102.532 21.1737 102.452 20.7681C102.372 20.3626 102.414 19.9424 102.573 19.5609C102.732 19.1794 103.001 18.8537 103.345 18.6249C103.689 18.3962 104.094 18.2748 104.507 18.276C104.781 18.276 105.052 18.3301 105.305 18.4351C105.559 18.5401 105.788 18.6941 105.982 18.8881C106.175 19.0821 106.328 19.3124 106.433 19.5658C106.537 19.8191 106.59 20.0906 106.589 20.3645Z" fill="#263238"/>
<path d="M110.584 22.4468C111.734 22.4468 112.666 21.5146 112.666 20.3646C112.666 19.2146 111.734 18.2823 110.584 18.2823C109.434 18.2823 108.502 19.2146 108.502 20.3646C108.502 21.5146 109.434 22.4468 110.584 22.4468Z" fill="#263238"/>
<path d="M116.674 22.4468C117.824 22.4468 118.756 21.5146 118.756 20.3646C118.756 19.2146 117.824 18.2823 116.674 18.2823C115.524 18.2823 114.591 19.2146 114.591 20.3646C114.591 21.5146 115.524 22.4468 116.674 22.4468Z" fill="#263238"/>
<path d="M218.105 26.2842C218.105 26.3785 191.099 26.4477 157.79 26.4477C124.48 26.4477 97.4741 26.3785 97.4741 26.2842C97.4741 26.1898 124.474 26.1206 157.79 26.1206C191.105 26.1206 218.105 26.1898 218.105 26.2842Z" fill="#263238"/>
<path d="M174.831 68.3377C174.831 68.3377 174.875 68.2685 174.976 68.1427L175.058 68.0358L175.139 67.8911C175.209 67.774 175.27 67.6521 175.322 67.5262C175.322 67.457 175.385 67.3815 175.41 67.2997L175.485 67.0355C175.513 66.9385 175.534 66.8397 175.548 66.7399C175.548 66.6329 175.586 66.526 175.592 66.4128C175.633 65.8895 175.608 65.3632 175.517 64.8464C175.252 63.4317 174.768 62.067 174.083 60.8014C173.199 59.1123 172.165 57.5059 170.994 56.0016C169.585 54.172 168.048 52.444 166.395 50.8306C164.504 48.9736 162.483 47.2519 160.35 45.6785C159.224 44.8481 158.035 44.0429 156.783 43.288C155.507 42.5083 154.181 41.8127 152.814 41.2058C151.409 40.5644 149.93 40.0995 148.41 39.8218C147.633 39.6835 146.84 39.6644 146.057 39.7652C145.665 39.821 145.281 39.9311 144.919 40.0923C144.563 40.2669 144.242 40.5034 143.969 40.7906C143.709 41.0919 143.508 41.4399 143.378 41.816C143.259 42.1953 143.194 42.589 143.183 42.9861C143.172 43.7757 143.28 44.5624 143.503 45.3199C143.955 46.8019 144.588 48.222 145.391 49.5473C146.147 50.8366 146.987 52.0743 147.907 53.2525C148.8 54.41 149.737 55.5046 150.687 56.53C152.494 58.4708 154.437 60.2808 156.5 61.9463C158.291 63.4061 160.183 64.7368 162.162 65.9284C163.79 66.9185 165.504 67.7606 167.282 68.4447C168.62 68.9782 170.03 69.3048 171.466 69.4134C171.988 69.4392 172.512 69.4033 173.026 69.3065C173.139 69.3065 173.24 69.2499 173.34 69.2247C173.439 69.1989 173.535 69.1674 173.63 69.1304L173.881 69.0234L174.102 68.9102C174.221 68.845 174.335 68.7692 174.441 68.6837L174.573 68.5893L174.674 68.495C174.787 68.3818 174.85 68.3314 174.85 68.3314L174.68 68.5013L174.58 68.5956L174.454 68.6963C174.346 68.7832 174.23 68.859 174.108 68.9228L173.9 69.0612L173.642 69.1681C173.551 69.207 173.456 69.2385 173.359 69.2625C173.254 69.2985 173.147 69.3279 173.038 69.3505C172.521 69.4564 171.993 69.4945 171.466 69.4638C170.026 69.3659 168.611 69.0455 167.27 68.5139C165.485 67.8305 163.765 66.9884 162.13 65.9976C160.151 64.8058 158.259 63.4751 156.469 62.0155C154.399 60.3521 152.453 58.542 150.643 56.5992C149.693 55.5738 148.756 54.4792 147.857 53.3217C146.939 52.1375 146.099 50.8957 145.34 49.6039C144.537 48.2725 143.903 46.8461 143.453 45.3577C143.224 44.5905 143.114 43.7929 143.126 42.9924C143.139 42.5888 143.207 42.1889 143.327 41.8034C143.47 41.4135 143.683 41.0531 143.956 40.7403C144.235 40.4413 144.568 40.198 144.938 40.0231C145.308 39.8578 145.7 39.7435 146.101 39.6834C146.895 39.5825 147.698 39.6016 148.486 39.7401C150.016 40.0201 151.506 40.4892 152.921 41.1366C154.29 41.7443 155.619 42.442 156.896 43.2251C158.154 43.98 159.343 44.7852 160.469 45.6219C162.606 47.1981 164.627 48.9263 166.515 50.7929C168.171 52.409 169.71 54.1413 171.12 55.9764C172.287 57.485 173.317 59.0956 174.196 60.7888C174.88 62.0612 175.362 63.4322 175.624 64.8527C175.712 65.3742 175.733 65.9048 175.687 66.4316C175.677 66.5396 175.66 66.6467 175.636 66.7525C175.626 66.853 175.605 66.9522 175.574 67.0481L175.498 67.3186C175.472 67.3961 175.44 67.4717 175.404 67.5451C175.356 67.6742 175.293 67.7967 175.215 67.9099C175.193 67.9609 175.165 68.0094 175.133 68.0546L175.051 68.1616L174.831 68.3377Z" fill="#407BFF"/>
<path d="M180.537 54.5484V54.3093V54.1772C180.537 54.1269 180.537 54.0765 180.506 54.0136C180.484 53.8782 180.448 53.7454 180.399 53.6173C180.399 53.5481 180.348 53.4663 180.317 53.3909L180.191 53.1392C180.15 53.048 180.1 52.9615 180.04 52.8813C179.986 52.7869 179.925 52.6965 179.858 52.6108C179.544 52.1903 179.176 51.8137 178.763 51.4911C177.619 50.6126 176.346 49.9165 174.989 49.4277C173.206 48.7536 171.365 48.242 169.49 47.899C167.208 47.4705 164.897 47.2057 162.577 47.1064C159.928 46.9773 157.273 47.0341 154.632 47.2763C153.242 47.4084 151.82 47.6034 150.379 47.8739C148.908 48.1393 147.455 48.5029 146.032 48.9622C144.553 49.4102 143.137 50.0443 141.818 50.8494C141.145 51.2618 140.541 51.7753 140.025 52.3718C139.769 52.6743 139.558 53.0109 139.396 53.372C139.24 53.7387 139.155 54.1313 139.144 54.5295C139.156 54.9268 139.239 55.3188 139.389 55.687C139.554 56.0468 139.765 56.3831 140.018 56.6872C140.538 57.2841 141.145 57.7994 141.818 58.2158C143.139 59.0173 144.555 59.6512 146.032 60.1031C147.457 60.5565 148.909 60.92 150.379 61.1914C151.82 61.4619 153.242 61.6506 154.632 61.7827C157.273 62.0299 159.928 62.0887 162.577 61.9588C164.898 61.866 167.21 61.6138 169.497 61.2039C171.372 60.861 173.212 60.3494 174.995 59.6753C176.35 59.1814 177.622 58.4858 178.769 57.6119C179.181 57.2877 179.549 56.9113 179.864 56.4922C179.931 56.4044 179.992 56.3119 180.046 56.2154C180.106 56.1352 180.157 56.0487 180.197 55.9575L180.323 55.7121C180.355 55.6304 180.38 55.5549 180.405 55.4794C180.455 55.3516 180.491 55.2187 180.512 55.0831C180.512 55.0264 180.512 54.9761 180.543 54.9258V54.7937V54.5484C180.543 54.5484 180.543 54.6301 180.543 54.7937V54.9258C180.543 54.9761 180.543 55.0264 180.543 55.0894C180.524 55.2247 180.49 55.3575 180.443 55.4857C180.443 55.5612 180.392 55.6366 180.361 55.7184L180.241 55.9701C180.197 56.0613 180.146 56.1496 180.09 56.2343C180.035 56.3278 179.974 56.4181 179.908 56.5048C179.595 56.9294 179.227 57.3103 178.813 57.6371C177.671 58.5229 176.398 59.2254 175.039 59.7193C173.255 60.401 171.412 60.9189 169.535 61.2669C167.25 61.6968 164.937 61.9659 162.615 62.0721C159.964 62.2064 157.306 62.1517 154.663 61.9085C153.267 61.7764 151.839 61.5877 150.398 61.3172C148.924 61.0451 147.468 60.6816 146.039 60.2289C144.554 59.7797 143.132 59.1456 141.805 58.3417C141.124 57.9234 140.511 57.4036 139.987 56.8004C139.732 56.4887 139.52 56.1437 139.358 55.775C139.188 55.3995 139.1 54.992 139.1 54.5798C139.1 54.1676 139.188 53.7601 139.358 53.3846C139.523 53.0171 139.734 52.6725 139.987 52.3592C140.517 51.7567 141.134 51.2372 141.818 50.8179C143.147 50.0151 144.571 49.3811 146.057 48.9307C147.483 48.4721 148.937 48.1086 150.411 47.8424C151.858 47.5719 153.279 47.3832 154.676 47.2511C157.301 46.9957 159.942 46.9263 162.577 47.0435C164.9 47.1486 167.212 47.4197 169.497 47.855C171.375 48.1997 173.217 48.7156 175.001 49.3962C176.36 49.8901 177.633 50.5926 178.776 51.4785C179.188 51.8069 179.556 52.1875 179.87 52.6108C179.937 52.6986 179.998 52.7911 180.053 52.8876C180.11 52.9715 180.16 53.0598 180.204 53.1518L180.323 53.3971C180.355 53.4789 180.38 53.5607 180.405 53.6299C180.452 53.7602 180.486 53.8951 180.506 54.0325C180.506 54.0891 180.506 54.1457 180.506 54.1898V54.3282C180.537 54.4666 180.537 54.5484 180.537 54.5484Z" fill="#407BFF"/>
<path d="M172.975 37.3937L172.768 37.2616L172.655 37.1861C172.608 37.1594 172.56 37.1362 172.51 37.1169C172.39 37.0514 172.263 36.9987 172.132 36.9596C172.057 36.9596 171.981 36.903 171.9 36.8841L171.629 36.8275C171.532 36.8062 171.433 36.7915 171.334 36.7835C171.225 36.7771 171.115 36.7771 171.006 36.7835C170.481 36.7768 169.957 36.836 169.446 36.9596C168.054 37.3292 166.726 37.9083 165.508 38.677C163.883 39.6715 162.352 40.8128 160.935 42.0866C159.206 43.6187 157.587 45.2709 156.091 47.0311C154.367 49.0446 152.788 51.1784 151.367 53.4162C150.624 54.5925 149.895 55.8507 149.228 57.1088C148.536 58.4348 147.933 59.805 147.422 61.2104C146.881 62.6601 146.52 64.1706 146.347 65.7083C146.263 66.4934 146.299 67.2867 146.454 68.061C146.54 68.4487 146.677 68.8231 146.863 69.1745C147.057 69.5214 147.316 69.8287 147.624 70.0803C147.944 70.3134 148.304 70.4861 148.687 70.5899C149.072 70.6831 149.468 70.7233 149.863 70.7094C150.653 70.6654 151.431 70.5021 152.172 70.225C153.619 69.676 154.993 68.9491 156.261 68.061C157.494 67.216 158.671 66.2914 159.784 65.2931C160.878 64.318 161.904 63.3115 162.86 62.2924C164.67 60.3552 166.341 58.293 167.861 56.1212C169.194 54.2349 170.392 52.2567 171.447 50.2016C172.326 48.5112 173.05 46.7447 173.611 44.9237C174.051 43.551 174.278 42.1189 174.284 40.6774C174.282 40.1544 174.21 39.6339 174.07 39.1299C174.07 39.0167 174.001 38.916 173.969 38.8154C173.938 38.7147 173.9 38.6267 173.856 38.5386L173.737 38.2933C173.693 38.2178 173.642 38.1486 173.604 38.0857C173.533 37.9676 173.449 37.8579 173.353 37.7585L173.252 37.6327L173.152 37.5447L172.975 37.3811L173.158 37.5384L173.258 37.6264C173.297 37.6634 173.333 37.7034 173.365 37.746C173.46 37.8462 173.545 37.9558 173.617 38.0731C173.661 38.1423 173.711 38.2052 173.755 38.2807L173.875 38.5323C173.923 38.6206 173.964 38.7133 173.994 38.8091C174.026 38.9098 174.07 39.0104 174.095 39.1236C174.24 39.629 174.317 40.1517 174.322 40.6774C174.324 42.1227 174.101 43.5596 173.661 44.9363C173.103 46.7623 172.383 48.5349 171.51 50.2331C170.455 52.2924 169.257 54.2747 167.924 56.1652C166.408 58.3439 164.736 60.4105 162.923 62.349C161.967 63.3744 160.941 64.3872 159.84 65.3623C158.725 66.3623 157.546 67.289 156.311 68.1365C155.039 69.0313 153.658 69.7625 152.203 70.3131C151.454 70.5929 150.668 70.7583 149.87 70.8038C149.463 70.8174 149.057 70.7772 148.662 70.6842C148.268 70.5732 147.897 70.392 147.567 70.1495C147.249 69.891 146.983 69.5752 146.781 69.2185C146.591 68.8593 146.449 68.4764 146.359 68.0799C146.207 67.2968 146.173 66.4952 146.259 65.702C146.429 64.155 146.792 62.6355 147.341 61.1789C147.852 59.7715 148.455 58.3992 149.146 57.0711C149.819 55.7626 150.543 54.5171 151.291 53.3344C152.721 51.0976 154.306 48.964 156.034 46.9493C157.533 45.1895 159.156 43.5392 160.891 42.0111C162.316 40.7387 163.853 39.5976 165.483 38.6015C166.707 37.8361 168.042 37.2633 169.44 36.903C169.952 36.7763 170.479 36.7171 171.006 36.7269C171.12 36.7269 171.227 36.7269 171.334 36.7269C171.435 36.7345 171.536 36.7492 171.635 36.7709L171.906 36.8275L172.139 36.9093C172.27 36.9503 172.397 37.0051 172.516 37.0729C172.566 37.0922 172.614 37.1153 172.661 37.1421L172.774 37.2238L172.975 37.3937Z" fill="#407BFF"/>
<path d="M138.892 63.0973C138.999 63.2048 139.072 63.3416 139.101 63.4904C139.13 63.6391 139.115 63.7932 139.057 63.9332C138.998 64.0732 138.9 64.1928 138.774 64.277C138.648 64.3611 138.5 64.406 138.348 64.406C138.196 64.406 138.048 64.3611 137.922 64.277C137.796 64.1928 137.698 64.0732 137.639 63.9332C137.581 63.7932 137.566 63.6391 137.595 63.4904C137.624 63.3416 137.697 63.2048 137.804 63.0973C137.875 63.0256 137.96 62.9687 138.053 62.9299C138.147 62.8911 138.247 62.8711 138.348 62.8711C138.449 62.8711 138.549 62.8911 138.643 62.9299C138.736 62.9687 138.821 63.0256 138.892 63.0973Z" fill="#407BFF"/>
<path d="M182.292 39.2619C182.293 39.4152 182.249 39.5654 182.165 39.6935C182.081 39.8215 181.96 39.9217 181.819 39.9812C181.678 40.0407 181.522 40.057 181.371 40.0278C181.221 39.9987 181.082 39.9255 180.973 39.8175C180.865 39.7096 180.79 39.5717 180.76 39.4214C180.73 39.2712 180.745 39.1153 180.803 38.9735C180.861 38.8318 180.96 38.7106 181.088 38.6253C181.215 38.54 181.365 38.4944 181.518 38.4944C181.62 38.4936 181.72 38.5128 181.814 38.551C181.908 38.5892 181.993 38.6456 182.065 38.717C182.137 38.7883 182.194 38.8732 182.233 38.9667C182.272 39.0602 182.292 39.1606 182.292 39.2619Z" fill="#407BFF"/>
<path d="M143.749 65.6264C143.749 65.665 143.737 65.7027 143.716 65.7348C143.694 65.7668 143.664 65.7918 143.628 65.8066C143.593 65.8213 143.553 65.8252 143.516 65.8177C143.478 65.8102 143.443 65.7916 143.416 65.7643C143.388 65.737 143.37 65.7023 143.362 65.6645C143.355 65.6266 143.359 65.5874 143.373 65.5518C143.388 65.5162 143.413 65.4857 143.445 65.4643C143.477 65.4428 143.515 65.4314 143.554 65.4314C143.605 65.4314 143.655 65.4519 143.692 65.4885C143.728 65.5251 143.749 65.5747 143.749 65.6264Z" fill="#407BFF"/>
<path d="M147.92 44.0744C147.92 44.113 147.908 44.1507 147.887 44.1827C147.865 44.2148 147.835 44.2398 147.799 44.2546C147.764 44.2693 147.724 44.2732 147.687 44.2657C147.649 44.2581 147.614 44.2396 147.587 44.2123C147.559 44.185 147.541 44.1503 147.533 44.1125C147.526 44.0746 147.53 44.0354 147.544 43.9998C147.559 43.9641 147.584 43.9337 147.616 43.9123C147.648 43.8908 147.686 43.8794 147.725 43.8794C147.776 43.8794 147.826 43.8999 147.862 43.9365C147.899 43.9731 147.92 44.0227 147.92 44.0744Z" fill="#407BFF"/>
<path d="M178.423 54.5484C178.423 54.6001 178.403 54.6497 178.366 54.6863C178.33 54.7229 178.28 54.7434 178.228 54.7434C178.176 54.7434 178.127 54.7229 178.09 54.6863C178.054 54.6497 178.033 54.6001 178.033 54.5484C178.033 54.4967 178.054 54.4471 178.09 54.4105C178.127 54.3739 178.176 54.3534 178.228 54.3534C178.28 54.3534 178.33 54.3739 178.366 54.4105C178.403 54.4471 178.423 54.4967 178.423 54.5484Z" fill="#407BFF"/>
<path d="M181.141 45.4394C181.141 45.4911 181.12 45.5407 181.084 45.5773C181.047 45.6139 180.998 45.6344 180.946 45.6344C180.894 45.6344 180.845 45.6139 180.808 45.5773C180.772 45.5407 180.751 45.4911 180.751 45.4394C180.751 45.3877 180.772 45.3381 180.808 45.3015C180.845 45.2649 180.894 45.2444 180.946 45.2444C180.998 45.2444 181.047 45.2649 181.084 45.3015C181.12 45.3381 181.141 45.3877 181.141 45.4394Z" fill="#407BFF"/>
<path d="M167.968 58.8449H165.552V45.691C165.552 44.2011 164.96 42.7722 163.907 41.7187C162.853 40.6652 161.425 40.0734 159.935 40.0734C158.445 40.0734 157.016 40.6652 155.962 41.7187C154.909 42.7722 154.317 44.2011 154.317 45.691V58.8449H151.883V45.691C151.883 43.5604 152.729 41.5171 154.235 40.0106C155.742 38.5041 157.785 37.6577 159.916 37.6577C162.046 37.6577 164.09 38.5041 165.596 40.0106C167.103 41.5171 167.949 43.5604 167.949 45.691L167.968 58.8449Z" fill="#407BFF"/>
<g opacity="0.3">
<path opacity="0.3" d="M167.968 58.8449H165.552V45.691C165.552 44.2011 164.96 42.7722 163.907 41.7187C162.853 40.6652 161.425 40.0734 159.935 40.0734C158.445 40.0734 157.016 40.6652 155.962 41.7187C154.909 42.7722 154.317 44.2011 154.317 45.691V58.8449H151.883V45.691C151.883 43.5604 152.729 41.5171 154.235 40.0106C155.742 38.5041 157.785 37.6577 159.916 37.6577C162.046 37.6577 164.09 38.5041 165.596 40.0106C167.103 41.5171 167.949 43.5604 167.949 45.691L167.968 58.8449Z" fill="black"/>
</g>
<path d="M169.346 52.9945H150.524C149.742 52.9945 149.108 53.6282 149.108 54.4099V65.469C149.108 66.2507 149.742 66.8844 150.524 66.8844H169.346C170.127 66.8844 170.761 66.2507 170.761 65.469V54.4099C170.761 53.6282 170.127 52.9945 169.346 52.9945Z" fill="#407BFF"/>
<g opacity="0.3">
<path opacity="0.3" d="M161.746 58.1341C161.749 57.7964 161.657 57.4646 161.481 57.1762C161.305 56.8879 161.052 56.6545 160.751 56.5024C160.449 56.3503 160.111 56.2856 159.774 56.3155C159.438 56.3454 159.117 56.4687 158.846 56.6716C158.576 56.8746 158.368 57.1489 158.246 57.4638C158.124 57.7786 158.092 58.1214 158.154 58.4534C158.216 58.7854 158.37 59.0935 158.598 59.3427C158.826 59.592 159.119 59.7726 159.444 59.8641V62.5691H160.425V59.8641C160.804 59.7596 161.139 59.534 161.377 59.2215C161.616 58.9091 161.745 58.5272 161.746 58.1341Z" fill="black"/>
</g>
<path d="M150.266 65.5697C150.215 65.5697 150.171 63.2547 150.171 60.3987C150.171 57.5427 150.215 55.2214 150.266 55.2214C150.316 55.2214 150.354 57.5364 150.354 60.3987C150.354 63.261 150.31 65.5697 150.266 65.5697Z" fill="#FAFAFA"/>
<path d="M158.519 60.4491C158.519 60.4491 158.431 60.4491 158.305 60.3296C158.127 60.1968 157.97 60.0377 157.84 59.8578C157.611 59.5612 157.451 59.2172 157.372 58.8508C157.292 58.4845 157.296 58.1051 157.382 57.7403C157.468 57.3755 157.635 57.0347 157.87 56.7425C158.105 56.4504 158.402 56.2144 158.74 56.0519C158.936 55.9462 159.149 55.872 159.369 55.8317C159.45 55.8165 159.533 55.8165 159.614 55.8317C159.336 55.926 159.065 56.0395 158.802 56.1714C158.495 56.3408 158.227 56.5725 158.015 56.8517C157.803 57.1308 157.651 57.4513 157.57 57.7924C157.489 58.1336 157.48 58.488 157.544 58.8328C157.607 59.1777 157.743 59.5053 157.941 59.7949C158.116 60.0281 158.309 60.2469 158.519 60.4491Z" fill="#FAFAFA"/>
<path d="M192.08 78.7928H125.417C122.179 78.7928 119.554 81.4178 119.554 84.6558V85.3729C119.554 88.611 122.179 91.2359 125.417 91.2359H192.08C195.318 91.2359 197.943 88.611 197.943 85.3729V84.6558C197.943 81.4178 195.318 78.7928 192.08 78.7928Z" fill="#F5F5F5"/>
<path d="M192.653 95.8533H125.99C122.752 95.8533 120.127 98.4782 120.127 101.716V102.433C120.127 105.671 122.752 108.296 125.99 108.296H192.653C195.891 108.296 198.516 105.671 198.516 102.433V101.716C198.516 98.4782 195.891 95.8533 192.653 95.8533Z" fill="#F5F5F5"/>
<path d="M131.941 84.9138V83.1146H132.69V84.8886C132.69 85.5177 132.954 85.7504 133.407 85.7504C133.86 85.7504 134.124 85.4988 134.124 84.8886V83.1146H134.86V84.9138C134.86 85.3008 134.706 85.6721 134.433 85.9458C134.159 86.2195 133.788 86.3732 133.401 86.3732C133.014 86.3732 132.642 86.2195 132.369 85.9458C132.095 85.6721 131.941 85.3008 131.941 84.9138Z" fill="#263238"/>
<path d="M135.306 86.1026L135.539 85.5868C135.8 85.742 136.098 85.8246 136.401 85.8258C136.734 85.8258 136.854 85.7378 136.854 85.5994C136.854 85.1968 135.363 85.5994 135.363 84.6243C135.363 84.1525 135.784 83.8191 136.508 83.8191C136.838 83.8138 137.164 83.8894 137.458 84.0393L137.219 84.5488C137.002 84.4254 136.757 84.3624 136.508 84.3664C136.187 84.3664 136.049 84.4671 136.049 84.5929C136.049 85.0143 137.54 84.5929 137.54 85.5805C137.54 86.0397 137.118 86.3668 136.376 86.3668C136.002 86.3752 135.633 86.284 135.306 86.1026Z" fill="#263238"/>
<path d="M140.396 85.2974H138.509C138.547 85.4521 138.64 85.5876 138.771 85.679C138.902 85.7703 139.061 85.8113 139.219 85.7944C139.335 85.7995 139.45 85.781 139.559 85.7399C139.667 85.6987 139.765 85.636 139.848 85.5554L140.232 85.9706C140.101 86.1062 139.942 86.2119 139.766 86.2803C139.59 86.3487 139.401 86.3782 139.213 86.3669C139.035 86.3893 138.854 86.3734 138.683 86.3203C138.512 86.2672 138.354 86.1781 138.22 86.0589C138.086 85.9398 137.979 85.7934 137.906 85.6295C137.833 85.4656 137.796 85.288 137.798 85.1087C137.797 84.9381 137.832 84.7692 137.899 84.6123C137.966 84.4554 138.065 84.3138 138.188 84.1961C138.312 84.0784 138.458 83.9871 138.618 83.9277C138.778 83.8683 138.948 83.842 139.119 83.8506C139.287 83.8464 139.454 83.8758 139.61 83.9372C139.766 83.9985 139.909 84.0905 140.029 84.2078C140.149 84.325 140.244 84.4651 140.31 84.6199C140.375 84.7746 140.408 84.9408 140.408 85.1087C140.408 85.159 140.396 85.2345 140.396 85.2974ZM138.509 84.876H139.723C139.686 84.7427 139.607 84.6251 139.498 84.5412C139.388 84.4573 139.254 84.4119 139.116 84.4119C138.977 84.4119 138.843 84.4573 138.733 84.5412C138.624 84.6251 138.545 84.7427 138.509 84.876Z" fill="#263238"/>
<path d="M142.447 83.8191V84.4859H142.283C142.195 84.4855 142.108 84.5036 142.027 84.539C141.946 84.5745 141.874 84.6266 141.814 84.6918C141.755 84.7571 141.71 84.8341 141.682 84.9178C141.655 85.0015 141.645 85.0902 141.654 85.1779V86.3417H140.937V83.8694H141.622V84.1588C141.724 84.0415 141.851 83.9497 141.994 83.8907C142.137 83.8317 142.292 83.8072 142.447 83.8191Z" fill="#263238"/>
<path d="M145.378 84.9137V86.3291H144.661V85.0269C144.661 84.6243 144.478 84.4419 144.158 84.4419C143.837 84.4419 143.566 84.6558 143.566 85.1087V86.3291H142.849V83.8568H143.535V84.1588C143.641 84.0506 143.769 83.9657 143.909 83.9093C144.05 83.853 144.201 83.8266 144.353 83.8317C144.495 83.8223 144.637 83.8444 144.769 83.8963C144.902 83.9482 145.021 84.0287 145.119 84.132C145.217 84.2353 145.291 84.3589 145.336 84.494C145.381 84.6291 145.395 84.7724 145.378 84.9137Z" fill="#263238"/>
<path d="M148.215 84.92V86.3292H147.542V86.0461C147.459 86.1664 147.345 86.262 147.212 86.3229C147.079 86.3838 146.933 86.4077 146.787 86.3921C146.209 86.3921 145.863 86.0712 145.863 85.6435C145.863 85.2157 146.171 84.9012 146.926 84.9012H147.479C147.479 84.5992 147.297 84.4168 146.907 84.4168C146.651 84.4159 146.402 84.4975 146.196 84.6495L145.938 84.1463C146.256 83.9406 146.629 83.8354 147.007 83.8443C147.775 83.8192 148.215 84.1589 148.215 84.92ZM147.498 85.5491V85.2975H147.007C146.668 85.2975 146.567 85.4233 146.567 85.5869C146.567 85.7504 146.718 85.8888 146.97 85.8888C147.079 85.8921 147.187 85.8612 147.279 85.8003C147.37 85.7394 147.44 85.6516 147.479 85.5491H147.498Z" fill="#263238"/>
<path d="M153.04 84.9138V86.3292H152.323V85.027C152.323 84.6244 152.147 84.442 151.857 84.442C151.568 84.442 151.31 84.6496 151.31 85.071V86.3292H150.624V85.027C150.624 84.6244 150.455 84.442 150.153 84.442C149.851 84.442 149.612 84.6496 149.612 85.071V86.3292H148.863V83.8569H149.549V84.1589C149.646 84.0512 149.766 83.9661 149.899 83.9096C150.033 83.8531 150.177 83.8265 150.322 83.8318C150.482 83.8244 150.641 83.8582 150.785 83.9297C150.928 84.0013 151.05 84.1084 151.14 84.2407C151.247 84.1076 151.383 84.0014 151.538 83.9304C151.694 83.8594 151.863 83.8256 152.034 83.8318C152.175 83.8231 152.316 83.8457 152.447 83.8982C152.578 83.9506 152.696 84.0314 152.793 84.1349C152.889 84.2384 152.961 84.3619 153.004 84.4966C153.047 84.6312 153.059 84.7737 153.04 84.9138Z" fill="#263238"/>
<path d="M156.122 85.2974H154.235C154.267 85.4544 154.358 85.5933 154.489 85.6856C154.62 85.778 154.781 85.8169 154.94 85.7944C155.055 85.7992 155.171 85.7804 155.279 85.7393C155.387 85.6983 155.486 85.6357 155.569 85.5554L155.946 85.9706C155.816 86.1069 155.657 86.213 155.481 86.2815C155.305 86.3499 155.116 86.3791 154.927 86.3669C154.75 86.3883 154.57 86.3717 154.399 86.3182C154.229 86.2646 154.072 86.1754 153.938 86.0563C153.805 85.9373 153.698 85.7912 153.626 85.6278C153.554 85.4644 153.517 85.2874 153.518 85.1087C153.518 84.9381 153.552 84.7692 153.62 84.6123C153.687 84.4554 153.785 84.3138 153.909 84.1961C154.032 84.0784 154.178 83.9871 154.338 83.9277C154.498 83.8683 154.669 83.842 154.839 83.8506C155.173 83.8506 155.493 83.9831 155.729 84.2191C155.965 84.455 156.097 84.775 156.097 85.1087C156.135 85.159 156.129 85.2345 156.122 85.2974ZM154.235 84.876H155.456C155.435 84.727 155.359 84.5913 155.242 84.4967C155.125 84.402 154.977 84.3554 154.827 84.3664C154.683 84.3638 154.544 84.4145 154.436 84.5086C154.328 84.6028 154.259 84.7337 154.242 84.876H154.235Z" fill="#263238"/>
<path d="M160.866 85.0711C160.866 85.8952 160.488 86.367 159.922 86.367C159.788 86.3759 159.655 86.3416 159.542 86.2691C159.428 86.1967 159.341 86.0899 159.293 85.9644C159.21 86.0952 159.093 86.2015 158.955 86.2723C158.816 86.343 158.662 86.3757 158.507 86.367C158.219 86.337 157.953 86.2015 157.759 85.9865C157.565 85.7716 157.458 85.4925 157.458 85.2032C157.458 84.9138 157.565 84.6347 157.759 84.4198C157.953 84.2049 158.219 84.0694 158.507 84.0394C158.64 84.0332 158.773 84.0578 158.895 84.1112C159.017 84.1647 159.126 84.2456 159.211 84.3476V84.0771H159.84V85.5617C159.84 85.7819 159.935 85.8574 160.061 85.8574C160.186 85.8574 160.4 85.6121 160.4 85.0837C160.403 84.8641 160.36 84.6465 160.273 84.4449C160.186 84.2432 160.058 84.0621 159.896 83.9132C159.735 83.7643 159.544 83.651 159.336 83.5806C159.128 83.5103 158.908 83.4844 158.689 83.5047C158.247 83.5047 157.823 83.6803 157.511 83.9929C157.198 84.3056 157.022 84.7296 157.022 85.1717C157.022 85.6139 157.198 86.0379 157.511 86.3505C157.823 86.6631 158.247 86.8388 158.689 86.8388C159.002 86.8384 159.311 86.7697 159.595 86.6375L159.74 87.0589C159.41 87.2096 159.051 87.2848 158.689 87.2791C158.403 87.2948 158.117 87.2519 157.848 87.1533C157.579 87.0546 157.333 86.9021 157.125 86.7052C156.917 86.5082 156.752 86.271 156.638 86.0079C156.525 85.7447 156.467 85.4613 156.467 85.1749C156.467 84.8884 156.525 84.605 156.638 84.3419C156.752 84.0788 156.917 83.8415 157.125 83.6446C157.333 83.4476 157.579 83.2952 157.848 83.1965C158.117 83.0978 158.403 83.055 158.689 83.0706C158.966 83.0481 159.244 83.083 159.507 83.1732C159.77 83.2634 160.011 83.407 160.215 83.5949C160.419 83.7827 160.583 84.0109 160.695 84.2649C160.807 84.519 160.865 84.7934 160.866 85.0711ZM159.224 85.2032C159.233 85.1226 159.225 85.0411 159.199 84.9641C159.174 84.8871 159.133 84.8164 159.078 84.7567C159.023 84.6971 158.956 84.6499 158.881 84.6184C158.807 84.5869 158.726 84.5718 158.645 84.5741C158.478 84.5741 158.318 84.6404 158.2 84.7584C158.082 84.8763 158.016 85.0363 158.016 85.2032C158.016 85.37 158.082 85.53 158.2 85.648C158.318 85.766 158.478 85.8323 158.645 85.8323C158.726 85.8346 158.807 85.8194 158.881 85.7879C158.956 85.7564 159.023 85.7093 159.078 85.6496C159.133 85.59 159.174 85.5193 159.199 85.4423C159.225 85.3652 159.233 85.2837 159.224 85.2032Z" fill="#263238"/>
<path d="M165.552 84.9137V86.3291H164.835V85.0269C164.835 84.6243 164.659 84.4419 164.37 84.4419C164.08 84.4419 163.822 84.6495 163.822 85.071V86.3291H163.105V85.0269C163.105 84.6243 162.935 84.4419 162.633 84.4419C162.331 84.4419 162.092 84.6495 162.092 85.071V86.3291H161.375V83.8569H162.061V84.1588C162.158 84.0511 162.278 83.966 162.412 83.9095C162.545 83.853 162.69 83.8264 162.835 83.8317C162.995 83.8244 163.154 83.8581 163.297 83.9297C163.44 84.0012 163.562 84.1083 163.652 84.2406C163.758 84.108 163.894 84.002 164.048 83.9311C164.202 83.8601 164.37 83.826 164.539 83.8317C164.681 83.822 164.823 83.844 164.955 83.8959C165.087 83.9479 165.206 84.0286 165.303 84.1322C165.4 84.2358 165.472 84.3597 165.516 84.4948C165.559 84.63 165.571 84.7731 165.552 84.9137Z" fill="#263238"/>
<path d="M168.383 84.92V86.3292H167.716V86.0461C167.633 86.1664 167.519 86.262 167.386 86.3229C167.254 86.3838 167.107 86.4077 166.961 86.3921C166.383 86.3921 166.037 86.0712 166.037 85.6435C166.037 85.2157 166.345 84.9012 167.1 84.9012H167.666C167.666 84.5992 167.483 84.4168 167.1 84.4168C166.844 84.4136 166.594 84.4954 166.389 84.6495L166.131 84.1463C166.447 83.9418 166.818 83.8366 167.194 83.8443C167.949 83.8192 168.383 84.1589 168.383 84.92ZM167.666 85.5491V85.2975H167.175C166.842 85.2975 166.735 85.4233 166.735 85.5869C166.735 85.7504 166.886 85.8888 167.137 85.8888C167.25 85.8962 167.363 85.8672 167.458 85.806C167.553 85.7449 167.626 85.6548 167.666 85.5491Z" fill="#263238"/>
<path d="M168.949 83.1147C168.95 83.0582 168.962 83.0024 168.986 82.9509C169.009 82.8995 169.043 82.8533 169.085 82.8155C169.127 82.7777 169.176 82.749 169.23 82.7312C169.283 82.7134 169.34 82.7069 169.396 82.7121C169.473 82.7206 169.546 82.7512 169.607 82.8003C169.667 82.8494 169.711 82.9148 169.735 82.9887C169.759 83.0626 169.761 83.1418 169.741 83.2168C169.721 83.2918 169.679 83.3593 169.622 83.4113C169.564 83.4633 169.492 83.4975 169.416 83.5098C169.339 83.5221 169.261 83.512 169.19 83.4806C169.118 83.4493 169.058 83.398 169.015 83.3331C168.973 83.2682 168.95 83.1923 168.949 83.1147ZM169.038 83.857H169.748V86.3292H169.038V83.857Z" fill="#263238"/>
<path d="M170.421 82.9008H171.139V86.3103H170.421V82.9008Z" fill="#263238"/>
<path d="M171.629 85.9203C171.629 85.8018 171.676 85.6882 171.76 85.6045C171.844 85.5207 171.957 85.4736 172.076 85.4736C172.194 85.4736 172.308 85.5207 172.392 85.6045C172.475 85.6882 172.522 85.8018 172.522 85.9203C172.522 86.0387 172.475 86.1523 172.392 86.2361C172.308 86.3199 172.194 86.3669 172.076 86.3669C171.957 86.3669 171.844 86.3199 171.76 86.2361C171.676 86.1523 171.629 86.0387 171.629 85.9203Z" fill="#263238"/>
<path d="M172.793 85.0961C172.792 84.9203 172.828 84.7463 172.899 84.5853C172.969 84.4243 173.073 84.2799 173.203 84.1614C173.333 84.0429 173.486 83.9528 173.652 83.8971C173.819 83.8414 173.996 83.8213 174.171 83.838C174.397 83.8188 174.624 83.8687 174.822 83.981C175.019 84.0932 175.178 84.2627 175.278 84.467L174.724 84.7627C174.661 84.669 174.574 84.5932 174.472 84.5427C174.371 84.4922 174.258 84.4686 174.145 84.4743C174.032 84.4799 173.922 84.5146 173.826 84.575C173.73 84.6353 173.652 84.7193 173.597 84.8189C173.543 84.9185 173.516 85.0304 173.518 85.1437C173.519 85.257 173.55 85.3679 173.607 85.4659C173.664 85.5639 173.745 85.6456 173.843 85.7031C173.94 85.7606 174.051 85.7921 174.164 85.7944C174.28 85.7946 174.393 85.763 174.492 85.7031C174.591 85.6432 174.671 85.5572 174.724 85.4547L175.278 85.7566C175.177 85.9599 175.018 86.1283 174.82 86.2404C174.623 86.3525 174.397 86.4031 174.171 86.3857C173.993 86.4027 173.814 86.3818 173.645 86.3242C173.476 86.2666 173.321 86.1738 173.191 86.0518C173.061 85.9299 172.958 85.7816 172.889 85.6168C172.821 85.452 172.788 85.2745 172.793 85.0961Z" fill="#263238"/>
<path d="M175.479 85.0963C175.459 84.8242 175.521 84.5523 175.658 84.316C175.794 84.0797 175.999 83.89 176.244 83.7715C176.49 83.6531 176.766 83.6114 177.036 83.6519C177.306 83.6924 177.557 83.8132 177.757 83.9986C177.958 84.184 178.097 84.4254 178.158 84.6913C178.22 84.9573 178.199 85.2355 178.1 85.4897C178.001 85.7439 177.827 85.9623 177.602 86.1166C177.377 86.2708 177.111 86.3537 176.838 86.3544C176.664 86.3684 176.49 86.3461 176.325 86.2892C176.161 86.2322 176.01 86.1417 175.882 86.0235C175.755 85.9052 175.653 85.7618 175.583 85.6022C175.514 85.4426 175.479 85.2703 175.479 85.0963ZM177.467 85.0963C177.456 84.9749 177.41 84.8593 177.335 84.7635C177.259 84.6678 177.157 84.596 177.042 84.557C176.926 84.5179 176.802 84.5133 176.684 84.5436C176.566 84.5739 176.459 84.6378 176.377 84.7276C176.294 84.8175 176.24 84.9293 176.22 85.0495C176.2 85.1698 176.215 85.2932 176.264 85.4049C176.313 85.5166 176.393 85.6117 176.495 85.6786C176.597 85.7456 176.716 85.7815 176.838 85.782C176.925 85.7823 177.012 85.7644 177.092 85.7293C177.173 85.6942 177.245 85.6427 177.304 85.5782C177.363 85.5136 177.408 85.4374 177.436 85.3544C177.464 85.2715 177.475 85.1835 177.467 85.0963Z" fill="#263238"/>
<path d="M182.852 84.9137V86.3291H182.135V85.0269C182.135 84.6243 181.952 84.4419 181.663 84.4419C181.374 84.4419 181.116 84.6495 181.116 85.071V86.3291H180.398V85.0269C180.398 84.6243 180.229 84.4419 179.933 84.4419C179.637 84.4419 179.392 84.6495 179.392 85.071V86.3291H178.675V83.8569H179.354V84.1588C179.453 84.051 179.573 83.9658 179.708 83.9093C179.843 83.8529 179.988 83.8264 180.134 83.8317C180.293 83.8236 180.452 83.8571 180.594 83.9288C180.736 84.0004 180.858 84.1079 180.946 84.2406C181.053 84.1083 181.19 84.0026 181.345 83.9316C181.5 83.8607 181.669 83.8265 181.839 83.8317C181.981 83.822 182.123 83.844 182.255 83.8959C182.387 83.9479 182.505 84.0286 182.602 84.1322C182.699 84.2358 182.772 84.3597 182.815 84.4948C182.858 84.63 182.871 84.7731 182.852 84.9137Z" fill="#263238"/>
<path d="M141.547 102.144L142.711 102.773L142.189 103.648L141.012 102.956V104.251H140.006V102.943L138.867 103.66L138.351 102.786L139.521 102.157L138.351 101.528L138.867 100.653L140.044 101.358V100.056H141.05V101.358L142.226 100.653L142.749 101.528L141.547 102.144Z" fill="#263238"/>
<path d="M146.397 102.144L147.561 102.773L147.039 103.66L145.862 102.968V104.264H144.862V102.956L143.705 103.66L143.189 102.786L144.353 102.157L143.189 101.528L143.705 100.653L144.881 101.358V100.056H145.881V101.358L147.058 100.653L147.58 101.528L146.397 102.144Z" fill="#263238"/>
<path d="M151.253 102.144L152.417 102.773L151.883 103.66L150.713 102.968V104.264H149.706V102.956L148.561 103.66L148.052 102.786L149.215 102.157L148.052 101.528L148.561 100.653L149.737 101.358V100.056H150.744V101.358L151.914 100.653L152.442 101.528L151.253 102.144Z" fill="#263238"/>
<path d="M156.091 102.144L157.255 102.773L156.733 103.648L155.556 102.956V104.251H154.55V102.943L153.411 103.66L152.896 102.786L154.066 102.157L152.896 101.528L153.411 100.653L154.588 101.358V100.056H155.594V101.358L156.771 100.653L157.293 101.528L156.091 102.144Z" fill="#263238"/>
<path d="M160.941 102.144L162.105 102.773L161.583 103.648L160.407 102.956V104.251H159.432V102.943L158.261 103.66L157.746 102.786L158.909 102.157L157.746 101.528L158.261 100.653L159.432 101.333V100.03H160.432V101.333L161.608 100.628L162.13 101.502L160.941 102.144Z" fill="#263238"/>
<path d="M165.791 102.144L166.955 102.773L166.433 103.648L165.257 102.956V104.251H164.25V102.943L163.105 103.66L162.596 102.786L163.759 102.157L162.596 101.528L163.105 100.653L164.282 101.358V100.056H165.288V101.358L166.464 100.653L166.987 101.528L165.791 102.144Z" fill="#263238"/>
<path d="M170.635 102.144L171.799 102.773L171.277 103.648L170.1 102.956V104.251H169.094V102.943L167.955 103.66L167.439 102.786L168.61 102.157L167.439 101.528L167.955 100.653L169.132 101.358V100.056H170.126V101.358L171.302 100.653L171.824 101.528L170.635 102.144Z" fill="#263238"/>
<path d="M175.485 102.144L176.649 102.773L176.127 103.648L174.951 102.956V104.251H173.951V102.943L172.806 103.66L172.29 102.786L173.454 102.157L172.29 101.528L172.806 100.653L173.982 101.358V100.056H174.982V101.358L176.159 100.653L176.681 101.528L175.485 102.144Z" fill="#263238"/>
<path d="M118.353 67.394H69.348C69.0129 67.394 68.6811 67.4601 68.3716 67.5886C68.062 67.717 67.7809 67.9052 67.5442 68.1425C67.3076 68.3797 67.12 68.6613 66.9924 68.9712C66.8647 69.281 66.7994 69.613 66.8002 69.9481V92.2676C66.796 92.6033 66.859 92.9365 66.9856 93.2475C67.1121 93.5586 67.2996 93.8411 67.537 94.0785C67.7745 94.316 68.057 94.5035 68.368 94.63C68.6791 94.7565 69.0123 94.8196 69.348 94.8153H89.9061L94.2719 100.42L97.9142 94.8153H118.353C118.687 94.8153 119.019 94.7494 119.328 94.6214C119.637 94.4934 119.918 94.3057 120.154 94.0691C120.391 93.8325 120.579 93.5517 120.707 93.2426C120.835 92.9335 120.901 92.6022 120.901 92.2676V69.9481C120.901 69.2718 120.632 68.6231 120.155 68.1443C119.677 67.6655 119.029 67.3957 118.353 67.394Z" fill="white"/>
<path d="M118.353 67.3941H118.592C118.831 67.4147 119.066 67.4676 119.29 67.5513C119.657 67.6831 119.989 67.8984 120.259 68.1804C120.644 68.5951 120.881 69.1262 120.932 69.6902C120.982 72.1184 120.97 75.6538 120.989 80.1328C120.989 82.3723 120.989 84.8446 120.989 87.5244C120.989 88.8706 120.989 90.2609 120.989 91.7077C121.006 92.0776 120.989 92.4482 120.938 92.8149C120.861 93.1966 120.702 93.5571 120.473 93.8717C120.237 94.1944 119.933 94.4602 119.581 94.6496C119.229 94.839 118.84 94.9472 118.441 94.9663H97.8828L98.0086 94.9034C96.8637 96.6585 95.6307 98.5646 94.3726 100.502L94.253 100.685L94.1146 100.515L89.7489 94.916L89.8747 94.9789H70.1029C69.7444 94.9789 69.4109 94.9789 69.0272 94.9789C68.4689 94.9124 67.9449 94.6747 67.527 94.2985C67.1092 93.9224 66.8179 93.4261 66.6933 92.8778C66.6306 92.525 66.6074 92.1663 66.6241 91.8084V82.5925C66.6241 79.9126 66.6241 77.2852 66.6241 74.7102V69.9481C66.6244 69.6167 66.6862 69.2881 66.8066 68.9793C67.0398 68.3655 67.4865 67.8563 68.0647 67.545C68.3536 67.3973 68.6669 67.3035 68.9895 67.2682C69.2996 67.2527 69.6103 67.2527 69.9205 67.2682H75.2739H82.0553H94.2216L111.836 67.3186L116.623 67.35H117.881H118.309H117.881H116.623L111.836 67.3815L94.2216 67.4318H82.0553H69.9708C69.6689 67.4318 69.3417 67.4318 69.0712 67.4318C68.7855 67.4646 68.5082 67.5499 68.2534 67.6834C67.7332 67.9499 67.3282 68.3974 67.1148 68.9416C67.0069 69.2161 66.9514 69.5084 66.9513 69.8034V70.747C66.9513 72.0052 66.9513 73.2633 66.9513 74.5655V82.4478C66.9513 85.1234 66.9513 87.8494 66.9513 90.6257V91.67C66.9314 92.0045 66.9504 92.3401 67.0079 92.6702C67.1187 93.1521 67.3759 93.5879 67.7442 93.9179C68.1125 94.2479 68.5738 94.4559 69.065 94.5134C69.3858 94.5449 69.7569 94.5134 70.1029 94.5134H89.9816L90.032 94.5763L94.3977 100.175H94.1398L97.7821 94.5763L97.8262 94.5071H97.9143H118.46C118.822 94.495 119.176 94.4003 119.495 94.2302C119.815 94.0601 120.091 93.8191 120.303 93.5258C120.516 93.2433 120.662 92.9165 120.731 92.5696C120.779 92.2174 120.796 91.8616 120.781 91.5064C120.781 90.0596 120.781 88.6693 120.781 87.3231C120.781 84.6432 120.781 82.171 120.781 79.9315C120.781 75.4651 120.781 71.9297 120.813 69.4952C120.757 68.9689 120.537 68.4737 120.183 68.0797C119.925 67.7912 119.605 67.5653 119.246 67.4192C118.951 67.3684 118.65 67.3599 118.353 67.3941Z" fill="#263238"/>
<path d="M84.6723 73.6974V74.5215H84.1376V73.6912L83.2317 72.2065H83.8041L84.4332 73.2382L85.0623 72.2065H85.5907L84.6723 73.6974Z" fill="#263238"/>
<path d="M85.5655 73.3576C85.5542 73.1067 85.6182 72.8581 85.7494 72.6439C85.8806 72.4297 86.073 72.2596 86.3016 72.1557C86.5303 72.0517 86.7849 72.0186 87.0325 72.0605C87.2802 72.1025 87.5096 72.2176 87.6913 72.3911C87.873 72.5646 87.9985 72.7885 88.0518 73.034C88.1052 73.2794 88.0838 73.5353 87.9904 73.7685C87.8971 74.0017 87.7361 74.2016 87.5281 74.3425C87.3202 74.4834 87.0748 74.5589 86.8236 74.5591C86.6611 74.5668 86.4988 74.5414 86.3464 74.4845C86.194 74.4275 86.0548 74.3402 85.9372 74.2279C85.8195 74.1155 85.7259 73.9805 85.662 73.8309C85.5982 73.6813 85.5653 73.5203 85.5655 73.3576ZM87.5659 73.3576C87.5647 73.2136 87.5208 73.0731 87.4399 72.9539C87.359 72.8348 87.2446 72.7422 87.1111 72.6879C86.9777 72.6337 86.8312 72.6201 86.69 72.649C86.5489 72.6778 86.4195 72.7478 86.318 72.8501C86.2166 72.9524 86.1477 73.0825 86.1201 73.2238C86.0924 73.3652 86.1072 73.5116 86.1627 73.6446C86.2181 73.7776 86.3116 73.8912 86.4315 73.9711C86.5513 74.051 86.6922 74.0936 86.8362 74.0936C86.9333 74.0963 87.0299 74.079 87.12 74.0429C87.2102 74.0067 87.292 73.9525 87.3603 73.8835C87.4287 73.8146 87.4822 73.7323 87.5176 73.6419C87.553 73.5514 87.5694 73.4547 87.5659 73.3576Z" fill="#263238"/>
<path d="M88.5034 73.4961V72.2065H89.0444V73.4647C89.0444 73.905 89.2394 74.0938 89.5603 74.0938C89.8811 74.0938 90.0824 73.9113 90.0824 73.4647V72.2065H90.6171V73.5087C90.6171 73.789 90.5058 74.0578 90.3076 74.256C90.1094 74.4542 89.8405 74.5656 89.5603 74.5656C89.28 74.5656 89.0112 74.4542 88.813 74.256C88.6148 74.0578 88.5034 73.789 88.5034 73.5087V73.4961Z" fill="#263238"/>
<path d="M92.6362 74.5215L92.1896 73.8925H91.6926V74.5215H91.1516V72.2065H92.1581C92.7872 72.2065 93.1709 72.5274 93.1709 73.0495C93.1779 73.2067 93.1356 73.3622 93.0498 73.4941C92.9641 73.6261 92.8393 73.728 92.6928 73.7855L93.215 74.5341L92.6362 74.5215ZM92.133 72.6343H91.6926V73.4647H92.133C92.4601 73.4647 92.6236 73.3074 92.6236 73.0558C92.6236 72.8042 92.4601 72.628 92.1204 72.628L92.133 72.6343Z" fill="#263238"/>
<path d="M94.3977 73.3577C94.3998 73.0997 94.4811 72.8486 94.6307 72.6384C94.7803 72.4281 94.9909 72.269 95.2339 72.1825C95.477 72.096 95.7408 72.0862 95.9895 72.1547C96.2383 72.2231 96.46 72.3664 96.6246 72.5651L96.2786 72.8859C96.2074 72.7981 96.1172 72.7276 96.0147 72.6796C95.9123 72.6317 95.8004 72.6076 95.6873 72.6091C95.5014 72.6262 95.3286 72.7121 95.2028 72.85C95.077 72.9879 95.0073 73.1679 95.0073 73.3545C95.0073 73.5412 95.077 73.7212 95.2028 73.8591C95.3286 73.997 95.5014 74.0829 95.6873 74.1C95.7999 74.1027 95.9117 74.0798 96.0142 74.033C96.1166 73.9861 96.2071 73.9165 96.2786 73.8295L96.6246 74.144C96.4604 74.3423 96.2392 74.4854 95.9911 74.5541C95.7429 74.6227 95.4796 74.6135 95.2368 74.5278C94.994 74.442 94.7834 74.2839 94.6333 74.0746C94.4833 73.8654 94.401 73.6152 94.3977 73.3577Z" fill="#263238"/>
<path d="M96.7945 73.3576C96.7832 73.1067 96.8473 72.8581 96.9785 72.6439C97.1097 72.4297 97.302 72.2596 97.5306 72.1557C97.7593 72.0517 98.0139 72.0186 98.2615 72.0605C98.5092 72.1025 98.7386 72.2176 98.9203 72.3911C99.102 72.5646 99.2275 72.7885 99.2809 73.034C99.3342 73.2794 99.3128 73.5353 99.2194 73.7685C99.1261 74.0017 98.9651 74.2016 98.7572 74.3425C98.5492 74.4834 98.3038 74.5589 98.0526 74.5591C97.8901 74.5668 97.7278 74.5414 97.5754 74.4845C97.4231 74.4275 97.2838 74.3402 97.1662 74.2279C97.0485 74.1155 96.9549 73.9805 96.8911 73.8309C96.8272 73.6813 96.7943 73.5203 96.7945 73.3576ZM98.7949 73.3576C98.7925 73.2138 98.7476 73.074 98.6659 72.9557C98.5842 72.8374 98.4694 72.7458 98.3359 72.6925C98.2023 72.6392 98.056 72.6265 97.9153 72.6561C97.7746 72.6856 97.6457 72.7561 97.5449 72.8586C97.4441 72.9612 97.3759 73.0912 97.3487 73.2324C97.3216 73.3736 97.3367 73.5197 97.3923 73.6523C97.4479 73.7849 97.5414 73.8981 97.6611 73.9778C97.7809 74.0574 97.9214 74.0999 98.0652 74.0999C98.1629 74.1026 98.26 74.0851 98.3506 74.0486C98.4412 74.0121 98.5233 73.9573 98.5917 73.8877C98.6602 73.818 98.7136 73.735 98.7485 73.6438C98.7835 73.5526 98.7993 73.4552 98.7949 73.3576Z" fill="#263238"/>
<path d="M99.7512 72.2065H100.814C100.977 72.1895 101.142 72.207 101.298 72.2577C101.454 72.3085 101.597 72.3914 101.719 72.5011C101.841 72.6108 101.938 72.7449 102.005 72.8946C102.071 73.0443 102.106 73.2064 102.106 73.3703C102.106 73.5342 102.071 73.6962 102.005 73.8459C101.938 73.9956 101.841 74.1297 101.719 74.2394C101.597 74.3491 101.454 74.4321 101.298 74.4828C101.142 74.5336 100.977 74.551 100.814 74.5341H99.7512V72.2065ZM100.783 74.0937C100.975 74.0937 101.159 74.0175 101.294 73.8818C101.43 73.7462 101.506 73.5621 101.506 73.3703C101.506 73.1784 101.43 72.9944 101.294 72.8587C101.159 72.7231 100.975 72.6468 100.783 72.6468H100.299V74.0937H100.783Z" fill="#263238"/>
<path d="M104.312 74.0938V74.5278H102.507V72.2065H104.268V72.6343H103.041V73.1439H104.123V73.5653H103.041V74.0938H104.312Z" fill="#263238"/>
<path d="M113.572 76.9685H74.1353C72.9019 76.9685 71.9021 77.9683 71.9021 79.2017V87.5306C71.9021 88.764 72.9019 89.7639 74.1353 89.7639H113.572C114.805 89.7639 115.805 88.764 115.805 87.5306V79.2017C115.805 77.9683 114.805 76.9685 113.572 76.9685Z" fill="#F5F5F5"/>
<path d="M80.7972 84.159C80.7984 84.4223 80.7444 84.6831 80.6387 84.9243C80.5331 85.1656 80.3781 85.382 80.1837 85.5598C79.9894 85.7376 79.76 85.8727 79.5103 85.9564C79.2606 86.0402 78.9961 86.0708 78.7339 86.0462C77.1109 86.0462 76.249 84.8761 76.249 82.9386C76.249 80.8375 77.3625 79.7617 79.0044 79.7617C79.4916 79.7406 79.9757 79.8491 80.4072 80.0763L80.2248 80.4411C79.8516 80.2367 79.4294 80.1388 79.0044 80.1581C77.6141 80.1581 76.702 81.0702 76.702 82.8694C76.7 83.1177 76.7168 83.3659 76.7523 83.6117C76.9 83.2158 77.1728 82.8788 77.5292 82.6517C77.8856 82.4247 78.3063 82.32 78.7276 82.3535C79.992 82.3095 80.7972 83.0329 80.7972 84.159ZM80.3443 84.159C80.3443 83.272 79.7152 82.6995 78.6647 82.6995C78.4537 82.6779 78.2405 82.6995 78.0382 82.7631C77.8358 82.8266 77.6486 82.9308 77.4879 83.0691C77.3271 83.2075 77.1963 83.3772 77.1033 83.5678C77.0104 83.7584 76.9573 83.966 76.9473 84.1778C76.9473 84.9013 77.5764 85.631 78.7213 85.631C78.929 85.6571 79.14 85.6383 79.3399 85.576C79.5398 85.5138 79.724 85.4094 79.8802 85.2699C80.0364 85.1304 80.1608 84.9591 80.2452 84.7675C80.3296 84.5758 80.372 84.3683 80.3695 84.159H80.3443Z" fill="#407BFF"/>
<path d="M89.0443 84.2595H87.7485V85.9769H87.3018V84.2595H83.7727V83.9324L87.1383 79.7805H87.6415L84.3389 83.8569H87.3144V82.3471H87.7485V83.8569H89.0443V84.2595Z" fill="#407BFF"/>
<path d="M95.9264 84.2281C95.9264 85.2598 95.1841 86.0209 93.7561 86.0209C93.3546 86.0364 92.9541 85.9703 92.5789 85.8265C92.2037 85.6827 91.8615 85.4642 91.5732 85.1843L91.7997 84.8383C92.0567 85.0918 92.3628 85.2901 92.6993 85.421C93.0357 85.5519 93.3954 85.6126 93.7561 85.5995C94.8696 85.5995 95.4672 85.071 95.4672 84.2281C95.4672 83.3851 94.901 82.8567 93.6618 82.8567H93.2717V82.5296L95.1023 80.1831H91.7997V79.7554H95.6874V80.0699L93.8002 82.4541C95.2659 82.5107 95.9264 83.2216 95.9264 84.2281Z" fill="#407BFF"/>
<path d="M103.444 79.7554V80.0699L100.783 85.9517H100.286L102.922 80.158H99.443V81.3469H99.0027V79.7554H103.444Z" fill="#407BFF"/>
<path d="M106.589 82.9007C106.589 80.9632 107.589 79.7554 109.011 79.7554C110.433 79.7554 111.439 80.9569 111.439 82.9007C111.439 84.8446 110.439 86.0461 109.011 86.0461C107.583 86.0461 106.589 84.788 106.589 82.9007ZM110.993 82.9007C110.993 81.1771 110.187 80.1768 109.017 80.1768C107.847 80.1768 107.042 81.1771 107.042 82.9007C107.042 84.6244 107.847 85.6246 109.017 85.6246C110.187 85.6246 110.993 84.5992 110.993 82.9007Z" fill="#407BFF"/>
<path d="M241.463 244.9C249.697 241.402 259.234 234.526 263.48 226.09C254.342 229.883 246.636 236.466 241.463 244.9Z" fill="#263238"/>
<path d="M243.218 231.809C251.452 228.317 260.989 221.441 265.235 213.006C256.096 216.793 248.389 223.374 243.218 231.809Z" fill="#263238"/>
<path d="M245.615 219.083C253.855 215.585 263.386 208.709 267.632 200.28C258.493 204.068 250.786 210.649 245.615 219.083Z" fill="#263238"/>
<path d="M248.584 205.759C256.353 201.166 265.015 192.988 268.261 184.068C259.628 189.098 252.762 196.674 248.603 205.759" fill="#263238"/>
<path d="M251.78 195.561C257.441 188.157 262.719 177.136 262.65 167.587C256.357 175.641 252.576 185.371 251.78 195.561Z" fill="#263238"/>
<path d="M250.194 200.411C249.049 190.397 245.162 177.809 238.544 170.298C239.661 181.198 243.685 191.598 250.194 200.411Z" fill="#263238"/>
<path d="M247.533 211.364C245.52 201.041 240.425 188.271 232.914 181.03C234.97 192.272 240.021 202.751 247.533 211.364Z" fill="#263238"/>
<path d="M244.476 224.719C242.469 214.377 237.361 201.626 229.888 194.385C231.944 205.627 236.995 216.107 244.507 224.719" fill="#263238"/>
<path d="M242.023 241.119C240.003 230.796 234.908 218.026 227.403 210.785C229.459 222.027 234.51 232.507 242.023 241.119Z" fill="#263238"/>
<path d="M252.163 193.618C252.133 193.666 252.111 193.719 252.1 193.775C252.056 193.894 252.006 194.045 251.943 194.234C251.805 194.668 251.61 195.266 251.371 196.021C250.874 197.574 250.207 199.833 249.42 202.638C248.634 205.444 247.766 208.797 246.873 212.54C245.979 216.283 245.099 220.429 244.268 224.794C243.438 229.16 242.79 233.35 242.243 237.162C241.695 240.974 241.305 244.421 241.022 247.315C240.739 250.209 240.538 252.562 240.437 254.191C240.387 254.984 240.349 255.606 240.318 256.078C240.318 256.28 240.318 256.437 240.318 256.569C240.309 256.623 240.309 256.678 240.318 256.732C240.337 256.68 240.348 256.625 240.349 256.569C240.349 256.443 240.349 256.28 240.4 256.085C240.444 255.632 240.506 255.009 240.582 254.197C240.72 252.581 240.953 250.234 241.268 247.34C241.582 244.447 242.016 241.012 242.557 237.206C243.098 233.4 243.815 229.223 244.608 224.857C245.401 220.492 246.319 216.359 247.181 212.609C248.043 208.86 248.898 205.507 249.659 202.695C250.421 199.883 251.05 197.618 251.509 196.058L252.025 194.253C252.075 194.064 252.113 193.907 252.151 193.781C252.162 193.727 252.166 193.672 252.163 193.618Z" fill="#263238"/>
<path d="M237.437 250.347C240.928 243.038 243.469 232.733 241.758 224.725C237.854 232.663 236.352 241.568 237.437 250.347Z" fill="#455A64"/>
<path d="M231.643 240.88C235.134 233.564 237.676 223.266 235.958 215.258C232.053 223.195 230.553 232.101 231.643 240.88Z" fill="#455A64"/>
<path d="M226.434 231.249C229.925 223.933 232.467 213.635 230.75 205.627C226.844 213.564 225.344 222.47 226.434 231.249Z" fill="#455A64"/>
<path d="M221.301 220.863C223.899 213.125 225.201 202.569 222.559 194.851C219.628 203.216 219.191 212.253 221.301 220.863Z" fill="#455A64"/>
<path d="M217.935 212.358C217.677 204.123 215.255 193.806 210.141 187.723C210.255 196.523 212.967 205.093 217.935 212.358Z" fill="#455A64"/>
<path d="M219.502 216.44C213.444 210.728 204.234 205.048 195.956 204.306C202.431 210.591 210.625 214.814 219.502 216.44Z" fill="#455A64"/>
<path d="M223.597 225.109C216.809 219.724 206.719 214.679 198 214.66C205.309 220.602 214.218 224.238 223.597 225.109Z" fill="#455A64"/>
<path d="M228.692 235.558C221.905 230.179 211.821 225.128 203.102 225.109C210.409 231.049 219.316 234.686 228.692 235.558Z" fill="#455A64"/>
<path d="M235.807 247.586C229.02 242.201 218.929 237.156 210.21 237.13C217.517 243.076 226.427 246.716 235.807 247.586Z" fill="#455A64"/>
<path d="M217.168 210.867C217.168 210.867 217.168 210.911 217.205 210.999L217.344 211.389L217.91 212.867C218.407 214.125 219.168 216.013 220.131 218.265C222.068 222.788 224.943 228.959 228.51 235.589C230.296 238.892 232.089 242 233.763 244.786C235.436 247.573 237.028 250.052 238.393 252.103C239.758 254.153 240.909 255.795 241.689 256.915L242.62 258.173L242.865 258.5C242.922 258.576 242.953 258.613 242.96 258.607C242.939 258.564 242.916 258.522 242.891 258.481L242.67 258.135C242.45 257.815 242.161 257.374 241.79 256.821C241.01 255.682 239.902 254.021 238.575 251.958C237.248 249.895 235.681 247.403 234.008 244.617C232.335 241.83 230.567 238.716 228.78 235.413C225.214 228.846 222.339 222.681 220.332 218.151C219.338 215.899 218.552 214.069 218.023 212.798L217.394 211.339L217.224 210.961C217.209 210.928 217.19 210.896 217.168 210.867Z" fill="#263238"/>
<path d="M220.816 251.234H255.516V257.922H251.949L248.949 276.995H227.497L224.408 257.922H220.816V251.234Z" fill="#407BFF"/>
<path d="M220.816 257.783C220.816 257.695 228.529 257.62 238.04 257.62C247.552 257.62 255.264 257.695 255.264 257.783C255.264 257.871 247.558 257.94 238.04 257.94C228.523 257.94 220.816 257.871 220.816 257.783Z" fill="#263238"/>
<path d="M22.0481 277.008H16.4179L14.3293 251.65H20.9598L22.0481 277.008Z" fill="#263238"/>
<path d="M70.8643 277.008H76.4945L78.583 251.65H71.9526L70.8643 277.008Z" fill="#263238"/>
<path d="M82.4517 254.864L9.95726 256.563L7.75551 209.741C7.70356 208.654 7.87271 207.569 8.2527 206.55C8.63269 205.531 9.21561 204.6 9.96613 203.813C10.7167 203.026 11.6192 202.4 12.6189 201.972C13.6187 201.544 14.695 201.323 15.7825 201.324H77.5512C78.6536 201.324 79.7443 201.55 80.7553 201.99C81.7664 202.429 82.6764 203.072 83.4286 203.878C84.1808 204.684 84.7593 205.636 85.128 206.674C85.4967 207.713 85.6478 208.817 85.5719 209.917L82.4517 254.864Z" fill="#407BFF"/>
<path d="M86.1696 209.583H85.9683H85.3707L83.0871 209.621H74.6827C67.5868 209.621 57.7858 209.558 46.9657 209.81C36.1394 210.168 26.3259 210.106 19.2362 209.999C15.6882 209.942 12.8134 209.873 10.8318 209.81L8.54825 209.734H7.95692C7.89009 209.743 7.82244 209.743 7.75562 209.734H7.95692H8.54825H10.8318L19.2362 209.816C26.3321 209.867 36.1331 209.892 46.9595 209.527C57.7858 209.281 67.5868 209.395 74.6827 209.445L83.0871 209.514L85.3707 209.546H85.9683L86.1696 209.583Z" fill="#263238"/>
<path d="M34.1955 202.054C32.5661 202.292 30.9806 202.769 29.49 203.469C28.0467 204.263 26.73 205.268 25.5835 206.451C25.8144 206.012 26.1186 205.616 26.4831 205.281C28.1552 203.56 30.3492 202.441 32.7235 202.098C33.2077 201.996 33.7061 201.981 34.1955 202.054Z" fill="#263238"/>
<path d="M64.0135 116.921L72.8709 133.107L85.8298 125.848L92.1205 127.93C92.1205 127.93 76.2427 145.179 73.6572 146.079C71.0717 146.978 66.1775 147.123 63.3844 143.619C60.8682 140.429 53.4199 123.696 53.4199 123.696L64.0135 116.921Z" fill="#FFBE9D"/>
<path d="M100.494 106.353C100.38 106.213 100.232 106.105 100.065 106.039C99.8974 105.973 99.7157 105.951 99.5374 105.975L93.3788 106.806C93.1111 106.846 92.8551 106.943 92.6283 107.09C92.4014 107.238 92.209 107.433 92.064 107.661L79.2246 127.383L80.206 127.93L87.0377 127.716L100.689 106.598L100.494 106.353Z" fill="#263238"/>
<path d="M96.1215 108.913C96.1708 108.991 96.2434 109.052 96.329 109.086C96.4146 109.121 96.5089 109.128 96.5985 109.106C96.6882 109.084 96.7687 109.034 96.8287 108.964C96.8887 108.894 96.9251 108.807 96.9327 108.715C96.9404 108.623 96.919 108.53 96.8714 108.451C96.8239 108.372 96.7527 108.31 96.6679 108.274C96.5831 108.237 96.489 108.228 96.3988 108.248C96.3087 108.268 96.2271 108.316 96.1655 108.385C96.0929 108.451 96.0481 108.542 96.0399 108.64C96.0318 108.738 96.0609 108.836 96.1215 108.913Z" fill="white"/>
<path d="M100.689 106.598C100.297 106.708 99.8973 106.786 99.4933 106.831L96.2221 107.34L93.9637 107.667C93.7722 107.685 93.587 107.744 93.4215 107.842C93.2561 107.94 93.1147 108.074 93.0076 108.234L92.2778 109.366C91.265 110.92 90.1642 112.625 89.0067 114.399C86.6728 117.972 84.5465 121.199 82.9864 123.526L81.1307 126.307C80.9149 126.652 80.673 126.98 80.4072 127.288C80.5844 126.918 80.7949 126.564 81.0363 126.231L82.7977 123.426C84.3012 121.06 86.3897 117.814 88.7236 114.241C89.8937 112.461 91.0071 110.762 92.0199 109.209C92.2778 108.825 92.5295 108.448 92.7685 108.076C92.9026 107.884 93.0776 107.723 93.2809 107.605C93.4842 107.488 93.7109 107.417 93.9449 107.397L96.2158 107.108L99.5059 106.718C99.8963 106.647 100.292 106.607 100.689 106.598Z" fill="#455A64"/>
<path d="M93.8379 113.637C93.8379 113.637 93.2906 113.543 92.9887 115.046C92.6867 116.55 91.7305 120.865 91.7305 120.865L88.8494 119.337L85.2385 119.809C85.2385 119.809 84.4521 120.532 85.0309 120.928C85.6096 121.325 87.8869 121.727 87.8869 121.727L89.5665 124.149L84.7415 121.822C84.7415 121.822 83.1311 122.243 83.6029 123.224C84.0747 124.206 87.327 127.282 87.327 127.282L84.9114 127.099L82.0554 125.351C82.0554 125.351 81.1747 125.395 81.5018 126.143C81.8289 126.892 84.8233 129.609 84.8233 129.609L88.4468 131.371C88.4468 131.371 90.4283 131.214 90.6171 130.629C90.7452 130.168 90.8253 129.696 90.8561 129.219C90.8561 129.219 91.9067 128.936 92.1143 128.427C92.2298 127.998 92.2534 127.55 92.1835 127.112C92.1835 127.112 93.8316 127.401 94.0392 126.483C94.1834 125.338 94.1366 124.178 93.9008 123.048C93.7373 122.337 94.6054 115.764 94.5299 115.569C94.4544 115.374 94.8759 113.203 93.8379 113.637Z" fill="#FFBE9D"/>
<path d="M90.7115 130.641C90.4251 130.813 90.1012 130.912 89.7679 130.93C88.1604 131.164 86.5245 130.775 85.1945 129.842C84.6975 129.484 84.4522 129.213 84.4836 129.156C84.5151 129.1 85.6978 130.056 87.4592 130.465C89.2206 130.874 90.6926 130.528 90.7115 130.641Z" fill="#EB996E"/>
<path d="M89.8558 129.339C89.7992 129.421 89.1512 129.087 88.4655 128.521C87.7799 127.955 87.3269 127.395 87.3961 127.326C87.4653 127.257 88.0252 127.684 88.7046 128.238C89.384 128.792 89.9124 129.251 89.8558 129.339Z" fill="#EB996E"/>
<path d="M91.7618 126.212C91.7052 126.294 91.0636 125.967 90.4219 125.37C89.7803 124.772 89.4028 124.168 89.4783 124.111C89.5538 124.055 90.057 124.533 90.6735 125.105C91.29 125.678 91.8184 126.124 91.7618 126.212Z" fill="#EB996E"/>
<path d="M93.7687 123.69C93.6681 123.734 93.3032 123.061 92.7308 122.312C92.1583 121.564 91.5984 121.054 91.6613 120.953C91.7242 120.853 92.4162 121.293 93.0201 122.086C93.434 122.527 93.6962 123.089 93.7687 123.69Z" fill="#EB996E"/>
<path d="M96.2158 240.358C96.2638 240.162 96.2638 239.957 96.2158 239.76C96.1138 239.217 95.8995 238.7 95.5867 238.244C95.4844 238.086 95.3641 237.94 95.2281 237.81C95.139 237.726 95.0288 237.668 94.9092 237.641C94.7896 237.614 94.665 237.621 94.5487 237.659C94.4803 237.683 94.4181 237.722 94.3668 237.773C94.3156 237.824 94.2767 237.886 94.253 237.955C94.2089 238.085 94.2089 238.227 94.253 238.357C94.339 238.576 94.4442 238.787 94.5676 238.986C94.8003 239.383 94.9954 239.773 95.2973 240.245C95.3853 240.371 95.5062 240.472 95.647 240.535C95.7877 240.598 95.9431 240.622 96.0962 240.603C96.3775 240.553 96.6427 240.437 96.87 240.263C97.2866 239.958 97.6666 239.606 98.0023 239.213C98.1641 239.027 98.3153 238.831 98.4553 238.628C98.6082 238.429 98.7215 238.203 98.7887 237.961C98.8263 237.819 98.8129 237.668 98.7508 237.535C98.6887 237.401 98.5819 237.294 98.449 237.231C98.3244 237.195 98.1926 237.19 98.066 237.219C97.9394 237.248 97.8222 237.308 97.7255 237.395C97.4379 237.646 97.1841 237.934 96.9706 238.25C96.6541 238.695 96.4021 239.182 96.2221 239.697C96.1392 239.879 96.0963 240.076 96.0962 240.276C96.3944 239.614 96.7545 238.983 97.1719 238.389C97.3851 238.106 97.63 237.849 97.9017 237.621C98.0464 237.521 98.2225 237.452 98.3294 237.508C98.3916 237.545 98.4392 237.602 98.4644 237.669C98.4896 237.737 98.4908 237.811 98.4678 237.879C98.4026 238.076 98.3024 238.259 98.1722 238.42C98.0401 238.609 97.8954 238.791 97.7444 238.974C97.4188 239.34 97.0562 239.671 96.6624 239.962C96.4782 240.103 96.2624 240.198 96.0333 240.238C95.9395 240.25 95.8442 240.235 95.7586 240.195C95.6729 240.155 95.6002 240.091 95.5489 240.012C95.3036 239.653 95.0646 239.207 94.8318 238.835C94.7249 238.64 94.5927 238.452 94.5298 238.294C94.4669 238.137 94.5298 238.011 94.6242 237.961C94.8947 237.854 95.1652 238.162 95.3476 238.42C95.7566 239.006 96.0512 239.663 96.2158 240.358Z" fill="#263238"/>
<path d="M80.7594 240.886L73.0847 257.525L60.6982 251.8L68.6371 231.211L80.7594 240.886Z" fill="#FFBE9D"/>
<path d="M74.5066 256.412L70.0213 264.967C70.0213 264.967 81.5019 276.838 80.4262 279.492L53.439 266.552L60.8494 249.397L74.5066 256.412Z" fill="#455A64"/>
<path d="M62.2646 259.796C61.9681 259.759 61.6678 259.828 61.4177 259.992C61.1676 260.155 60.9839 260.403 60.8996 260.689C60.8426 260.985 60.9017 261.291 61.0646 261.544C61.2274 261.797 61.4815 261.978 61.774 262.048C62.089 262.096 62.4105 262.025 62.6765 261.85C62.9425 261.674 63.1342 261.407 63.2146 261.098C63.2413 260.783 63.1447 260.47 62.9453 260.225C62.7458 259.98 62.459 259.822 62.1451 259.784" fill="#E0E0E0"/>
<g opacity="0.6">
<path opacity="0.6" d="M53.4639 266.552L54.5836 264.401L80.0422 277.611C80.0422 277.611 80.9921 278.706 80.4511 279.499L53.4639 266.552Z" fill="white"/>
</g>
<path d="M70.5498 265.036C70.4869 265.168 69.7949 264.91 68.9456 265.036C68.0964 265.162 67.4799 265.539 67.3855 265.426C67.2912 265.313 67.851 264.653 68.8827 264.533C69.9144 264.413 70.6378 264.929 70.5498 265.036Z" fill="#263238"/>
<path d="M72.8206 267.565C72.8206 267.71 72.1098 267.66 71.3989 267.999C70.6881 268.339 70.2729 268.874 70.1408 268.804C70.0087 268.735 70.2855 267.949 71.185 267.546C72.0846 267.144 72.8773 267.439 72.8206 267.565Z" fill="#263238"/>
<path d="M72.8016 271.723C72.6695 271.723 72.8016 270.95 73.4873 270.39C74.173 269.83 74.9279 269.836 74.9279 269.975C74.9279 270.113 74.368 270.314 73.8081 270.78C73.2483 271.245 72.94 271.774 72.8016 271.723Z" fill="#263238"/>
<path d="M71.8394 261.746C71.7261 261.841 71.2103 261.369 70.4428 261.061C69.6754 260.752 68.9771 260.708 68.9645 260.564C68.9519 260.419 69.732 260.218 70.6315 260.564C71.5311 260.91 71.9526 261.671 71.8394 261.746Z" fill="#263238"/>
<path d="M77.0606 254.191L97.2979 203.557C97.2979 203.557 96.8386 194.913 95.2471 192.19C93.6555 189.466 45.4559 173.544 45.4559 173.544C45.4559 173.544 33.1827 170.587 24.9922 173.544C16.8016 176.5 10.6682 186.754 11.7816 192.416C12.8951 198.078 17.7138 202.274 17.7138 202.274L53.1621 203.33L72.4809 210.376L59.4717 247.661L77.0606 254.191Z" fill="#263238"/>
<path d="M95.0582 219.592L95.5175 237.904L81.8729 238.244L79.9102 216.264L95.0582 219.592Z" fill="#FFBE9D"/>
<path d="M96.3291 236.269L96.0775 245.925C96.0775 245.925 111.616 251.505 111.804 254.367L81.8793 254.669L80.9546 236.005L96.3291 236.269Z" fill="#455A64"/>
<path d="M86.8112 244.724C86.5242 244.814 86.2807 245.007 86.1275 245.266C85.9742 245.525 85.922 245.831 85.9809 246.126C86.0608 246.416 86.2489 246.665 86.5063 246.82C86.7637 246.976 87.0709 247.027 87.3648 246.963C87.6681 246.866 87.9246 246.659 88.0849 246.384C88.2452 246.109 88.2979 245.784 88.2329 245.472C88.1198 245.177 87.8962 244.938 87.6096 244.805C87.3231 244.673 86.9961 244.657 86.698 244.761" fill="#E0E0E0"/>
<g opacity="0.6">
<path opacity="0.6" d="M81.8979 254.669L81.9546 252.241L110.628 252.87C110.628 252.87 111.961 253.436 111.823 254.38L81.8979 254.669Z" fill="white"/>
</g>
<path d="M96.5618 245.768C96.5618 245.912 95.8258 245.988 95.1149 246.466C94.4041 246.944 94.0203 247.561 93.8882 247.504C93.7561 247.447 93.9637 246.598 94.8381 246.038C95.7125 245.478 96.5932 245.636 96.5618 245.768Z" fill="#263238"/>
<path d="M99.7134 247.032C99.7512 247.177 99.1158 247.429 98.6251 248.051C98.1344 248.674 97.996 249.309 97.8576 249.309C97.7192 249.309 97.606 248.479 98.2351 247.712C98.8642 246.944 99.7071 246.894 99.7134 247.032Z" fill="#263238"/>
<path d="M101.557 250.775C101.425 250.807 101.217 250.077 101.557 249.272C101.896 248.466 102.607 248.146 102.67 248.265C102.733 248.385 102.312 248.819 102.041 249.479C101.771 250.14 101.676 250.756 101.557 250.775Z" fill="#263238"/>
<path d="M96.2597 242.245C96.2031 242.377 95.53 242.182 94.7059 242.245C93.8818 242.308 93.2402 242.578 93.1584 242.453C93.0766 242.327 93.6931 241.824 94.6682 241.742C95.6432 241.66 96.3352 242.125 96.2597 242.245Z" fill="#263238"/>
<path d="M87.0879 168.738C87.0879 168.738 95.2659 168.109 96.1717 176.953C97.0776 185.798 97.9709 227.204 97.9709 227.204L78.91 228.795L75.9533 186.503L45.4873 173.544C45.4873 173.544 81.6339 167.605 87.0879 168.738Z" fill="#263238"/>
<path d="M53.4074 156.773C53.4074 156.773 58.3645 170.682 57.4209 172.229C56.4773 173.777 43.7259 180.155 43.7259 180.155L11.8068 192.416C11.8068 192.416 8.5293 187.201 8.5293 179.206C8.5293 171.21 19.6324 156.785 19.6324 156.785L53.4074 156.773Z" fill="#263238"/>
<path d="M43.9463 172.858C43.9936 172.891 44.0442 172.918 44.0973 172.94L44.5502 173.148L46.3179 173.934L52.9546 176.828L75.8592 186.685L75.7522 186.54C76.0416 190.718 76.3813 195.228 76.677 199.896C77.457 210.81 78.1742 220.869 78.7403 228.833V228.978H78.885L92.8001 227.757L96.6312 227.399L97.6314 227.298L97.9711 227.248C97.856 227.238 97.7402 227.238 97.6251 227.248L96.6249 227.311L92.7875 227.594L78.8599 228.688L79.0171 228.82C78.4698 220.863 77.759 210.798 77.0292 199.883C76.7021 195.215 76.4002 190.705 76.0856 186.528V186.427L75.9913 186.383L53.0364 176.633L46.3619 173.84L44.5754 173.104L44.1098 172.921C44.057 172.896 44.0024 172.875 43.9463 172.858Z" fill="#455A64"/>
<path d="M18.563 174.223C18.8704 174.176 19.172 174.095 19.4626 173.984L21.8656 173.204C24.4883 172.318 27.1764 171.639 29.9052 171.172C32.6352 170.727 35.4222 170.763 38.1397 171.279C40.2157 171.713 41.4109 172.305 41.4361 172.235C41.1782 172.06 40.8992 171.919 40.6057 171.814C39.8262 171.486 39.0202 171.225 38.1964 171.034C35.4502 170.435 32.6155 170.363 29.8423 170.82C27.0916 171.285 24.3897 172.003 21.7713 172.965C20.7647 173.324 19.9595 173.632 19.3997 173.852C19.111 173.953 18.8312 174.077 18.563 174.223Z" fill="#455A64"/>
<path d="M23.0735 166.895C24.0037 166.838 24.9364 166.838 25.8666 166.895C26.7284 166.951 27.7538 167.083 28.8861 167.215C30.0185 167.348 31.2703 167.505 32.5662 167.75C34.7835 168.103 36.9088 168.892 38.8192 170.071C39.5815 170.602 40.3066 171.184 40.9895 171.814C40.8643 171.593 40.7074 171.392 40.524 171.216C40.0523 170.708 39.5271 170.253 38.9576 169.858C37.0478 168.595 34.89 167.757 32.6291 167.398C31.3206 167.152 30.0625 167.008 28.9239 166.888C27.7852 166.769 26.7536 166.668 25.8792 166.643C25.1901 166.613 24.4997 166.642 23.8158 166.731C23.5618 166.75 23.3118 166.805 23.0735 166.895Z" fill="#455A64"/>
<path d="M37.1711 55.146C33.5036 54.517 30.2513 55.9324 27.1751 58.002C24.0268 60.2151 21.6275 63.3348 20.2969 66.9458C18.9662 70.5567 18.7674 74.4874 19.7269 78.2142C20.2582 80.1081 21.1675 81.8749 22.4 83.408C23.6325 84.9411 25.1627 86.2087 26.8984 87.1344C31.673 89.5563 37.7813 88.7134 42.059 85.48C46.3367 82.2465 48.7712 76.9057 48.9788 71.5523C49.177 67.8395 48.2044 64.1583 46.1983 61.0279C45.1813 59.4813 43.8565 58.1609 42.3066 57.1489C40.7568 56.1369 39.015 55.4551 37.19 55.146" fill="#263238"/>
<path d="M26.7285 67.6332C27.2695 66.2241 27.0556 64.6577 27.2695 63.1668C27.7413 59.8893 30.4149 57.2598 33.4344 55.9828C36.2778 54.7938 39.7251 55.0517 43.1725 56.1589C45.5503 56.8796 47.6736 58.2631 49.2933 60.1472C50.3241 61.4255 51.0334 62.9324 51.3618 64.5413C51.6902 66.1503 51.628 67.8146 51.1806 69.3946L34.4095 66.9538C32.8368 68.2497 31.2264 69.577 29.3203 70.3005C28.7708 70.5415 28.1685 70.6368 27.5714 70.5773C27.274 70.5419 26.9931 70.4216 26.7622 70.2309C26.5313 70.0401 26.3602 69.7869 26.2693 69.5015C26.1183 68.8662 26.4957 68.2434 26.7285 67.6332Z" fill="#263238"/>
<path d="M43.5309 60.7888L28.8861 63.8964C28.2073 63.9415 27.5697 64.2377 27.0975 64.7273C26.6253 65.217 26.3524 65.8649 26.332 66.5448L26.5082 98.2438C26.523 100.408 27.2479 102.508 28.5715 104.22L29.9681 106.019C33.1575 110.127 39.6055 109.712 42.04 105.12C42.1889 104.859 42.3031 104.58 42.3797 104.289C42.4237 104.006 42.4992 103.817 42.5118 103.578L42.7949 100.483C42.9333 97.6651 42.9584 94.8217 42.9584 94.8217C42.9584 94.8217 48.9535 94.0668 50.5073 86.3418C51.2685 82.5044 51.3188 76.1571 51.193 70.9672C51.0609 66.3184 48.1986 60.4806 43.5309 60.7888Z" fill="#FFBE9D"/>
<path d="M48.9473 76.9434C48.9391 77.2026 48.8299 77.4483 48.643 77.6282C48.4562 77.808 48.2064 77.9076 47.9471 77.9059C47.8197 77.9118 47.6925 77.892 47.5729 77.8477C47.4534 77.8034 47.344 77.7355 47.2512 77.6481C47.1585 77.5606 47.0843 77.4554 47.0331 77.3386C46.9819 77.2219 46.9547 77.096 46.9531 76.9685C46.9629 76.7093 47.0723 76.4638 47.2587 76.2833C47.445 76.1028 47.6939 76.0012 47.9534 75.9998C48.081 75.9947 48.2084 76.0153 48.328 76.0603C48.4475 76.1053 48.5569 76.1738 48.6495 76.2618C48.7422 76.3497 48.8163 76.4554 48.8674 76.5724C48.9185 76.6895 48.9457 76.8156 48.9473 76.9434Z" fill="#263238"/>
<path d="M49.6769 74.2321C49.5448 74.3579 48.8151 73.7729 47.7393 73.7352C46.6636 73.6974 45.8521 74.2007 45.7515 74.0623C45.6508 73.9239 45.827 73.7729 46.1792 73.5401C46.6562 73.2337 47.2171 73.0842 47.7834 73.1124C48.3396 73.1313 48.8752 73.3275 49.312 73.6723C49.6329 73.9428 49.7398 74.1818 49.6769 74.2321Z" fill="#263238"/>
<path d="M39.335 76.6981C39.3284 76.9584 39.22 77.2057 39.0329 77.3869C38.8459 77.5681 38.5952 77.6686 38.3348 77.6669C38.208 77.6719 38.0814 77.6515 37.9626 77.6068C37.8438 77.5621 37.7352 77.4941 37.6431 77.4067C37.551 77.3193 37.4774 77.2144 37.4266 77.0981C37.3758 76.9818 37.3487 76.8565 37.3472 76.7295C37.3537 76.4703 37.4613 76.2239 37.647 76.0429C37.8327 75.8619 38.0818 75.7607 38.3411 75.7608C38.4682 75.7557 38.5951 75.7761 38.7143 75.8207C38.8334 75.8653 38.9425 75.9333 39.035 76.0206C39.1276 76.1078 39.2018 76.2127 39.2533 76.3291C39.3049 76.4454 39.3326 76.5709 39.335 76.6981Z" fill="#263238"/>
<path d="M39.4923 73.9742C39.3602 74.1 38.6305 73.5087 37.5547 73.471C36.479 73.4332 35.6675 73.9365 35.5669 73.8044C35.4662 73.6723 35.6424 73.515 36.0009 73.2759C36.4777 72.9742 37.0351 72.825 37.5988 72.8482C38.1573 72.8706 38.6944 73.0687 39.1337 73.4143C39.4482 73.6785 39.5552 73.9176 39.4923 73.9742Z" fill="#263238"/>
<path d="M42.707 82.127C43.2809 81.9791 43.8697 81.8968 44.4621 81.8816C44.7389 81.8816 44.9968 81.8187 45.0535 81.6363C45.0858 81.3547 45.0332 81.0699 44.9025 80.8185C44.6697 80.1454 44.4244 79.4408 44.1728 78.6985C43.1599 75.6853 42.4428 73.213 42.5623 73.1752C42.6819 73.1375 43.6066 75.5469 44.6131 78.5601C44.8522 79.3024 45.0849 80.007 45.3051 80.6864C45.4667 81.0235 45.5024 81.4073 45.4057 81.7684C45.3614 81.8628 45.2966 81.9462 45.2161 82.0126C45.1356 82.079 45.0414 82.1266 44.9402 82.1521C44.7871 82.1838 44.631 82.1985 44.4747 82.1962C43.885 82.2515 43.2906 82.2282 42.707 82.127Z" fill="#263238"/>
<path d="M42.9586 94.8532C39.2978 94.7696 35.7323 93.6697 32.6606 91.6764C32.6606 91.6764 35.0637 97.1556 42.8705 96.709L42.9586 94.8532Z" fill="#EB996E"/>
<path d="M42.1533 84.6936C41.9592 84.4291 41.7007 84.2185 41.4023 84.082C41.104 83.9455 40.7756 83.8875 40.4486 83.9135C40.2069 83.9263 39.9704 83.9888 39.754 84.097C39.5375 84.2053 39.3457 84.357 39.1904 84.5426C39.0431 84.7139 38.9511 84.9257 38.9264 85.1503C38.9017 85.3748 38.9455 85.6016 39.052 85.8008C39.2172 85.999 39.4375 86.1437 39.685 86.2165C39.9325 86.2893 40.1961 86.2869 40.4423 86.2097C40.957 86.0513 41.4342 85.7902 41.8451 85.4422C41.9708 85.3635 42.0798 85.2609 42.1659 85.1402C42.2054 85.0805 42.2265 85.0105 42.2265 84.9389C42.2265 84.8674 42.2054 84.7973 42.1659 84.7376" fill="#EB996E"/>
<path d="M39.5238 82.7498C39.6999 82.7498 39.6559 83.9073 40.6184 84.7754C41.5808 85.6435 42.8264 85.5618 42.8327 85.7253C42.8327 85.7945 42.5433 85.9392 42.0212 85.9329C41.338 85.9152 40.683 85.6568 40.1717 85.2032C39.6858 84.7747 39.3839 84.1753 39.3288 83.5298C39.2784 83.0203 39.442 82.7372 39.5238 82.7498Z" fill="#263238"/>
<path d="M39.4292 70.791C39.316 71.0803 38.2466 70.8979 36.9822 70.9986C35.7177 71.0992 34.6923 71.4075 34.5351 71.137C34.4659 71.0111 34.6483 70.7406 35.0698 70.4764C35.6285 70.1457 36.2584 69.9537 36.9067 69.9165C37.5504 69.8618 38.1978 69.9632 38.7939 70.2122C39.2783 70.4135 39.4796 70.6526 39.4292 70.791Z" fill="#263238"/>
<path d="M49.5447 69.5329C49.3497 69.772 48.62 69.4889 47.733 69.4385C46.846 69.3882 46.0848 69.5392 45.9213 69.2813C45.8458 69.1555 45.9779 68.9164 46.3113 68.6962C46.7628 68.4298 47.2862 68.311 47.8085 68.3565C48.329 68.3846 48.828 68.5736 49.2365 68.8975C49.5384 69.1618 49.6328 69.4197 49.5447 69.5329Z" fill="#263238"/>
<path d="M24.0423 65.3685C25.5646 60.9083 32.2202 54.8315 36.8879 55.253L44.311 59.9018C44.0409 61.1784 43.4305 62.3581 42.5445 63.316C41.6586 64.274 40.53 64.9744 39.2784 65.3433C37.9385 65.7207 36.3406 65.8025 35.504 66.9286C34.6673 68.0546 35.114 69.7846 34.3402 70.9672C33.2645 72.6154 30.4274 72.477 29.6096 74.2636C29.2573 75.0436 29.4146 75.9872 29.0434 76.7799C28.5527 77.8115 25.898 79.076 24.8097 78.7111C23.7214 78.3462 23.7592 76.4905 23.4258 75.5091C22.9967 74.4052 22.9655 73.1862 23.3377 72.0618C23.8787 69.8538 23.3188 67.4947 24.0423 65.3685Z" fill="#263238"/>
<path d="M28.0305 79.6736C28.0305 79.0949 27.4014 77.7046 26.8667 77.5914C25.3506 77.2957 22.5953 77.3146 22.4191 81.1897C22.1801 86.4865 27.5461 85.6309 27.565 85.48C27.5838 85.329 27.955 81.6741 28.0305 79.6736Z" fill="#FFBE9D"/>
<path d="M26.0678 83.404C26.0678 83.404 25.9734 83.4606 25.8099 83.5236C25.5899 83.6121 25.3442 83.6121 25.1242 83.5236C24.5706 83.2908 24.1428 82.3786 24.1554 81.4287C24.1657 80.9724 24.2751 80.5238 24.4762 80.114C24.5344 79.9511 24.6312 79.8048 24.7582 79.6876C24.8853 79.5704 25.039 79.4857 25.2059 79.4409C25.3126 79.4165 25.4244 79.431 25.5212 79.4818C25.6181 79.5325 25.6937 79.6162 25.7344 79.7177C25.7973 79.8686 25.7344 79.9756 25.791 79.9819C25.8476 79.9882 25.9042 79.9001 25.8728 79.6799C25.853 79.5476 25.7859 79.4269 25.684 79.3402C25.6142 79.2805 25.5332 79.2353 25.4457 79.2072C25.3582 79.1791 25.266 79.1687 25.1745 79.1767C24.9553 79.2112 24.7485 79.3009 24.5735 79.4374C24.3986 79.5738 24.2612 79.7525 24.1743 79.9567C23.9298 80.4048 23.7981 80.9057 23.7905 81.4162C23.7905 82.4856 24.2749 83.511 25.0487 83.7689C25.1889 83.8159 25.3377 83.8313 25.4846 83.8139C25.6314 83.7965 25.7726 83.7467 25.8979 83.6682C26.0175 83.5298 26.0678 83.4103 26.0678 83.404Z" fill="#EB996E"/>
<path d="M22.9224 64.0286C22.9224 62.3679 20.8716 61.2858 19.2549 60.8832C17.6054 60.5999 15.9091 60.9239 14.4802 61.7954C13.631 62.2609 12.7754 62.9277 12.593 63.8776C12.4106 64.8275 13.3164 65.9599 14.2223 65.6202C13.7796 65.765 13.3746 66.0063 13.0365 66.3268C12.6984 66.6472 12.4358 67.0388 12.2674 67.4731C12.0991 67.9074 12.0294 68.3737 12.0633 68.8383C12.0971 69.3028 12.2337 69.7541 12.4633 70.1594C12.6928 70.5648 13.0094 70.9141 13.3904 71.1821C13.7714 71.4501 14.2071 71.6302 14.6662 71.7093C15.1252 71.7884 15.5961 71.7646 16.0448 71.6395C16.4935 71.5144 16.9088 71.2913 17.2607 70.9862C16.8012 72.5225 15.8286 73.8548 14.5054 74.7606C15.8742 74.957 17.2706 74.7893 18.554 74.2744C19.8373 73.7594 20.9623 72.9154 21.8157 71.8273C22.6691 70.7392 23.2207 69.4455 23.415 68.0764C23.6093 66.7073 23.4394 65.3112 22.9224 64.0286Z" fill="#263238"/>
<path d="M19.2361 72.4204C19.0787 71.9053 19.0106 71.367 19.0348 70.8288C19.0137 68.2118 19.8734 65.6638 21.4756 63.5945C21.7781 63.1495 22.1573 62.7619 22.5954 62.4496C21.489 63.8622 20.6064 65.4365 19.9784 67.1173C19.0034 69.9481 19.3556 72.4267 19.2361 72.4204Z" fill="#407BFF"/>
<path d="M42.7634 58.304C43.2478 60.4618 46.5379 63.2234 47.9659 64.903C50.7086 68.105 51.2496 69.1681 51.2245 76.3333C52.5204 73.861 53.5143 71.4328 53.4136 68.646C53.3526 65.8231 52.2606 63.1201 50.3438 61.0468C49.3846 60.0353 48.2031 59.2608 46.8929 58.7848C45.5827 58.3087 44.1797 58.1441 42.7949 58.304" fill="#263238"/>
<path d="M65.2277 117.236C65.2277 117.236 59.5157 107.718 57.9305 105.793C56.6576 104.305 55.0579 103.132 53.2565 102.364C52.545 102.057 51.7995 101.835 51.0358 101.704L42.8201 99.8858C42.8201 99.8858 42.8201 105.491 36.9383 105.837C31.0565 106.183 26.1245 97.9985 26.1245 97.9985C26.1245 97.9985 16.6318 99.4706 14.3671 100.641C12.1025 101.811 8.52934 103.289 6.56663 113.096L5.18896 122.709L21.5449 124.218L23.1113 148.526L31.22 154.187C31.22 154.187 53.7094 160.031 55.1248 160.415C56.5402 160.799 57.012 124.231 57.012 124.231C57.012 124.231 62.8372 120.513 65.2277 117.236Z" fill="#263238"/>
<path d="M54.458 113.147C54.5906 113.369 54.6982 113.605 54.7788 113.851C54.9613 114.31 55.2003 114.983 55.4645 115.826C56.8397 120.243 57.4066 124.872 57.1379 129.49C57.0875 130.371 57.0183 131.081 56.9428 131.572C56.9262 131.828 56.8819 132.081 56.8107 132.327C56.7807 132.072 56.7807 131.815 56.8107 131.56C56.8422 131.069 56.8799 130.358 56.8988 129.477C56.9601 127.187 56.855 124.895 56.5843 122.62C56.3006 120.349 55.8507 118.101 55.2381 115.896C55.0053 115.046 54.7977 114.361 54.6467 113.895C54.5577 113.653 54.4944 113.402 54.458 113.147Z" fill="#455A64"/>
<path d="M53.7471 152.961L22.9225 146.255L21.5008 124.237L7.80591 122.979C7.80591 122.979 8.31546 138.026 8.83759 142.48C9.59877 148.916 13.3984 157.698 15.6253 159.465C17.8522 161.233 55.0996 160.428 55.0996 160.428L53.7471 152.961Z" fill="#FFBE9D"/>
<path d="M71.2415 156.949C71.139 157.162 70.9752 157.339 70.7712 157.458C70.5671 157.577 70.3322 157.632 70.0966 157.616C69.9961 157.609 69.8968 157.59 69.8009 157.559C69.1152 157.339 69.1718 155.949 69.1718 155.949L65.9132 155.42C65.9132 155.42 61.667 158.157 60.1572 159.969C58.6474 161.78 54.7975 160.315 54.7975 160.315L53.4639 153.357L59.4715 147.928C59.4715 147.928 59.1066 148.249 59.5218 147.236C59.937 146.223 61.818 146.607 61.818 146.607C62.1136 146.104 63.3466 145.928 63.3466 145.928L68.6182 146.557C69.1538 146.619 69.6687 146.8 70.1248 147.088C70.581 147.375 70.9669 147.761 71.2541 148.217L73.4873 151.747C73.4873 151.747 74.6636 154.263 74.4749 154.892C74.3909 155.144 74.2146 155.356 73.9814 155.484C73.7482 155.613 73.4751 155.648 73.2168 155.584C73.2168 155.584 72.9588 157.257 72.5185 157.314C72.0687 157.29 71.6272 157.184 71.2163 156.999L71.2415 156.949Z" fill="#FFBE9D"/>
<path d="M60.0378 151.954C60.0378 152.011 60.7424 151.954 61.8684 151.992C63.3307 152.063 64.7764 152.333 66.165 152.797C66.9294 153.054 67.672 153.372 68.3856 153.747C69.0147 154.106 69.6815 154.376 69.8891 154.86C69.936 154.961 69.9554 155.072 69.9455 155.183C69.9356 155.293 69.8966 155.399 69.8325 155.489C69.7371 155.638 69.5989 155.754 69.4362 155.823C69.2868 155.875 69.1288 155.899 68.9707 155.892C68.9707 155.892 69.1342 156.037 69.4739 155.949C69.679 155.893 69.8588 155.769 69.9835 155.596C70.0741 155.482 70.1333 155.346 70.1554 155.201C70.1775 155.057 70.1616 154.909 70.1093 154.772C69.9752 154.47 69.7569 154.212 69.4802 154.03C69.1909 153.848 68.8889 153.653 68.5555 153.47C67.833 153.074 67.0774 152.741 66.2971 152.476C64.8785 151.997 63.3911 151.752 61.8936 151.753C61.2683 151.722 60.642 151.79 60.0378 151.954Z" fill="#EB996E"/>
<path d="M59.6604 155.313C59.6604 155.414 61.8118 155.313 64.4476 155.477C67.0835 155.641 69.1972 155.955 69.216 155.854C68.7762 155.681 68.3148 155.569 67.8446 155.521C66.7267 155.331 65.5988 155.205 64.4665 155.144C63.333 155.08 62.1968 155.08 61.0632 155.144C60.59 155.135 60.118 155.192 59.6604 155.313Z" fill="#EB996E"/>
<path d="M71.2103 156.817C71.2567 156.634 71.2799 156.446 71.2795 156.257C71.3116 155.742 71.3116 155.225 71.2795 154.709C71.2616 154.349 71.2132 153.992 71.1348 153.64C71.0399 153.228 70.8646 152.839 70.619 152.495C70.0996 151.699 69.4284 151.012 68.6437 150.476C67.8689 149.939 67.0216 149.515 66.1274 149.218C65.3856 149.008 64.6206 148.892 63.8501 148.872C63.2211 148.872 62.68 148.872 62.3152 148.872C62.1246 148.859 61.9333 148.878 61.749 148.928C62.4412 149.027 63.1385 149.086 63.8375 149.104C64.5844 149.154 65.3231 149.289 66.0393 149.507C66.8975 149.82 67.7115 150.243 68.4612 150.765C69.2033 151.285 69.843 151.938 70.3485 152.69C70.7622 153.302 70.9995 154.016 71.0341 154.753C71.1725 156.005 71.1411 156.817 71.2103 156.817Z" fill="#EB996E"/>
<path d="M63.6045 147.255C63.6045 147.305 64.3908 147.33 65.649 147.475C66.9071 147.62 68.7943 147.746 69.9078 149.419C70.9792 150.668 71.8725 152.058 72.5625 153.552C72.7909 154.193 72.9593 154.855 73.0658 155.527C73.1029 155.343 73.1029 155.152 73.0658 154.967C73.0336 154.456 72.9298 153.952 72.7575 153.47C72.1198 151.918 71.2338 150.479 70.1343 149.211C69.8406 148.823 69.4981 148.474 69.1152 148.173C68.7375 147.9 68.3101 147.704 67.857 147.595C67.1269 147.399 66.3786 147.279 65.6238 147.236C64.9523 147.163 64.2745 147.169 63.6045 147.255Z" fill="#EB996E"/>
<path d="M61.296 158.849C61.4075 158.778 61.5128 158.698 61.6106 158.61L62.4913 157.899C63.5994 157.038 64.7568 156.241 65.9575 155.515H65.882L69.1406 156.068L69.0273 155.93C69.0169 156.198 69.0381 156.466 69.0902 156.729C69.1331 157.022 69.2623 157.296 69.4614 157.515C69.5808 157.623 69.7298 157.693 69.8892 157.716C70.0409 157.745 70.1966 157.745 70.3484 157.716C70.6652 157.67 70.9539 157.509 71.1599 157.263C71.215 157.206 71.2635 157.143 71.3046 157.075L71.336 157.018L71.1473 157.087L71.248 157.125C71.3864 157.182 71.5248 157.232 71.6694 157.276C71.8141 157.32 71.9588 157.358 72.1161 157.389C72.1977 157.396 72.2798 157.396 72.3614 157.389C72.4652 157.396 72.569 157.376 72.6634 157.333C72.8065 157.22 72.9154 157.07 72.9779 156.899C73.0444 156.754 73.0991 156.605 73.1415 156.452C73.23 156.148 73.2993 155.839 73.3491 155.527L73.1603 155.659C73.3813 155.705 73.6107 155.691 73.8243 155.618C74.0379 155.545 74.2279 155.416 74.3744 155.244C74.5199 155.067 74.5998 154.844 74.6009 154.615C74.5833 154.402 74.5454 154.192 74.4877 153.986C74.2407 153.185 73.9401 152.401 73.5881 151.64L72.3992 149.752L71.6443 148.563C71.4149 148.147 71.1384 147.759 70.8202 147.406C70.4831 147.067 70.0808 146.799 69.6375 146.62C69.2056 146.459 68.7516 146.366 68.2913 146.343L63.3279 145.783H63.2902C62.9916 145.831 62.6986 145.909 62.4158 146.016C62.1139 146.106 61.8492 146.291 61.6609 146.544L61.8433 146.487C61.5751 146.363 61.2805 146.307 60.9854 146.324C60.6904 146.34 60.4039 146.429 60.1511 146.582C59.7109 146.902 59.4112 147.38 59.3144 147.915L59.3522 147.846L55.2129 151.57L54.0994 152.596C53.9622 152.707 53.8377 152.834 53.7283 152.973C53.8759 152.876 54.0148 152.767 54.1435 152.646L55.3072 151.671L59.5157 148.035H59.5472V147.991C59.6372 147.524 59.9001 147.108 60.2832 146.827C60.4995 146.705 60.742 146.636 60.9903 146.626C61.2387 146.616 61.4859 146.665 61.7112 146.77L61.8244 146.815L61.8936 146.714C62.0577 146.519 62.2771 146.379 62.5227 146.311C62.7857 146.216 63.0576 146.146 63.3342 146.104H63.2902L68.2536 146.689C68.6837 146.714 69.1077 146.803 69.5117 146.953C69.9133 147.114 70.2773 147.356 70.5811 147.664C70.8815 148 71.1431 148.37 71.3612 148.765L72.1161 149.96C72.525 150.589 72.9276 151.218 73.305 151.847C73.655 152.588 73.9515 153.353 74.192 154.137C74.2477 154.319 74.2835 154.507 74.299 154.697C74.3024 154.86 74.2465 155.019 74.1417 155.143C74.0347 155.269 73.8956 155.362 73.7393 155.415C73.583 155.467 73.4155 155.475 73.2547 155.439H73.0849V155.596C73.0369 155.896 72.9718 156.192 72.8898 156.483C72.8365 156.743 72.7198 156.985 72.5501 157.188C72.5064 157.195 72.4618 157.195 72.418 157.188H72.2167C72.0846 157.188 71.9462 157.125 71.8078 157.087L71.4052 156.949L71.3109 156.911L71.1159 156.98V157.018C71.0854 157.072 71.0495 157.122 71.0089 157.169C70.8491 157.36 70.6258 157.488 70.3798 157.528C70.2616 157.553 70.1395 157.553 70.0213 157.528C69.9102 157.517 69.805 157.473 69.7193 157.402C69.4432 157.003 69.3183 156.519 69.367 156.037V155.917H69.2538L65.9826 155.408H65.9449H65.9134C64.7167 156.157 63.5713 156.985 62.485 157.886C62.1075 158.207 61.8244 158.465 61.6357 158.641C61.5153 158.698 61.4015 158.767 61.296 158.849Z" fill="#EB996E"/>
<path d="M111.194 136.712L70.6378 137.045C69.3168 137.045 68.0649 137.674 67.8636 138.976L63.4601 168.543H42.5371C42.2294 168.565 41.9415 168.703 41.7313 168.929C41.5211 169.154 41.4043 169.452 41.4043 169.76C41.4043 170.069 41.5211 170.366 41.7313 170.591C41.9415 170.817 42.2294 170.955 42.5371 170.977H109.269L113.83 139.775C113.887 139.396 113.861 139.009 113.755 138.64C113.649 138.272 113.464 137.93 113.214 137.639C112.964 137.349 112.654 137.115 112.305 136.955C111.957 136.795 111.578 136.712 111.194 136.712Z" fill="#E0E0E0"/>
<path d="M111.194 136.712C111.406 136.703 111.617 136.724 111.823 136.775C112.363 136.903 112.85 137.194 113.217 137.61C113.584 138.026 113.813 138.545 113.874 139.096C113.889 139.656 113.839 140.215 113.723 140.763L113.138 144.883C112.245 151.08 110.961 160.013 109.363 170.996V171.103H109.256L44.5185 171.141H42.776C42.4593 171.171 42.1406 171.11 41.8576 170.965C41.6411 170.846 41.4605 170.671 41.3347 170.459C41.2089 170.246 41.1426 170.004 41.1426 169.757C41.1426 169.51 41.2089 169.268 41.3347 169.055C41.4605 168.843 41.6411 168.668 41.8576 168.549C42.1416 168.407 42.46 168.348 42.776 168.379H63.4348L63.2775 168.518C64.8691 157.93 66.36 148.054 67.681 139.19C67.7246 138.598 67.9951 138.046 68.4359 137.649C68.876 137.278 69.4129 137.04 69.9834 136.963C70.5269 136.911 71.0732 136.892 71.619 136.907H73.2106L79.3189 136.869L90.1704 136.8L105.62 136.718H111.181C111.181 136.718 111.062 136.718 110.823 136.718H109.753L105.62 136.775L90.1704 136.945L79.3189 137.058L73.2106 137.114H71.619C71.0879 137.104 70.5566 137.123 70.0275 137.171C69.5049 137.24 69.0134 137.458 68.6121 137.8C68.4163 137.976 68.2572 138.189 68.1439 138.426C68.0306 138.664 67.9652 138.921 67.9515 139.184C66.6305 148.048 65.1584 157.924 63.548 168.511V168.65H42.7886C42.5301 168.617 42.2676 168.661 42.0337 168.776C41.8208 168.898 41.6565 169.09 41.5683 169.319C41.4801 169.548 41.4734 169.8 41.5493 170.034C41.6393 170.27 41.8082 170.468 42.0274 170.594C42.2638 170.708 42.5275 170.754 42.7886 170.726H44.5311L109.269 170.763L109.143 170.87C110.773 159.893 112.094 150.967 113.012 144.77C113.245 143.229 113.452 141.851 113.641 140.662C113.758 140.123 113.815 139.572 113.811 139.02C113.758 138.482 113.541 137.973 113.189 137.562C112.836 137.151 112.366 136.859 111.842 136.724C111.626 136.709 111.41 136.705 111.194 136.712Z" fill="#263238"/>
<path d="M89.1953 156.012C90.5989 156.012 91.7367 154.874 91.7367 153.47C91.7367 152.067 90.5989 150.929 89.1953 150.929C87.7917 150.929 86.6538 152.067 86.6538 153.47C86.6538 154.874 87.7917 156.012 89.1953 156.012Z" fill="white"/>
<path d="M65.0704 170.701C65.127 170.701 66.4166 163.183 67.9515 153.892C69.4865 144.6 70.688 137.051 70.6314 137.045C70.5748 137.039 69.2789 144.563 67.7439 153.854C66.209 163.145 65.0201 170.694 65.0704 170.701Z" fill="#263238"/>
</svg>
