<svg width="65" height="61" viewBox="0 0 65 61" fill="none" xmlns="http://www.w3.org/2000/svg">
<path d="M2.64927 15.5465C-0.346603 20.4714 -0.662353 28.9981 1.53214 34.3286C3.45427 38.9975 7.27789 43.3798 12.2971 43.9288C14.1429 44.1306 16.0294 43.8008 17.8561 44.1335C24.1382 45.2775 26.4751 53.0197 31.3574 57.1352C34.7551 59.9994 39.4696 61.0129 43.8791 60.4611C48.2886 59.9094 52.4168 57.9157 56.0511 55.3581C58.9207 53.3385 61.6056 50.8554 63.0216 47.6448C65.9896 40.9149 62.4978 32.8321 57.0732 27.8649C55.3837 26.3178 53.5006 24.9532 52.0888 23.149C50.6772 21.3448 49.7789 18.9372 50.4515 16.7473C50.9881 15.0002 52.4326 13.6458 52.9798 11.9019C53.7246 9.52892 52.6005 6.86679 50.7546 5.19992C48.9087 3.53305 46.4661 2.69505 44.0464 2.11992C33.9085 -0.290199 11.6935 0.679299 2.64927 15.5465Z" fill="url(#paint0_linear_1_2850)"/>
<path opacity="0.1" d="M36.2084 37.9505V36.2358C39.7211 34.6903 42.3964 31.2182 43.2421 26.952C43.7241 27.1804 44.2721 27.2925 44.8499 27.2504C46.4186 27.1362 47.6914 25.8628 47.8039 24.2939C47.8811 23.2163 47.4236 22.2429 46.6709 21.6089C50.1047 20.4101 52.5691 17.1448 52.5691 13.3021C52.5691 8.44281 48.63 4.50369 43.7708 4.50369C41.583 4.50369 39.5833 5.30407 38.0441 6.62544C36.2359 5.79857 34.2255 5.33719 32.1071 5.33719C24.2135 5.33719 17.8145 11.7362 17.8145 19.6298V21.4022C16.902 22.018 16.324 23.0918 16.4103 24.2939C16.5229 25.8628 17.7957 27.1362 19.3644 27.2503C19.9423 27.2923 20.49 27.1803 20.9721 26.9519C21.8179 31.218 24.4931 34.6902 28.0059 36.2357V37.9504C19.9295 38.7054 13.608 45.5017 13.608 53.7754V59.5924C13.608 60.2828 14.1677 60.8424 14.858 60.8424H49.3564C50.0467 60.8424 50.6064 60.2828 50.6064 59.5924V53.7754C50.6062 45.5018 44.2848 38.7055 36.2084 37.9505Z" fill="#0000CC"/>
<path d="M50.6062 57.6537H13.608V50.5867C13.608 41.8077 20.7248 34.6909 29.5038 34.6909H34.7105C43.4895 34.6909 50.6064 41.8077 50.6064 50.5867V57.6537H50.6062Z" fill="#8383FF"/>
<path d="M21.023 57.6536V47.6576C21.023 47.0791 20.554 46.6101 19.9755 46.6101C19.397 46.6101 18.928 47.0791 18.928 47.6576V57.6536H21.023Z" fill="#6C6CFF"/>
<path d="M45.2861 57.6536V47.6576C45.2861 47.0791 44.8171 46.6101 44.2386 46.6101C43.6601 46.6101 43.1911 47.0791 43.1911 47.6576V57.6536H45.2861Z" fill="#6C6CFF"/>
<path d="M36.2085 29.1384V35.1746C36.2085 37.4396 34.3723 39.2759 32.1073 39.2759C29.8423 39.2759 28.006 37.4396 28.006 35.1746V29.1384H36.2085Z" fill="#FFAB66"/>
<path d="M36.2085 29.1384V35.1703C34.9248 35.6865 33.5448 35.9665 32.1073 35.9665C30.6698 35.9665 29.2898 35.6865 28.006 35.1703V29.1384H36.2085Z" fill="#FF9D33"/>
<path d="M46.3999 21.6647V16.4408C46.3999 8.54722 40.0009 2.14822 32.1072 2.14822C24.2136 2.14822 17.8146 8.54722 17.8146 16.4408V21.6647H46.3999Z" fill="#FF8B00"/>
<path d="M44.6113 24.0701C46.3794 24.0701 47.8127 22.6368 47.8127 20.8687C47.8127 19.1007 46.3794 17.6674 44.6113 17.6674C42.8433 17.6674 41.41 19.1007 41.41 20.8687C41.41 22.6368 42.8433 24.0701 44.6113 24.0701Z" fill="#FFAB66"/>
<path d="M47.8075 20.6866C46.5987 21.3116 45.2262 21.6653 43.7712 21.6653C42.9675 21.6653 42.1875 21.5578 41.4475 21.3541C41.4225 21.1953 41.41 21.0341 41.41 20.8691C41.41 19.1003 42.8437 17.6678 44.6112 17.6678C46.3187 17.6677 47.7125 19.0027 47.8075 20.6866Z" fill="#FF9D33"/>
<path d="M19.6034 24.0701C21.3715 24.0701 22.8048 22.6368 22.8048 20.8687C22.8048 19.1006 21.3715 17.6673 19.6034 17.6673C17.8353 17.6673 16.402 19.1006 16.402 20.8687C16.402 22.6368 17.8353 24.0701 19.6034 24.0701Z" fill="#FFAB66"/>
<path d="M32.1072 33.9144C38.4129 33.9144 43.5247 28.0736 43.5247 20.8686C43.5247 13.6636 38.4129 7.82272 32.1072 7.82272C25.8015 7.82272 20.6897 13.6636 20.6897 20.8686C20.6897 28.0736 25.8015 33.9144 32.1072 33.9144Z" fill="#FFC599"/>
<path d="M43.5247 20.8689C43.5247 21.1351 43.5172 21.3989 43.5035 21.6614C38.7685 21.5201 34.9722 17.6351 34.9722 12.8664C34.9722 11.3289 35.3672 9.88387 36.061 8.62637C40.4185 10.4639 43.5247 15.2514 43.5247 20.8689Z" fill="#FFAB66"/>
<path d="M24.5893 19.8922C24.4604 19.8922 24.3304 19.8526 24.2187 19.7701C23.9409 19.5651 23.8819 19.1739 24.0868 18.8961C24.1381 18.8266 24.6133 18.2045 25.5134 17.7469C26.3543 17.3194 27.7335 16.9633 29.5287 17.6951C29.8483 17.8254 30.0018 18.1901 29.8714 18.5099C29.7412 18.8295 29.3765 18.9829 29.0567 18.8526C26.4849 17.8043 25.1062 19.6199 25.0926 19.6384C24.9702 19.8044 24.7811 19.8922 24.5893 19.8922Z" fill="#FF8B00"/>
<path d="M39.6249 19.8923C39.7538 19.8923 39.8838 19.8527 39.9955 19.7702C40.2733 19.5652 40.3323 19.1739 40.1274 18.8962C40.0761 18.8267 39.6009 18.2045 38.7008 17.7469C37.8599 17.3194 36.4806 16.9633 34.6855 17.6952C34.3659 17.8254 34.2124 18.1902 34.3428 18.5099C34.473 18.8295 34.8376 18.9829 35.1575 18.8527C37.7293 17.8043 39.108 19.6199 39.1216 19.6384C39.244 19.8044 39.4331 19.8923 39.6249 19.8923Z" fill="#FF8B00"/>
<path d="M36.7136 6.66925H27.0447C22.7605 6.66925 19.2877 10.1421 19.2877 14.4262C19.2877 18.7104 28.3806 17.53 36.5405 11.7261C36.5405 11.7261 38.5051 14.5145 44.4706 15.2571V14.4262C44.4706 10.1422 40.9976 6.66925 36.7136 6.66925Z" fill="#FF8B00"/>
<path d="M12.9331 42.1042C12.7731 42.1042 12.6132 42.0432 12.4911 41.921L11.8706 41.3005L11.2501 41.921C11.0059 42.1652 10.6103 42.1652 10.3662 41.921C10.1221 41.677 10.1221 41.2813 10.3662 41.0373L11.4287 39.9748C11.6728 39.7307 12.0684 39.7307 12.3126 39.9748L13.3751 41.0373C13.6192 41.2813 13.6192 41.677 13.3751 41.921C13.2531 42.0432 13.0931 42.1042 12.9331 42.1042Z" fill="#FF4D4D"/>
<path d="M43.771 18.9115C48.6302 18.9115 52.5694 14.9723 52.5694 10.1131C52.5694 5.25389 48.6302 1.31473 43.771 1.31473C38.9118 1.31473 34.9727 5.25389 34.9727 10.1131C34.9727 14.9723 38.9118 18.9115 43.771 18.9115Z" fill="#FF4D4D"/>
<path d="M40.4817 35.103C40.1584 34.9825 39.7983 35.1467 39.6777 35.4702C39.5571 35.7937 39.7216 36.1536 40.0449 36.2742C42.9324 37.351 45.4031 39.256 47.1897 41.7835C49.0159 44.3671 49.9813 47.4111 49.9813 50.5867V57.6537C49.9813 57.9989 50.2612 58.2787 50.6063 58.2787C50.9514 58.2787 51.2313 57.9989 51.2313 57.6537V50.5867C51.2313 47.1513 50.1867 43.8577 48.2104 41.062C46.2781 38.3283 43.6056 36.2678 40.4817 35.103Z" fill="#0000CC"/>
<path d="M43.6976 24.5849C43.9948 24.6579 44.3006 24.6952 44.6113 24.6952C46.7212 24.6952 48.4377 22.9787 48.4377 20.8688C48.4377 20.0738 48.1872 19.3008 47.7344 18.6595C50.9553 17.1598 53.1944 13.8939 53.1944 10.1132C53.1944 4.91719 48.9672 0.689819 43.7711 0.689819C38.5751 0.689819 34.3477 4.91707 34.3477 10.1132C34.3477 10.8396 34.4331 11.5459 34.5893 12.2256C28.7011 15.5628 22.6886 14.6363 20.3498 14.0724C20.0142 13.9907 19.6766 14.1978 19.5957 14.5334C19.5148 14.8691 19.7212 15.2066 20.0567 15.2874C20.3342 15.3544 20.6612 15.4261 21.0306 15.4958C20.8262 16.0372 20.6538 16.5896 20.5141 17.1514C20.2177 17.0789 19.913 17.0422 19.6031 17.0422C19.1975 17.0422 18.8066 17.1062 18.4393 17.2237V16.4407C18.4393 8.90431 24.5706 2.77307 32.107 2.77307C32.7523 2.77307 33.4057 2.81944 34.0491 2.91107C34.3898 2.95994 34.7072 2.72194 34.7558 2.38032C34.8045 2.03869 34.5668 1.72207 34.2251 1.67357C33.5237 1.57382 32.8111 1.52319 32.107 1.52319C23.8813 1.52319 17.1893 8.21519 17.1893 16.4408V17.9023C16.328 18.6046 15.7766 19.6733 15.7766 20.8687C15.7766 22.9785 17.4931 24.695 19.603 24.695C19.9141 24.695 20.2196 24.6575 20.5166 24.5847C21.5108 28.5753 24.065 31.8297 27.3806 33.4419V34.2029C19.2701 35.248 12.9827 42.1961 12.9827 50.5865V57.6536C12.9827 57.9989 13.2626 58.2786 13.6077 58.2786C13.9529 58.2786 14.2327 57.9989 14.2327 57.6536V50.5866C14.2327 42.8833 19.9665 36.495 27.3902 35.4629C27.5397 37.9352 29.5976 39.901 32.1068 39.901C34.713 39.901 36.8331 37.7808 36.8331 35.1747V33.4422C40.1492 31.8298 42.7033 28.5755 43.6976 24.5849ZM47.1877 20.8687C47.1877 22.2893 46.0319 23.445 44.6113 23.445C44.3853 23.445 44.1641 23.4143 43.9493 23.3573C44.0807 22.55 44.1499 21.7184 44.1499 20.8687C44.1499 20.4218 44.1298 19.9729 44.0918 19.5283C44.9296 19.5001 45.7399 19.3634 46.5089 19.1296C46.9413 19.6023 47.1877 20.224 47.1877 20.8687ZM43.7711 1.93982C48.2779 1.93982 51.9444 5.60631 51.9444 10.1132C51.9444 14.6201 48.2778 18.2866 43.7711 18.2866C39.2643 18.2866 35.5977 14.6201 35.5977 10.1132C35.5977 5.60631 39.2643 1.93982 43.7711 1.93982ZM19.6035 23.4452C18.1828 23.4452 17.0271 22.2894 17.0271 20.8688C17.0271 19.4482 18.1828 18.2924 19.6035 18.2924C19.8288 18.2924 20.0493 18.3233 20.2635 18.3801C20.1321 19.1936 20.0648 20.0242 20.0648 20.8689C20.0648 21.7183 20.1341 22.5497 20.2652 23.3565C20.0506 23.4134 19.8297 23.4452 19.6035 23.4452ZM21.3148 20.8687C21.3148 19.0596 21.644 17.3211 22.2933 15.6956C23.1423 15.8053 24.122 15.8832 25.1981 15.8832C28.0225 15.8832 31.5012 15.3469 34.9607 13.4517C36.2052 16.7246 39.2216 19.1309 42.8329 19.4894C42.8767 19.9461 42.8998 20.4083 42.8998 20.8685C42.8998 27.7174 38.0583 33.2894 32.1073 33.2894C26.1563 33.2894 21.3148 27.7175 21.3148 20.8687ZM35.5836 35.1747C35.5836 37.0915 34.0241 38.651 32.1073 38.651C30.1906 38.651 28.6311 37.0915 28.6311 35.1747V33.9582C29.7322 34.3358 30.8991 34.5397 32.1073 34.5397C33.3156 34.5397 34.4825 34.3358 35.5836 33.9582V35.1747Z" fill="#0000CC"/>
<path d="M49.63 10.1139C48.3236 11.9373 46.187 13.1266 43.772 13.1266C41.357 13.1266 39.2187 11.9373 37.9125 10.1139C39.2188 8.28907 41.357 7.0997 43.772 7.0997C46.187 7.0997 48.3236 8.28895 49.63 10.1139Z" fill="white"/>
<path d="M43.7712 13.1264C45.4354 13.1264 46.7846 11.7773 46.7846 10.113C46.7846 8.4488 45.4354 7.09967 43.7712 7.09967C42.1069 7.09967 40.7578 8.4488 40.7578 10.113C40.7578 11.7773 42.1069 13.1264 43.7712 13.1264Z" fill="#4D4DFF"/>
<path d="M36.1723 23.5093C35.7387 23.5093 35.387 23.1578 35.387 22.724V22.12C35.387 21.6864 35.7385 21.3348 36.1723 21.3348C36.6059 21.3348 36.9575 21.6863 36.9575 22.12V22.724C36.9575 23.1578 36.6059 23.5093 36.1723 23.5093Z" fill="#6C6CFF"/>
<path d="M28.0423 23.5093C27.6087 23.5093 27.2571 23.1578 27.2571 22.7241V22.1201C27.2571 21.6864 27.6086 21.3348 28.0423 21.3348C28.476 21.3348 28.8276 21.6863 28.8276 22.1201V22.7241C28.8276 23.1578 28.476 23.5093 28.0423 23.5093Z" fill="#6C6CFF"/>
<path d="M32.107 26.9759C32.9064 26.9759 33.5545 27.6239 33.5545 28.4233V28.8878C33.5545 29.2329 33.2747 29.5128 32.9295 29.5128H31.2845C30.9394 29.5128 30.6595 29.2329 30.6595 28.8878V28.4233C30.6595 27.624 31.3077 26.9759 32.107 26.9759Z" fill="#FF6C6C"/>
<path d="M9.82686 47.8729C9.69798 47.8729 9.56898 47.8331 9.45948 47.7535L9.05436 47.4592L8.64923 47.7535C8.43023 47.9126 8.13361 47.9126 7.91448 47.7535C7.69548 47.5945 7.60373 47.3124 7.68748 47.0547L7.84223 46.5784L7.43711 46.284C7.21811 46.1249 7.12636 45.8427 7.21011 45.5852C7.29373 45.3276 7.53373 45.1534 7.80448 45.1534H8.30523L8.45998 44.677C8.54361 44.4194 8.78361 44.2451 9.05436 44.2451C9.32511 44.2451 9.56511 44.4195 9.64873 44.677L9.80348 45.1534H10.3042C10.575 45.1534 10.815 45.3277 10.8986 45.5852C10.9822 45.8427 10.8906 46.1247 10.6716 46.284L10.2665 46.5784L10.4212 47.0547C10.5049 47.3124 10.4132 47.5944 10.1942 47.7535C10.0846 47.833 9.95573 47.8729 9.82686 47.8729Z" fill="#FF9D33"/>
<path d="M54.6945 18.8236C54.5345 18.8236 54.3746 18.7626 54.2525 18.6405L53.632 18.02L53.0115 18.6405C52.7674 18.8846 52.3717 18.8846 52.1276 18.6405C51.8835 18.3965 51.8835 18.0007 52.1276 17.7567L53.1901 16.6942C53.4342 16.4501 53.8299 16.4501 54.074 16.6942L55.1365 17.7567C55.3806 18.0007 55.3806 18.3965 55.1365 18.6405C55.0144 18.7626 54.8545 18.8236 54.6945 18.8236Z" fill="#FF4D4D"/>
<path d="M52.8449 23.5917C52.6849 23.5917 52.525 23.5307 52.4029 23.4086L51.7824 22.7881L51.1619 23.4086C50.9178 23.6527 50.5221 23.6527 50.278 23.4086C50.0339 23.1646 50.0339 22.7689 50.278 22.5249L51.3405 21.4624C51.5846 21.2182 51.9803 21.2182 52.2244 21.4624L53.2869 22.5249C53.531 22.7689 53.531 23.1646 53.2869 23.4086C53.1648 23.5306 53.0049 23.5917 52.8449 23.5917Z" fill="#4D4DFF"/>
<path d="M55.4671 44.4131C55.3382 44.4131 55.2092 44.3733 55.0997 44.2937L54.6946 43.9995L54.2894 44.2937C54.0704 44.4528 53.7738 44.4528 53.5547 44.2937C53.3357 44.1347 53.2439 43.8526 53.3277 43.595L53.4824 43.1186L53.0773 42.8242C52.8583 42.6651 52.7666 42.383 52.8503 42.1255C52.9339 41.8678 53.1739 41.6936 53.4447 41.6936H53.9454L54.1002 41.2172C54.1838 40.9596 54.4238 40.7853 54.6946 40.7853C54.9653 40.7853 55.2053 40.9597 55.2889 41.2172L55.4437 41.6936H55.9444C56.2152 41.6936 56.4552 41.868 56.5388 42.1255C56.6224 42.383 56.5308 42.665 56.3118 42.8242L55.9067 43.1186L56.0614 43.595C56.1451 43.8526 56.0534 44.1346 55.8344 44.2937C55.7249 44.3732 55.5961 44.4131 55.4671 44.4131Z" fill="#4D4DFF"/>
<defs>
<linearGradient id="paint0_linear_1_2850" x1="18.0186" y1="-3.04557" x2="44.4749" y2="67.263" gradientUnits="userSpaceOnUse">
<stop stop-color="#FFD9D9" stop-opacity="0"/>
<stop offset="0.9981" stop-color="#FFB3B3"/>
</linearGradient>
</defs>
</svg>
