<svg width="17" height="17" viewBox="0 0 17 17" fill="none" xmlns="http://www.w3.org/2000/svg">
<path d="M9.09639 9.06058L15.5861 9.06041C16.0084 9.06051 16.3496 8.71924 16.3495 8.297C16.3495 7.87486 16.0083 7.5336 15.5861 7.5336L9.09631 7.53367L9.09648 1.04394C9.09638 0.621705 8.75522 0.280539 8.33308 0.280544C7.91084 0.280449 7.56957 0.621721 7.56967 1.04396L7.5695 7.53369L1.07977 7.53385C0.657534 7.53376 0.316262 7.87503 0.316357 8.29727C0.316256 8.50774 0.40167 8.69894 0.539876 8.83714C0.678082 8.97535 0.86918 9.06066 1.07975 9.06066L7.56948 9.0605L7.56942 15.5503C7.56941 15.7609 7.65473 15.952 7.79294 16.0902C7.93114 16.2284 8.12224 16.3137 8.33281 16.3137C8.75505 16.3138 9.09632 15.9725 9.09623 15.5503L9.09639 9.06058Z" fill="white"/>
</svg>
