<svg width="31" height="39" viewBox="0 0 31 39" fill="none" xmlns="http://www.w3.org/2000/svg">
<path d="M27.8802 10.269C29.0947 10.269 30.0791 9.28453 30.0791 8.07009C30.0791 6.85565 29.0947 5.87115 27.8802 5.87115C26.6658 5.87115 25.6813 6.85565 25.6813 8.07009C25.6813 9.28453 26.6658 10.269 27.8802 10.269Z" fill="#15175A"/>
<path d="M22.0164 5.87114C23.2308 5.87114 24.2153 4.88664 24.2153 3.6722C24.2153 2.45776 23.2308 1.47327 22.0164 1.47327C20.8019 1.47327 19.8174 2.45776 19.8174 3.6722C19.8174 4.88664 20.8019 5.87114 22.0164 5.87114Z" fill="#15175A"/>
<path d="M16.1525 4.40508C17.367 4.40508 18.3515 3.42058 18.3515 2.20614C18.3515 0.9917 17.367 0.00720215 16.1525 0.00720215C14.9381 0.00720215 13.9536 0.9917 13.9536 2.20614C13.9536 3.42058 14.9381 4.40508 16.1525 4.40508Z" fill="#15175A"/>
<path d="M10.2888 7.3369C11.5032 7.3369 12.4877 6.3524 12.4877 5.13796C12.4877 3.92352 11.5032 2.93903 10.2888 2.93903C9.07434 2.93903 8.08984 3.92352 8.08984 5.13796C8.08984 6.3524 9.07434 7.3369 10.2888 7.3369Z" fill="#15175A"/>
<path d="M25.6812 8.07001V17.5987C25.6812 18.0033 25.3529 18.3317 24.9482 18.3317C24.5436 18.3317 24.2153 18.0033 24.2153 17.5987V3.67213H19.8174V16.1328C19.8174 16.5374 19.489 16.8658 19.0844 16.8658C18.6798 16.8658 18.3514 16.5374 18.3514 16.1328V2.20618H13.9536V16.1328C13.9536 16.5374 13.6252 16.8658 13.2206 16.8658C12.816 16.8658 12.4876 16.5374 12.4876 16.1328V5.13809H8.08974V23.4626L5.12117 19.4004C4.2416 18.0444 2.52496 17.5899 1.26717 18.3669C0.0137779 19.1614 -0.297005 20.8942 0.570842 22.2458C0.570842 22.2458 5.35866 29.492 7.39927 32.594C9.43989 35.696 12.7456 38.1221 18.9276 38.1221C29.1629 38.1221 30.0791 30.2177 30.0791 27.8604C30.0791 25.5032 30.0791 8.07001 30.0791 8.07001H25.6812Z" fill="#15175A"/>
</svg>
