<svg width="33" height="41" viewBox="0 0 33 41" fill="none" xmlns="http://www.w3.org/2000/svg">
<path d="M14.2937 6.51036C14.2937 5.29652 13.3097 4.3125 12.0958 4.3125C10.882 4.3125 9.89795 5.29652 9.89795 6.51036" stroke="#15175A" stroke-width="2"/>
<path d="M20.1545 3.60289C20.1545 2.38905 19.1705 1.40503 17.9567 1.40503C16.7428 1.40503 15.7588 2.38905 15.7588 3.60289" stroke="#15175A" stroke-width="2"/>
<path d="M26.0232 5.01476C26.0232 3.80091 25.0391 2.81689 23.8253 2.81689C22.6115 2.81689 21.6274 3.80091 21.6274 5.01476" stroke="#15175A" stroke-width="2"/>
<path d="M31.886 9.43028C31.886 8.21644 30.9019 7.23242 29.6881 7.23242C28.4743 7.23242 27.4902 8.21644 27.4902 9.43028" stroke="#15175A" stroke-width="2"/>
<path d="M27.4881 9.37946V18.9082C27.4881 19.3128 27.1597 19.6412 26.7551 19.6412C26.3505 19.6412 26.0222 19.3128 26.0222 18.9082V4.98158M21.6243 4.98158V17.4422C21.6243 17.8468 21.2959 18.1752 20.8913 18.1752C20.4867 18.1752 20.1583 17.8468 20.1583 17.4422V3.51562M15.7605 3.51562V17.4422C15.7605 17.8468 15.4321 18.1752 15.0275 18.1752C14.6229 18.1752 14.2945 17.8468 14.2945 17.4422V6.44754M9.89662 6.44754V24.772L6.92806 20.7098C6.04848 19.3538 4.33185 18.8994 3.07406 19.6763C1.82066 20.4709 1.50988 22.2037 2.37773 23.5553C2.37773 23.5553 7.16554 30.8015 9.20616 33.9035C11.2468 37.0054 14.5525 39.4316 20.7344 39.4316C30.9698 39.4316 31.886 31.5271 31.886 29.1699C31.886 26.8126 31.886 9.37946 31.886 9.37946" stroke="#15175A" stroke-width="2"/>
</svg>
