<svg width="16" height="29" viewBox="0 0 16 29" fill="none" xmlns="http://www.w3.org/2000/svg">
<path d="M8.63867 1.79749C8.63867 1.2452 8.19096 0.797485 7.63867 0.797485C7.08639 0.797485 6.63867 1.2452 6.63867 1.79749L8.63867 1.79749ZM6.93156 27.9971C7.32209 28.3876 7.95525 28.3876 8.34578 27.9971L14.7097 21.6331C15.1003 21.2426 15.1003 20.6095 14.7097 20.2189C14.3192 19.8284 13.686 19.8284 13.2955 20.2189L7.63867 25.8758L1.98182 20.2189C1.59129 19.8284 0.958128 19.8284 0.567603 20.2189C0.177079 20.6095 0.177079 21.2426 0.567603 21.6331L6.93156 27.9971ZM6.63867 1.79749L6.63867 27.29L8.63867 27.29L8.63867 1.79749L6.63867 1.79749Z" fill="white"/>
</svg>
