<svg width="35" height="35" viewBox="0 0 35 35" fill="none" xmlns="http://www.w3.org/2000/svg">
<path d="M30.8152 8.36959H27.163L25.1467 5.32612C24.3859 4.18481 23.0543 3.50003 21.6848 3.50003H13.3152C11.9457 3.50003 10.6141 4.18481 9.85326 5.32612L7.83696 8.36959H4.18478C1.86413 8.36959 0 10.2337 0 12.5544V27.3152C0 29.6359 1.86413 31.5 4.18478 31.5H30.8152C33.1359 31.5 35 29.6359 35 27.3152V12.5544C35 10.2337 33.1359 8.36959 30.8152 8.36959ZM17.5 28.0761C12.288 28.0761 8.06522 23.8533 8.06522 18.6413C8.06522 13.4294 12.288 9.24459 17.5 9.24459C22.712 9.24459 26.9348 13.4674 26.9348 18.6794C26.9348 23.8533 22.712 28.0761 17.5 28.0761ZM30.2826 14.2663C30.2446 14.2663 30.2065 14.2663 30.1304 14.2663H28.6087C27.9239 14.2283 27.3913 13.6576 27.4293 12.9729C27.4674 12.3261 27.962 11.8316 28.6087 11.7935H30.1304C30.8152 11.7555 31.3859 12.2881 31.4239 12.9729C31.462 13.6576 30.9674 14.2283 30.2826 14.2663Z" fill="white"/>
<path d="M17.5001 13.4294C14.6088 13.4294 12.2501 15.7881 12.2501 18.6794C12.2501 21.5707 14.6088 23.8913 17.5001 23.8913C20.3914 23.8913 22.7501 21.5326 22.7501 18.6413C22.7501 15.75 20.3914 13.4294 17.5001 13.4294Z" fill="white"/>
</svg>
