<svg width="27" height="28" viewBox="0 0 27 28" fill="none" xmlns="http://www.w3.org/2000/svg">
<path d="M15.9726 14.0002L26.4859 3.4864C27.1701 2.80252 27.1701 1.69679 26.4859 1.01291C25.802 0.32903 24.6963 0.32903 24.0124 1.01291L13.4989 11.5267L2.98561 1.01291C2.30142 0.32903 1.19603 0.32903 0.512162 1.01291C-0.172023 1.69679 -0.172023 2.80252 0.512162 3.4864L11.0254 14.0002L0.512162 24.514C-0.172023 25.1979 -0.172023 26.3036 0.512162 26.9875C0.852973 27.3286 1.30109 27.5 1.74888 27.5C2.19668 27.5 2.64447 27.3286 2.98561 26.9875L13.4989 16.4737L24.0124 26.9875C24.3536 27.3286 24.8014 27.5 25.2492 27.5C25.697 27.5 26.1447 27.3286 26.4859 26.9875C27.1701 26.3036 27.1701 25.1979 26.4859 24.514L15.9726 14.0002Z" fill="white"/>
</svg>
