<svg width="17" height="17" viewBox="0 0 17 17" fill="none" xmlns="http://www.w3.org/2000/svg">
<path d="M8.58716 0.106445C13.0085 0.106445 16.5872 3.68445 16.5872 8.10645C16.5872 9.50964 16.2212 10.8801 15.5262 12.0889L16.557 15.2898C16.6289 15.5129 16.5698 15.7576 16.4041 15.9233C16.2399 16.0875 15.9958 16.1488 15.7705 16.0763L12.5696 15.0455C11.3608 15.7405 9.99036 16.1064 8.58716 16.1064C4.16577 16.1064 0.587158 12.5284 0.587158 8.10645C0.587158 3.68506 4.16516 0.106445 8.58716 0.106445ZM8.58716 14.8564C9.85461 14.8564 11.0901 14.5028 12.16 13.8337C12.314 13.7375 12.5051 13.7115 12.683 13.7688L14.9937 14.5129L14.2495 12.2023C14.1931 12.027 14.2169 11.8356 14.3146 11.6793C14.9835 10.6094 15.3372 9.3739 15.3372 8.10645C15.3372 4.38452 12.3091 1.35645 8.58716 1.35645C4.86523 1.35645 1.83716 4.38452 1.83716 8.10645C1.83716 11.8284 4.86523 14.8564 8.58716 14.8564ZM7.80591 8.10645C7.80591 8.53784 8.15564 8.8877 8.58716 8.8877C9.01868 8.8877 9.36841 8.53784 9.36841 8.10645C9.36841 7.67493 9.01868 7.3252 8.58716 7.3252C8.15564 7.3252 7.80591 7.67493 7.80591 8.10645ZM4.68091 8.10645C4.68091 8.53784 5.03064 8.8877 5.46216 8.8877C5.89368 8.8877 6.24341 8.53784 6.24341 8.10645C6.24341 7.67493 5.89368 7.3252 5.46216 7.3252C5.03064 7.3252 4.68091 7.67493 4.68091 8.10645ZM10.9309 8.10645C10.9309 8.53784 11.2806 8.8877 11.7122 8.8877C12.1436 8.8877 12.4934 8.53784 12.4934 8.10645C12.4934 7.67493 12.1436 7.3252 11.7122 7.3252C11.2806 7.3252 10.9309 7.67493 10.9309 8.10645Z" fill="black"/>
</svg>
