<svg width="20" height="20" viewBox="0 0 20 20" fill="none" xmlns="http://www.w3.org/2000/svg">
<path d="M15.512 10.116C15.0678 10.116 14.7087 10.476 14.7087 10.9194V17.3467C14.7087 17.7894 14.3487 18.1501 13.9053 18.1501H2.65746C2.21393 18.1501 1.8541 17.7894 1.8541 17.3467V6.09891C1.8541 5.65626 2.21393 5.29554 2.65746 5.29554H9.08482C9.52909 5.29554 9.88818 4.93557 9.88818 4.49218C9.88818 4.04864 9.52909 3.68867 9.08482 3.68867H2.65746C1.32862 3.68867 0.247223 4.77007 0.247223 6.09891V17.3467C0.247223 18.6756 1.32862 19.757 2.65746 19.757H13.9053C15.2341 19.757 16.3155 18.6756 16.3155 17.3467V10.9194C16.3155 10.4751 15.9563 10.116 15.512 10.116Z" fill="white"/>
<path d="M7.77996 9.38415C7.72377 9.44035 7.68596 9.51184 7.66993 9.58893L7.10194 12.4299C7.07546 12.5616 7.11724 12.6974 7.21197 12.793C7.28832 12.8693 7.39115 12.9102 7.49648 12.9102C7.52208 12.9102 7.54871 12.9079 7.57519 12.9023L10.4153 12.3343C10.494 12.3181 10.5655 12.2804 10.6209 12.2241L16.9775 5.8675L14.1374 3.02756L7.77996 9.38415Z" fill="white"/>
<path d="M18.941 1.0632C18.1578 0.279846 16.8835 0.279846 16.1009 1.0632L14.9891 2.17506L17.8292 5.01515L18.941 3.90315C19.3203 3.52478 19.5291 3.0202 19.5291 2.48354C19.5291 1.94689 19.3203 1.4423 18.941 1.0632Z" fill="white"/>
</svg>
