<svg width="26" height="26" viewBox="0 0 26 26" fill="none" xmlns="http://www.w3.org/2000/svg">
<path d="M12.6338 8.43272V11.6948H14.1009V8.43272C14.7811 8.1456 15.2596 7.47193 15.2596 6.68851C15.2596 5.64511 14.4107 4.79626 13.3673 4.79626C12.3239 4.79626 11.4751 5.64511 11.4751 6.68851C11.4751 7.47188 11.9537 8.1456 12.6338 8.43272Z" fill="white"/>
<path d="M0.520508 13.1619V25.7469H25.5356V13.1619H0.520508ZM7.6691 22.6786H4.45039V16.2138H5.91755V21.2115H7.66905V22.6786H7.6691ZM10.6125 22.6359H9.14531V16.1668H10.6125V22.6359ZM14.9759 22.5331H13.7025L11.5017 16.1573H13.0525L14.3245 19.8399L15.5472 16.1573H17.1278L14.9759 22.5331ZM21.6057 17.6568H19.5173V18.6678H21.4517V20.1349H19.5173V21.1459H21.6057V22.6131H18.0501V16.1896H21.6057V17.6568H21.6057Z" fill="white"/>
<path d="M15.7573 9.7132L16.7948 10.7506L17.3134 10.2319C19.2673 8.27803 19.2673 5.09889 17.3134 3.14502L16.7948 2.62628L15.7573 3.66371L16.276 4.18245C17.6578 5.56427 17.6578 7.81265 16.276 9.19447L15.7573 9.7132Z" fill="white"/>
<path d="M9.42136 10.2319L9.94005 10.7506L10.9775 9.71317L10.4588 9.19448C9.78937 8.52506 9.42077 7.63513 9.42077 6.68847C9.42077 5.74186 9.78937 4.85183 10.4588 4.18246L10.9775 3.66377L9.94005 2.62634L9.42136 3.14508C8.47485 4.0916 7.95361 5.34998 7.95361 6.68852C7.95361 8.02696 8.47485 9.28539 9.42136 10.2319Z" fill="white"/>
<path d="M18.6711 11.0889L18.1524 11.6076L19.1898 12.6451L19.7085 12.1264C22.7069 9.12787 22.7069 4.24897 19.7085 1.25049L19.1898 0.73175L18.1523 1.76918L18.671 2.28787C21.0975 4.71441 21.0975 8.66249 18.6711 11.0889Z" fill="white"/>
<path d="M7.54539 12.6451L8.58282 11.6077L8.06408 11.0889C6.88869 9.91348 6.24133 8.35071 6.24133 6.68842C6.24133 5.02613 6.88869 3.46336 8.06408 2.28792L8.58277 1.76923L7.54539 0.73175L7.0267 1.25049C5.57411 2.70303 4.77417 4.63425 4.77417 6.68842C4.77417 8.74259 5.57411 10.6738 7.0267 12.1264L7.54539 12.6451Z" fill="white"/>
</svg>
