<svg width="34" height="39" viewBox="0 0 34 39" fill="none" xmlns="http://www.w3.org/2000/svg">
<path d="M33.28 14.9125L17.3987 0.354673C16.8813 -0.118712 16.0855 -0.107174 15.5826 0.380728L0.58356 14.9385C0.326805 15.1877 0.181641 15.5305 0.181641 15.8882V36.7986C0.181641 37.5295 0.774061 38.122 1.50509 38.122H12.5337C13.2647 38.122 13.8572 37.5295 13.8572 36.7986V27.0934H20.0332V36.7986C20.0332 37.5295 20.6256 38.122 21.3567 38.122H32.3853C33.1163 38.122 33.7088 37.53 33.7088 36.7986V15.8883C33.7088 15.5173 33.5535 15.1635 33.28 14.9125ZM31.0619 35.4752H22.6801V25.77C22.6801 25.039 22.0876 24.4465 21.3567 24.4465H12.5338C11.8028 24.4465 11.2103 25.039 11.2103 25.77V35.4752H2.82855V16.4481L16.5301 3.1498L31.0619 16.4706V35.4752H31.0619Z" fill="#15175A"/>
</svg>
