<svg width="31" height="31" viewBox="0 0 31 31" fill="none" xmlns="http://www.w3.org/2000/svg">
<path d="M30.5676 9.49606C30.4973 7.90115 30.2394 6.80466 29.8699 5.85454C29.4887 4.84601 28.9024 3.94308 28.1341 3.19246C27.3835 2.43017 26.4746 1.83783 25.4778 1.46264C24.5221 1.09317 23.4314 0.835253 21.8365 0.764933C20.2296 0.688658 19.7195 0.671021 15.6442 0.671021C11.5688 0.671021 11.0587 0.688658 9.45786 0.758978C7.86294 0.829298 6.76646 1.08744 5.81656 1.45668C4.8078 1.83783 3.90487 2.42421 3.15425 3.19246C2.39196 3.94308 1.79985 4.85197 1.42443 5.84882C1.05496 6.80466 0.797045 7.8952 0.726725 9.49011C0.65045 11.0969 0.632812 11.607 0.632812 15.6824C0.632812 19.7577 0.65045 20.2678 0.72077 21.8687C0.79109 23.4636 1.04923 24.5601 1.4187 25.5102C1.79985 26.5188 2.39196 27.4217 3.15425 28.1723C3.90487 28.9346 4.81376 29.5269 5.81061 29.9021C6.76646 30.2716 7.85699 30.5295 9.45213 30.5998C11.0528 30.6704 11.5631 30.6878 15.6385 30.6878C19.7138 30.6878 20.2239 30.6704 21.8248 30.5998C23.4197 30.5295 24.5162 30.2716 25.4661 29.9021C27.4834 29.1222 29.0783 27.5273 29.8582 25.5102C30.2274 24.5544 30.4856 23.4636 30.5559 21.8687C30.6262 20.2678 30.6439 19.7577 30.6439 15.6824C30.6439 11.607 30.6379 11.0969 30.5676 9.49606ZM27.8645 21.7514C27.7999 23.2174 27.5537 24.009 27.3484 24.5367C26.8441 25.8444 25.8062 26.8823 24.4985 27.3867C23.9708 27.5919 23.1735 27.8381 21.7132 27.9025C20.13 27.973 19.6552 27.9904 15.6501 27.9904C11.6451 27.9904 11.1643 27.973 9.58681 27.9025C8.12086 27.8381 7.32924 27.5919 6.8015 27.3867C6.15075 27.1461 5.55842 26.765 5.07763 26.2666C4.57921 25.7798 4.19806 25.1935 3.95755 24.5427C3.75232 24.015 3.50608 23.2174 3.44172 21.7574C3.37117 20.1742 3.35376 19.6991 3.35376 15.6941C3.35376 11.689 3.37117 11.2083 3.44172 9.63098C3.50608 8.16502 3.75232 7.37341 3.95755 6.84566C4.19806 6.19469 4.57921 5.60258 5.08359 5.12156C5.5701 4.62314 6.15648 4.24199 6.80746 4.00171C7.3352 3.79648 8.13277 3.55025 9.59277 3.48565C11.176 3.41533 11.6511 3.39769 15.6559 3.39769C19.6668 3.39769 20.1417 3.41533 21.7192 3.48565C23.1851 3.55025 23.9768 3.79648 24.5045 4.00171C25.1552 4.24199 25.7476 4.62314 26.2284 5.12156C26.7268 5.60831 27.1079 6.19469 27.3484 6.84566C27.5537 7.37341 27.7999 8.17075 27.8645 9.63098C27.9348 11.2142 27.9525 11.689 27.9525 15.6941C27.9525 19.6991 27.9348 20.1682 27.8645 21.7514Z" fill="white"/>
<path d="M15.6445 7.97132C11.3875 7.97132 7.93359 11.425 7.93359 15.6822C7.93359 19.9395 11.3875 23.3932 15.6445 23.3932C19.9017 23.3932 23.3554 19.9395 23.3554 15.6822C23.3554 11.425 19.9017 7.97132 15.6445 7.97132ZM15.6445 20.6841C12.8828 20.6841 10.6426 18.4442 10.6426 15.6822C10.6426 12.9203 12.8828 10.6804 15.6445 10.6804C18.4065 10.6804 20.6464 12.9203 20.6464 15.6822C20.6464 18.4442 18.4065 20.6841 15.6445 20.6841Z" fill="white"/>
<path d="M25.4592 7.66665C25.4592 8.66075 24.6531 9.4668 23.6588 9.4668C22.6647 9.4668 21.8586 8.66075 21.8586 7.66665C21.8586 6.67232 22.6647 5.86651 23.6588 5.86651C24.6531 5.86651 25.4592 6.67232 25.4592 7.66665Z" fill="white"/>
</svg>
