<svg width="22" height="22" viewBox="0 0 22 22" fill="none" xmlns="http://www.w3.org/2000/svg">
<path d="M14.5664 7.76416C14.5664 8.21496 14.201 8.58016 13.7503 8.58016H12.1183V10.2123C12.1183 10.663 11.753 11.0283 11.3023 11.0283C10.8515 11.0283 10.4863 10.663 10.4863 10.2123V8.58016H8.85417C8.40352 8.58016 8.03816 8.21496 8.03816 7.76416C8.03816 7.31352 8.40352 6.94816 8.85417 6.94816H10.4863V5.31615C10.4863 4.8655 10.8515 4.50014 11.3023 4.50014C11.753 4.50014 12.1183 4.8655 12.1183 5.31615V6.94816H13.7503C14.201 6.94816 14.5664 7.31352 14.5664 7.76416ZM20.1561 14.374V9.74862L13.0667 14.157C12.5352 14.4875 11.9392 14.6528 11.3431 14.6528C10.7471 14.6528 10.1511 14.4875 9.61948 14.157L2.53002 9.74862V18.4541C2.53002 19.354 3.26217 20.0862 4.16203 20.0862H18.5241C19.424 20.0862 20.1561 19.354 20.1561 18.4541C20.1561 18.0033 20.5215 17.6381 20.9721 17.6381C21.4228 17.6381 21.7881 18.0033 21.7881 18.4541C21.7881 20.2538 20.324 21.7182 18.5241 21.7182H4.16203C2.36232 21.7182 0.89801 20.2538 0.89801 18.4541V8.68585C0.89801 7.56697 1.46072 6.53912 2.40329 5.93608L9.61071 1.32587C9.61358 1.32396 9.61645 1.32205 9.61948 1.32014C10.6826 0.659076 12.0036 0.659076 13.0667 1.32014C13.0698 1.32205 13.0729 1.32396 13.0759 1.32603L20.2843 5.94182C21.2259 6.54486 21.7881 7.57239 21.7881 8.69047V14.374C21.7881 14.8246 21.4228 15.19 20.9721 15.19C20.5215 15.19 20.1561 14.8246 20.1561 14.374ZM19.9736 7.94015C19.8443 7.69004 19.6505 7.47388 19.4042 7.31623L12.2008 2.70363C11.6712 2.37637 11.0148 2.37637 10.4852 2.70379L3.28274 7.31097C3.03486 7.46958 2.84022 7.68717 2.71063 7.93903L10.4812 12.771C11.0129 13.1014 11.6733 13.1014 12.2049 12.771L19.9736 7.94015Z" fill="white"/>
</svg>
