<svg width="37" height="47" viewBox="0 0 37 47" fill="none" xmlns="http://www.w3.org/2000/svg">
<path d="M4.69259 28.0804C4.69259 35.6199 10.8613 41.7886 18.4008 41.7886C25.9403 41.7886 32.1091 35.6199 32.1091 28.0804C32.1091 20.5409 25.9403 14.3722 18.4008 14.3722V23.511L6.97729 12.0875L18.4008 0.66394V9.80276C28.4535 9.80276 36.6785 18.0277 36.6785 28.0804C36.6785 38.1331 28.4535 46.3581 18.4008 46.3581C8.34812 46.3581 0.123177 38.1331 0.123177 28.0804H4.69259Z" fill="white"/>
<path d="M15.7731 34.9345V25.1102H15.5446L11.5464 26.5953V28.1946L13.8311 27.5092V34.9345H15.7731Z" fill="white"/>
<path d="M23.5413 25.3387C23.0844 25.2245 22.7417 25.1102 22.1705 25.1102C21.5993 25.1102 21.1424 25.1102 20.7997 25.3387C20.457 25.5672 20.1143 25.7956 19.7715 26.1383C19.4288 26.4811 19.2004 26.938 19.0861 27.3949C18.9719 27.8519 18.8577 28.5373 18.8577 29.2227V30.9362C18.8577 31.6216 18.9719 32.3071 19.0861 32.764C19.2004 33.2209 19.5431 33.6779 19.7715 34.0206C20 34.3633 20.3427 34.706 20.7997 34.8202C21.2566 34.9345 21.5993 35.0487 22.1705 35.0487C22.7417 35.0487 23.1986 35.0487 23.5413 34.8202C23.884 34.5918 24.2267 34.3633 24.5694 34.0206C24.9121 33.6779 25.1406 33.2209 25.2548 32.764C25.3691 32.3071 25.4833 31.6216 25.4833 30.9362V29.2227C25.4833 28.5373 25.3691 27.8519 25.2548 27.3949C25.1406 26.938 24.7979 26.4811 24.5694 26.1383C24.341 25.7956 23.9983 25.4529 23.5413 25.3387ZM23.5413 31.1647C23.5413 31.6216 23.4271 32.0786 23.4271 32.3071C23.4271 32.5355 23.3128 32.8782 23.1986 32.9925C23.0844 33.1067 22.8559 33.2209 22.7417 33.3352C22.6274 33.4494 22.399 33.4494 22.1705 33.4494C21.942 33.4494 21.8278 33.3352 21.5993 33.3352C21.3708 33.3352 21.2566 33.1067 21.1424 32.9925C21.0281 32.8782 21.0281 32.6498 20.9139 32.3071C20.7997 31.9643 20.7997 31.6216 20.7997 31.1647V28.9942C20.7997 28.5373 20.9139 28.0803 20.9139 27.8519C20.9139 27.6234 21.0281 27.2807 21.1424 27.1665C21.2566 27.0522 21.4851 26.938 21.5993 26.8238C21.7135 26.7095 21.942 26.7095 22.1705 26.7095C22.399 26.7095 22.5132 26.8238 22.7417 26.8238C22.9701 26.8238 23.0844 27.0522 23.1986 27.1665C23.3128 27.2807 23.3128 27.5092 23.4271 27.8519C23.5413 28.1946 23.5413 28.5373 23.5413 28.9942V31.1647Z" fill="white"/>
</svg>
