<svg width="19" height="18" viewBox="0 0 19 18" fill="none" xmlns="http://www.w3.org/2000/svg">
<path d="M17.1278 2.54856C16.2165 1.51456 14.9523 0.945129 13.5682 0.945129C11.6214 0.945129 10.3889 2.10781 9.69782 3.0832C9.51851 3.3363 9.36597 3.59009 9.23791 3.82891C9.10984 3.59009 8.95734 3.3363 8.778 3.0832C8.08688 2.10781 6.85438 0.945129 4.90764 0.945129C3.52347 0.945129 2.25928 1.5146 1.34798 2.54859C0.478747 3.53495 0 4.85597 0 6.26829C0 7.80565 0.600211 9.23554 1.8889 10.7682C3.04064 12.138 4.69758 13.5499 6.61629 15.1849C7.33125 15.7942 8.07061 16.4243 8.85774 17.1129L8.88138 17.1337C8.98343 17.223 9.11067 17.2676 9.23791 17.2676C9.36514 17.2676 9.49238 17.223 9.59443 17.1337L9.61807 17.1129C10.4052 16.4243 11.1446 15.7942 11.8596 15.1849C13.7782 13.55 15.4352 12.138 16.5869 10.7682C17.8756 9.2355 18.4758 7.80565 18.4758 6.26829C18.4758 4.85597 17.9971 3.53495 17.1278 2.54856ZM11.1574 14.361C10.5411 14.8861 9.90675 15.4267 9.23791 16.0081C8.5691 15.4267 7.93475 14.8862 7.3183 14.3609C3.56327 11.1611 1.08257 9.04713 1.08257 6.26829C1.08257 5.11969 1.46525 4.05285 2.16015 3.26435C2.86303 2.46689 3.83875 2.0277 4.90764 2.0277C6.3918 2.0277 7.35121 2.94203 7.89466 3.70907C8.38214 4.397 8.6365 5.0905 8.72325 5.3567C8.79582 5.57953 9.00357 5.73033 9.23791 5.73033C9.47225 5.73033 9.67999 5.57953 9.75256 5.3567C9.83931 5.0905 10.0937 4.397 10.5812 3.70903C11.1246 2.94203 12.084 2.0277 13.5682 2.0277C14.6371 2.0277 15.6128 2.46689 16.3156 3.26435C17.0106 4.05285 17.3932 5.11969 17.3932 6.26829C17.3932 9.04713 14.9125 11.1611 11.1574 14.361Z" fill="black"/>
</svg>
