<svg width="22" height="30" viewBox="0 0 22 30" fill="none" xmlns="http://www.w3.org/2000/svg">
<path d="M11 0C5.18152 0 0.453125 4.72852 0.453125 10.5469C0.453125 12.5156 0.998164 14.4317 2.03521 16.084L10.285 29.5849C10.4258 29.8134 10.6367 29.9541 10.8829 29.9892C11.2167 30.0419 11.5861 29.9013 11.7794 29.5673L20.0528 15.9434C21.0371 14.3262 21.5469 12.4454 21.5469 10.5469C21.5469 4.72852 16.8185 0 11 0ZM11 15.8203C8.04699 15.8203 5.72656 13.4297 5.72656 10.5469C5.72656 7.64643 8.09955 5.27344 11 5.27344C13.9004 5.27344 16.2734 7.64643 16.2734 10.5469C16.2734 13.4121 13.9882 15.8203 11 15.8203Z" fill="white"/>
</svg>
