<svg width="20" height="27" viewBox="0 0 20 27" fill="none" xmlns="http://www.w3.org/2000/svg">
<path d="M16.9791 26.7462H2.49171C1.16102 26.7462 0.0771484 25.6634 0.0771484 24.3317V13.0637C0.0771484 11.732 1.16102 10.6492 2.49171 10.6492H16.9791C18.3098 10.6492 19.3936 11.732 19.3936 13.0637V24.3317C19.3936 25.6634 18.3098 26.7462 16.9791 26.7462ZM2.49171 12.2589C2.0485 12.2589 1.68686 12.6194 1.68686 13.0637V24.3317C1.68686 24.7759 2.0485 25.1365 2.49171 25.1365H16.9791C17.4223 25.1365 17.7839 24.7759 17.7839 24.3317V13.0637C17.7839 12.6194 17.4223 12.2589 16.9791 12.2589H2.49171Z" fill="#15175A"/>
<path d="M15.3694 12.2589C14.9252 12.2589 14.5646 11.8983 14.5646 11.454V7.42974C14.5646 4.76728 12.3979 2.60061 9.73546 2.60061C7.073 2.60061 4.90634 4.76728 4.90634 7.42974V11.454C4.90634 11.8983 4.54576 12.2589 4.10148 12.2589C3.65721 12.2589 3.29663 11.8983 3.29663 11.454V7.42974C3.29663 3.87872 6.18445 0.990906 9.73546 0.990906C13.2865 0.990906 16.1743 3.87872 16.1743 7.42974V11.454C16.1743 11.8983 15.8137 12.2589 15.3694 12.2589Z" fill="#15175A"/>
<path d="M9.73539 19.2343C8.55172 19.2343 7.58911 18.2717 7.58911 17.088C7.58911 15.9043 8.55172 14.9417 9.73539 14.9417C10.9191 14.9417 11.8817 15.9043 11.8817 17.088C11.8817 18.2717 10.9191 19.2343 9.73539 19.2343ZM9.73539 16.5514C9.44027 16.5514 9.19882 16.7918 9.19882 17.088C9.19882 17.3842 9.44027 17.6246 9.73539 17.6246C10.0305 17.6246 10.272 17.3842 10.272 17.088C10.272 16.7918 10.0305 16.5514 9.73539 16.5514Z" fill="#15175A"/>
<path d="M9.73527 22.4536C9.29099 22.4536 8.93042 22.093 8.93042 21.6488V18.6976C8.93042 18.2534 9.29099 17.8928 9.73527 17.8928C10.1796 17.8928 10.5401 18.2534 10.5401 18.6976V21.6488C10.5401 22.093 10.1796 22.4536 9.73527 22.4536Z" fill="#15175A"/>
</svg>
