<svg width="19" height="27" viewBox="0 0 19 27" fill="none" xmlns="http://www.w3.org/2000/svg">
<path fill-rule="evenodd" clip-rule="evenodd" d="M3.79846 6.06024C3.79846 3.09424 6.13681 0.689819 9.02131 0.689819C11.9058 0.689819 14.2442 3.09424 14.2442 6.06024V12.0383C14.2442 15.0043 11.9058 17.4087 9.02131 17.4087C6.13681 17.4087 3.79846 15.0043 3.79846 12.0383V6.06024ZM9.02131 2.67886C7.20514 2.67886 5.73285 4.19276 5.73285 6.06024V12.0383C5.73285 13.9058 7.20514 15.4197 9.02131 15.4197C10.8375 15.4197 12.3098 13.9058 12.3098 12.0383V6.06024C12.3098 4.19276 10.8375 2.67886 9.02131 2.67886Z" fill="#95A6DB"/>
<path fill-rule="evenodd" clip-rule="evenodd" d="M1.00236 10.8119C1.55595 10.8119 2.00473 11.2646 2.00473 11.823V12.632C2.00473 16.5411 5.14614 19.7101 9.02128 19.7101C12.8964 19.7101 16.0378 16.5411 16.0378 12.632V11.823C16.0378 11.2646 16.4866 10.8119 17.0402 10.8119C17.5938 10.8119 18.0426 11.2646 18.0426 11.823V12.632C18.0426 17.658 14.0036 21.7324 9.02128 21.7324C4.03896 21.7324 0 17.658 0 12.632V11.823C0 11.2646 0.448774 10.8119 1.00236 10.8119Z" fill="#95A6DB"/>
<path fill-rule="evenodd" clip-rule="evenodd" d="M9.02114 19.8332C9.5456 19.8332 9.97075 20.265 9.97075 20.7976V25.0412C9.97075 25.5738 9.5456 26.0056 9.02114 26.0056C8.49669 26.0056 8.07153 25.5738 8.07153 25.0412V20.7976C8.07153 20.265 8.49669 19.8332 9.02114 19.8332Z" fill="#95A6DB"/>
</svg>
