<svg width="31" height="31" viewBox="0 0 31 31" fill="none" xmlns="http://www.w3.org/2000/svg">
<path d="M11.7487 8.4492C8.21244 12.1079 8.98411 18.1797 13.0348 20.8694C13.1683 20.9581 13.3458 20.9405 13.4605 20.8285C14.3132 19.9952 15.0346 19.1881 15.6663 18.1617C15.763 18.0046 15.7029 17.8009 15.5407 17.713C14.9229 17.3783 14.3081 16.7506 13.962 16.0876L13.9616 16.0879C13.547 15.2623 13.4058 14.3369 13.6253 13.3811C13.6255 13.3812 13.6258 13.3813 13.626 13.3813C13.8786 12.1576 15.1922 11.0194 16.1955 9.96673C16.1934 9.96602 16.1914 9.96526 16.1892 9.96456L19.9484 6.12786C21.4464 4.5989 23.9105 4.58629 25.4242 6.09989C26.9531 7.59789 26.9783 10.0745 25.4803 11.6034L23.2034 13.9448C23.098 14.0532 23.0638 14.2113 23.1131 14.3542C23.6374 15.8745 23.7663 18.0181 23.415 19.6377C23.4052 19.683 23.4611 19.7127 23.4935 19.6796L28.3396 14.7335C31.4353 11.5739 31.4091 6.42957 28.2812 3.30174C25.0892 0.109693 19.8926 0.136258 16.7334 3.36068L11.7681 8.42844C11.7615 8.43536 11.7553 8.44239 11.7487 8.4492Z" fill="white"/>
<path d="M20.8083 21.5662C20.8082 21.5664 20.8081 21.5666 20.808 21.5667C20.8111 21.5655 20.814 21.5642 20.8171 21.5629C21.8061 19.7544 22.0008 17.6803 21.5373 15.6584L21.5352 15.6606L21.5329 15.6596C21.0928 13.8588 19.8852 12.0705 18.2451 10.9695C18.104 10.8748 17.8786 10.8858 17.7465 10.9926C16.9157 11.6644 16.1026 12.5258 15.566 13.625C15.4817 13.7976 15.5448 14.0049 15.7109 14.1013C16.3336 14.4628 16.896 14.9921 17.2725 15.6948L17.2731 15.6944C17.5666 16.1908 17.8557 17.1327 17.6684 18.1448C17.6683 18.1448 17.6681 18.1448 17.668 18.1448C17.4933 19.4865 16.1383 20.7173 15.0611 21.8264L15.0617 21.8269C14.2417 22.6653 12.1574 24.7902 11.3228 25.6428C9.82485 27.1717 7.34829 27.197 5.81938 25.699C4.29047 24.201 4.2652 21.7244 5.7632 20.1955L8.04689 17.847C8.15039 17.7406 8.18557 17.5859 8.13954 17.4448C7.63246 15.8889 7.49354 13.7936 7.81361 12.1759C7.82252 12.1308 7.76705 12.102 7.73485 12.1348L2.96171 17.0065C-0.165775 20.1985 -0.139269 25.3956 3.0207 28.5555C6.21257 31.6829 11.3828 31.63 14.5102 28.4382C15.5967 27.2229 20.2474 22.9169 20.8083 21.5662Z" fill="white"/>
</svg>
