<svg width="25" height="25" viewBox="0 0 25 25" fill="none" xmlns="http://www.w3.org/2000/svg">
<path d="M21.5626 24.2812H21.4085C3.60071 23.2572 1.07227 8.23156 0.718837 3.64594C0.690358 3.2894 0.732511 2.93075 0.84288 2.59053C0.953249 2.25031 1.12966 1.93521 1.36202 1.66329C1.59437 1.39137 1.8781 1.16797 2.19694 1.00589C2.51578 0.843804 2.86347 0.746229 3.22009 0.718751H8.21353C8.57653 0.718399 8.93128 0.827056 9.23182 1.03065C9.53236 1.23424 9.76484 1.52338 9.89915 1.86063L11.2766 5.25C11.4093 5.57946 11.4422 5.94063 11.3713 6.28865C11.3004 6.63666 11.1288 6.95617 10.8779 7.2075L8.94759 9.15594C9.24911 10.8694 10.0697 12.4489 11.2983 13.6808C12.5269 14.9127 14.1043 15.7374 15.817 16.0434L17.7835 14.095C18.0386 13.8468 18.3612 13.6793 18.7109 13.6132C19.0606 13.5471 19.422 13.5855 19.7501 13.7234L23.1667 15.0919C23.4988 15.2304 23.7822 15.4647 23.9807 15.7649C24.1792 16.0651 24.2839 16.4176 24.2813 16.7775V21.5625C24.2813 22.2836 23.9949 22.9751 23.485 23.4849C22.9752 23.9948 22.2836 24.2812 21.5626 24.2812ZM3.43759 2.53125C3.19723 2.53125 2.96673 2.62673 2.79677 2.79669C2.62682 2.96664 2.53134 3.19715 2.53134 3.4375V3.51C2.94821 8.875 5.62165 21.5625 21.5082 22.4688C21.6273 22.4761 21.7466 22.4599 21.8594 22.421C21.9722 22.3822 22.0762 22.3214 22.1654 22.2423C22.2547 22.1631 22.3274 22.0671 22.3795 21.9598C22.4315 21.8525 22.4619 21.736 22.4688 21.6169V16.7775L19.0523 15.4091L16.4513 17.9919L16.0163 17.9375C8.13196 16.9497 7.06259 9.06531 7.06259 8.98375L7.00821 8.54875L9.58196 5.94781L8.22259 2.53125H3.43759Z" fill="#15175A"/>
</svg>
