<svg width="33" height="39" viewBox="0 0 33 39" fill="none" xmlns="http://www.w3.org/2000/svg">
<path d="M16.4279 18.3602C18.9502 18.3602 21.1341 17.4555 22.919 15.6706C24.7033 13.886 25.6083 11.7024 25.6083 9.1798C25.6083 6.65803 24.7036 4.47416 22.9187 2.68898C21.1338 0.904661 18.95 0 16.4279 0C13.9053 0 11.7217 0.904661 9.93707 2.68927C8.15246 4.47387 7.24751 6.65774 7.24751 9.1798C7.24751 11.7024 8.15246 13.8863 9.93707 15.6709C11.7223 17.4552 13.9061 18.3602 16.4279 18.3602ZM11.5167 4.26857C12.886 2.89922 14.4924 2.23359 16.4279 2.23359C18.3631 2.23359 19.9698 2.89922 21.3394 4.26857C22.7088 5.63821 23.3747 7.24485 23.3747 9.1798C23.3747 11.1153 22.7088 12.7217 21.3394 14.0913C19.9698 15.461 18.3631 16.1266 16.4279 16.1266C14.4929 16.1266 12.8866 15.4607 11.5167 14.0913C10.147 12.722 9.4811 11.1153 9.4811 9.1798C9.4811 7.24485 10.147 5.63821 11.5167 4.26857Z" fill="#15175A"/>
<path d="M32.491 29.3085C32.4396 28.5658 32.3354 27.7557 32.1822 26.9002C32.0275 26.0383 31.8283 25.2235 31.5899 24.4787C31.3433 23.709 31.0086 22.9489 30.5942 22.2204C30.1647 21.4644 29.6598 20.806 29.0934 20.2642C28.501 19.6975 27.7758 19.2418 26.9371 18.9094C26.1014 18.5788 25.1752 18.4113 24.1845 18.4113C23.7954 18.4113 23.4191 18.5709 22.6924 19.0441C22.2452 19.3357 21.722 19.6731 21.1381 20.0461C20.6388 20.3643 19.9624 20.6623 19.127 20.9322C18.3119 21.1959 17.4843 21.3297 16.6672 21.3297C15.8506 21.3297 15.023 21.1959 14.2073 20.9322C13.3727 20.6626 12.6961 20.3646 12.1976 20.0464C11.6193 19.6768 11.0958 19.3395 10.6419 19.0438C9.91578 18.5707 9.53949 18.411 9.15041 18.411C8.15938 18.411 7.2335 18.5788 6.39804 18.9097C5.55997 19.2415 4.83444 19.6972 4.24151 20.2645C3.67504 20.8066 3.17023 21.4646 2.74101 22.2204C2.32721 22.9489 1.99222 23.7087 1.74562 24.479C1.50746 25.2237 1.30827 26.0383 1.15357 26.9002C1.00003 27.7545 0.896213 28.565 0.844743 29.3094C0.794145 30.0373 0.768555 30.7948 0.768555 31.5602C0.768555 33.5498 1.40103 35.1605 2.64825 36.3484C3.88005 37.5206 5.50967 38.1149 7.49201 38.1149H25.8446C27.8264 38.1149 29.456 37.5206 30.6881 36.3484C31.9356 35.1613 32.5681 33.5501 32.5681 31.5599C32.5678 30.7919 32.5419 30.0344 32.491 29.3085ZM29.1481 34.7301C28.3341 35.5048 27.2535 35.8814 25.8443 35.8814H7.49201C6.08253 35.8814 5.00194 35.5048 4.1883 34.7304C3.39007 33.9705 3.00215 32.9333 3.00215 31.5602C3.00215 30.846 3.0257 30.1408 3.07281 29.4638C3.11875 28.7996 3.21268 28.07 3.35197 27.2948C3.48952 26.5291 3.66458 25.8106 3.87278 25.1601C4.07256 24.5363 4.34503 23.9187 4.68294 23.3237C5.00543 22.7566 5.37648 22.2701 5.78592 21.8782C6.1689 21.5115 6.65162 21.2114 7.22041 20.9863C7.74646 20.7781 8.33764 20.6641 8.97942 20.6469C9.05765 20.6885 9.19694 20.7679 9.4226 20.915C9.88176 21.2143 10.411 21.5557 10.9961 21.9293C11.6556 22.3498 12.5053 22.7296 13.5205 23.0573C14.5583 23.3929 15.6168 23.5633 16.6674 23.5633C17.7181 23.5633 18.7769 23.3929 19.8141 23.0576C20.8302 22.7293 21.6796 22.3498 22.34 21.9288C22.9387 21.5461 23.4531 21.2146 23.9123 20.915C24.138 20.7682 24.2772 20.6885 24.3555 20.6469C24.9975 20.6641 25.5887 20.7781 26.1151 20.9863C26.6836 21.2114 27.1663 21.5118 27.5493 21.8782C27.9587 22.2699 28.3298 22.7564 28.6522 23.324C28.9904 23.9187 29.2632 24.5366 29.4627 25.1598C29.6712 25.8111 29.8465 26.5294 29.9838 27.2945C30.1228 28.0712 30.217 28.8011 30.263 29.4641V29.4647C30.3104 30.139 30.3342 30.8439 30.3345 31.5602C30.3342 32.9336 29.9463 33.9705 29.1481 34.7301Z" fill="#15175A"/>
</svg>
