<svg width="33" height="39" viewBox="0 0 33 39" fill="none" xmlns="http://www.w3.org/2000/svg">
<path d="M16.0751 18.3673C18.5975 18.3673 20.7813 17.4626 22.5662 15.6777C24.3505 13.8931 25.2555 11.7095 25.2555 9.18688C25.2555 6.66511 24.3508 4.48124 22.5659 2.69606C20.781 0.911741 18.5972 0.00708008 16.0751 0.00708008C13.5525 0.00708008 11.3689 0.911741 9.5843 2.69635C7.7997 4.48095 6.89474 6.66482 6.89474 9.18688C6.89474 11.7095 7.7997 13.8934 9.5843 15.678C11.3695 17.4623 13.5534 18.3673 16.0751 18.3673Z" fill="#15175A"/>
<path d="M32.1382 29.3156C32.0868 28.5729 31.9827 27.7628 31.8294 26.9073C31.6747 26.0453 31.4755 25.2305 31.2371 24.4858C30.9905 23.7161 30.6558 22.9559 30.2414 22.2275C29.8119 21.4714 29.3071 20.8131 28.7406 20.2713C28.1483 19.7046 27.423 19.2489 26.5844 18.9165C25.7486 18.5859 24.8224 18.4184 23.8317 18.4184C23.4426 18.4184 23.0663 18.578 22.3396 19.0512C21.8924 19.3428 21.3693 19.6801 20.7853 20.0532C20.286 20.3714 19.6097 20.6694 18.7742 20.9393C17.9591 21.203 17.1315 21.3368 16.3144 21.3368C15.4978 21.3368 14.6702 21.203 13.8545 20.9393C13.02 20.6697 12.3433 20.3716 11.8449 20.0535C11.2665 19.6839 10.743 19.3466 10.2891 19.0509C9.563 18.5777 9.18671 18.4181 8.79763 18.4181C7.8066 18.4181 6.88071 18.5859 6.04526 18.9168C5.20719 19.2486 4.48166 19.7043 3.88873 20.2716C3.32226 20.8137 2.81744 21.4717 2.38823 22.2275C1.97443 22.9559 1.63943 23.7158 1.39284 24.4861C1.15468 25.2308 0.955486 26.0453 0.800783 26.9073C0.647244 27.7616 0.54343 28.572 0.49196 29.3165C0.441361 30.0443 0.415771 30.8019 0.415771 31.5672C0.415771 33.5568 1.04825 35.1676 2.29547 36.3555C3.52727 37.5276 5.15688 38.122 7.13923 38.122H25.4918C27.4736 38.122 29.1032 37.5276 30.3353 36.3555C31.5828 35.1684 32.2153 33.5571 32.2153 31.5669C32.215 30.799 32.1891 30.0414 32.1382 29.3156Z" fill="#15175A"/>
</svg>
