<svg width="37" height="47" viewBox="0 0 37 47" fill="none" xmlns="http://www.w3.org/2000/svg">
<path d="M32.3074 28.0804C32.3074 35.6199 26.1387 41.7886 18.5992 41.7886C11.0597 41.7886 4.89094 35.6199 4.89094 28.0804C4.89094 20.5409 11.0597 14.3722 18.5992 14.3722V23.511L30.0227 12.0875L18.5992 0.66394V9.80276C8.54647 9.80276 0.321533 18.0277 0.321533 28.0804C0.321533 38.1331 8.54647 46.3581 18.5992 46.3581C28.6519 46.3581 36.8768 38.1331 36.8768 28.0804H32.3074Z" fill="white"/>
<path d="M15.9713 34.9345V25.1102H15.7429L11.7446 26.5953V28.1946L14.0293 27.5092V34.9345H15.9713Z" fill="white"/>
<path d="M23.7396 25.3387C23.2826 25.2245 22.9399 25.1102 22.3687 25.1102C21.7976 25.1102 21.3406 25.1102 20.9979 25.3387C20.6552 25.5672 20.3125 25.7956 19.9698 26.1383C19.6271 26.4811 19.3986 26.938 19.2844 27.3949C19.1701 27.8519 19.0559 28.5373 19.0559 29.2227V30.9362C19.0559 31.6216 19.1701 32.3071 19.2844 32.764C19.3986 33.2209 19.7413 33.6779 19.9698 34.0206C20.1983 34.3633 20.541 34.706 20.9979 34.8202C21.4549 34.9345 21.7976 35.0487 22.3687 35.0487C22.9399 35.0487 23.3969 35.0487 23.7396 34.8202C24.0823 34.5918 24.425 34.3633 24.7677 34.0206C25.1104 33.6779 25.3388 33.2209 25.4531 32.764C25.5673 32.3071 25.6816 31.6216 25.6816 30.9362V29.2227C25.6816 28.5373 25.5673 27.8519 25.4531 27.3949C25.3388 26.938 24.9961 26.4811 24.7677 26.1383C24.5392 25.7956 24.1965 25.4529 23.7396 25.3387ZM23.7396 31.1647C23.7396 31.6216 23.6253 32.0786 23.6253 32.3071C23.6253 32.5355 23.5111 32.8782 23.3969 32.9925C23.2826 33.1067 23.0541 33.2209 22.9399 33.3352C22.8257 33.4494 22.5972 33.4494 22.3687 33.4494C22.1403 33.4494 22.026 33.3352 21.7976 33.3352C21.5691 33.3352 21.4548 33.1067 21.3406 32.9925C21.2264 32.8782 21.2264 32.6498 21.1121 32.3071C20.9979 31.9643 20.9979 31.6216 20.9979 31.1647V28.9942C20.9979 28.5373 21.1121 28.0803 21.1121 27.8519C21.1121 27.6234 21.2264 27.2807 21.3406 27.1665C21.4548 27.0522 21.6833 26.938 21.7976 26.8238C21.9118 26.7095 22.1403 26.7095 22.3687 26.7095C22.5972 26.7095 22.7114 26.8238 22.9399 26.8238C23.1684 26.8238 23.2826 27.0522 23.3969 27.1665C23.5111 27.2807 23.5111 27.5092 23.6253 27.8519C23.7396 28.1946 23.7396 28.5373 23.7396 28.9942V31.1647Z" fill="white"/>
</svg>
