<svg width="26" height="25" viewBox="0 0 26 25" fill="none" xmlns="http://www.w3.org/2000/svg">
<path fill-rule="evenodd" clip-rule="evenodd" d="M10.5398 18.0053C14.2819 18.0053 17.3154 14.9717 17.3154 11.2297C17.3154 7.48759 14.2819 4.45405 10.5398 4.45405C6.79777 4.45405 3.76423 7.48759 3.76423 11.2297C3.76423 14.9717 6.79777 18.0053 10.5398 18.0053ZM10.5398 21.7695C16.3608 21.7695 21.0797 17.0506 21.0797 11.2297C21.0797 5.40866 16.3608 0.689819 10.5398 0.689819C4.71884 0.689819 0 5.40866 0 11.2297C0 17.0506 4.71884 21.7695 10.5398 21.7695Z" fill="#95A6DB"/>
<path fill-rule="evenodd" clip-rule="evenodd" d="M17.1407 15.9216C17.8757 15.1866 19.0674 15.1866 19.8024 15.9216L24.6692 20.7883C25.4042 21.5233 25.4042 22.715 24.6692 23.45C23.9341 24.185 22.7425 24.185 22.0074 23.45L17.1407 18.5833C16.4057 17.8483 16.4057 16.6566 17.1407 15.9216Z" fill="#95A6DB"/>
</svg>
