<svg width="19" height="66" viewBox="0 0 19 66" fill="none" xmlns="http://www.w3.org/2000/svg">
<path d="M18.5227 58.2404C18.5227 60.6244 17.9947 62.4644 16.9387 63.7604C15.8827 65.0564 14.4107 65.7124 12.5227 65.7284L12.5227 61.7924C13.5787 61.7764 14.3147 61.4724 14.7307 60.8804C15.1467 60.2724 15.3547 59.3444 15.3547 58.0964C15.3547 56.1604 14.6987 55.1924 13.3867 55.1924C12.8107 55.1924 12.3867 55.4084 12.1147 55.8404C11.8267 56.2564 11.5707 57.0644 11.3467 58.2644L11.0827 59.6564C10.4427 63.4644 8.65867 65.3684 5.73067 65.3684C4.17867 65.3684 2.94667 64.7924 2.03467 63.6404C1.12267 62.4724 0.666671 60.8244 0.66667 58.6964C0.66667 56.4244 1.14667 54.6884 2.10667 53.4884C3.06667 52.2884 4.44267 51.6484 6.23467 51.5684L6.23467 55.4084C5.40267 55.4564 4.79467 55.7364 4.41067 56.2484C4.02667 56.7444 3.83467 57.5364 3.83467 58.6244C3.83467 60.3684 4.41067 61.2404 5.56267 61.2404C6.13867 61.2404 6.57867 61.0324 6.88267 60.6164C7.18667 60.1844 7.44267 59.4244 7.65067 58.3364L7.91467 56.8964C8.28267 54.8324 8.88267 53.3364 9.71467 52.4084C10.5307 51.4644 11.6667 50.9924 13.1227 50.9924C14.8667 50.9924 16.2027 51.6324 17.1307 52.9124C18.0587 54.1924 18.5227 55.9684 18.5227 58.2404ZM5.46667 41.9591C5.46667 40.6471 5.86667 39.6071 6.66667 38.8391C7.45067 38.0551 8.57067 37.6631 10.0267 37.6631L18.1387 37.6631L18.1387 41.4071L10.7707 41.4071C9.36267 41.4071 8.65867 42.0711 8.65867 43.3991C8.65867 44.0711 8.88267 44.6311 9.33067 45.0791C9.77867 45.5271 10.4107 45.7511 11.2267 45.7511L18.1387 45.7511L18.1387 49.4951L1.05067 49.4951L1.05067 45.7511L7.38667 45.7511C6.10667 44.8071 5.46667 43.5431 5.46667 41.9591ZM18.1387 23.5749L18.1387 27.3429C17.7707 27.5349 17.3067 27.6389 16.7467 27.6549C17.8667 28.4869 18.4267 29.8069 18.4267 31.6149C18.4267 32.9749 18.0907 34.0709 17.4187 34.9029C16.7467 35.7189 15.8187 36.1269 14.6347 36.1269C12.3307 36.1269 11.0427 34.5109 10.7707 31.2789L10.6027 29.3349C10.4907 28.2629 10.0827 27.7269 9.37867 27.7269C8.54667 27.7269 8.13067 28.3589 8.13067 29.6229C8.13067 30.3909 8.25067 30.9349 8.49067 31.2549C8.71467 31.5589 9.13867 31.7429 9.76267 31.8069L9.76267 35.5269C6.89867 35.3029 5.46667 33.3269 5.46667 29.5989C5.46667 25.9189 6.73867 24.0789 9.28267 24.0789L15.8587 24.0789C16.8987 24.0789 17.6587 23.9109 18.1387 23.5749ZM15.9067 30.4869C15.9067 29.6389 15.6907 28.9669 15.2587 28.4709C14.8107 27.9749 14.1467 27.7269 13.2667 27.7269L12.3547 27.7269C12.5947 27.9509 12.7547 28.3669 12.8347 28.9749L13.0027 30.5109C13.1307 31.7109 13.6267 32.3109 14.4907 32.3109C14.9227 32.3109 15.2667 32.1509 15.5227 31.8309C15.7787 31.5109 15.9067 31.0629 15.9067 30.4869ZM5.56267 14.9206C5.56267 14.8566 5.57867 14.5846 5.61067 14.1046L9.01867 14.1046L9.01867 15.0646C9.01867 17.2566 10.1387 18.3526 12.3787 18.3526L18.1387 18.3526L18.1387 22.0966L5.75467 22.0966L5.75467 18.4486L8.05867 18.4486C6.39467 17.8726 5.56267 16.6966 5.56267 14.9206ZM12.3067 0.785759L13.0507 0.785758L13.0507 9.95376C13.8987 9.82576 14.5467 9.51376 14.9947 9.01776C15.4427 8.52176 15.6667 7.88976 15.6667 7.12176C15.6667 5.90576 15.2027 5.07376 14.2747 4.62576L14.2747 1.07376C15.5547 1.40976 16.5707 2.12176 17.3227 3.20976C18.0587 4.29776 18.4267 5.60176 18.4267 7.12176C18.4267 9.04176 17.8347 10.5938 16.6507 11.7778C15.4667 12.9618 13.8987 13.5538 11.9467 13.5538C9.97867 13.5538 8.41067 12.9698 7.24267 11.8018C6.05867 10.6498 5.46667 9.10576 5.46667 7.16976C5.46667 5.24976 6.08267 3.69776 7.31467 2.51376C8.56267 1.36176 10.2267 0.785759 12.3067 0.785759ZM8.22667 7.21776C8.22667 8.75376 9.04267 9.65776 10.6747 9.92976L10.6747 4.45776C9.90667 4.58576 9.30667 4.88976 8.87467 5.36976C8.44267 5.84976 8.22667 6.46576 8.22667 7.21776Z" fill="white"/>
</svg>
