<svg width="36" height="41" viewBox="0 0 36 41" fill="none" xmlns="http://www.w3.org/2000/svg">
<path d="M28.1387 26.2679C26.2603 26.2679 24.5526 27.0118 23.2941 28.2201L15.8076 23.582C16.2348 22.5921 16.472 21.5017 16.472 20.3568C16.472 19.2119 16.2348 18.1215 15.8076 17.1317L23.294 12.4935C24.5526 13.7018 26.2603 14.4457 28.1387 14.4457C31.9985 14.4457 35.1387 11.3055 35.1387 7.44568C35.1387 3.58588 31.9985 0.445679 28.1387 0.445679C24.2789 0.445679 21.1387 3.58588 21.1387 7.44568C21.1387 8.5852 21.4125 9.66196 21.8976 10.6137L14.5864 15.1433C13.0872 13.3401 10.8281 12.1901 8.30534 12.1901C3.80224 12.1901 0.138672 15.8537 0.138672 20.3568C0.138672 24.8599 3.80224 28.5235 8.30534 28.5235C10.8281 28.5235 13.0872 27.3734 14.5864 25.5702L21.8976 30.0999C21.4125 31.0516 21.1387 32.1284 21.1387 33.2679C21.1387 37.1277 24.2789 40.2679 28.1387 40.2679C31.9985 40.2679 35.1387 37.1277 35.1387 33.2679C35.1387 29.4081 31.9985 26.2679 28.1387 26.2679Z" fill="white"/>
</svg>
