<svg width="19" height="18" viewBox="0 0 19 18" fill="none" xmlns="http://www.w3.org/2000/svg">
<path d="M17.3514 1.00415C17.351 1.00429 17.3506 1.0044 17.3502 1.00454L1.20519 6.59856C0.630597 6.79762 0.580766 7.59356 1.12591 7.8628L6.15442 10.3465L6.19268 15.4978C6.19702 16.0827 6.88184 16.3895 7.32234 16.017L9.15446 14.4673L10.8266 16.8808C11.1362 17.3277 11.8158 17.2533 12.0242 16.7543L18.2218 1.91319C18.4443 1.38071 17.9578 0.803619 17.3514 1.00415ZM6.75819 9.11332L3.20549 7.35858L13.8209 3.68052L6.75819 9.11332ZM7.55462 14.0223L7.54063 12.1381L8.3689 13.3336L7.55462 14.0223ZM11.2407 15.0678C11.1878 14.9915 7.78515 10.0804 7.77391 10.0642L15.9596 3.76758L11.2407 15.0678Z" fill="black"/>
</svg>
