<svg width="14" height="15" viewBox="0 0 14 15" fill="none" xmlns="http://www.w3.org/2000/svg">
<g clip-path="url(#clip0_12_841)">
<path d="M6.99999 0.231934C3.134 0.231934 0 3.36594 0 7.23192C0 11.0979 3.134 14.2319 6.99999 14.2319C10.866 14.2319 14 11.0979 14 7.23192C13.9959 3.36766 10.8643 0.236064 6.99999 0.231934ZM6.99999 13.2319C3.68628 13.2319 0.99999 10.5456 0.99999 7.23192C0.99999 3.91821 3.68628 1.23192 6.99999 1.23192C10.3137 1.23192 13 3.91821 13 7.23192C12.9964 10.5442 10.3122 13.2283 6.99999 13.2319Z" fill="black"/>
<path d="M4.49999 7.23191C5.05227 7.23191 5.49998 6.7842 5.49998 6.23192C5.49998 5.67964 5.05227 5.23193 4.49999 5.23193C3.94771 5.23193 3.5 5.67964 3.5 6.23192C3.5 6.7842 3.94771 7.23191 4.49999 7.23191Z" fill="black"/>
<path d="M9.49999 7.23191C10.0523 7.23191 10.5 6.7842 10.5 6.23192C10.5 5.67964 10.0523 5.23193 9.49999 5.23193C8.94771 5.23193 8.5 5.67964 8.5 6.23192C8.5 6.7842 8.94771 7.23191 9.49999 7.23191Z" fill="black"/>
<path d="M8.91468 8.92175C8.74953 8.70044 8.43623 8.65492 8.21492 8.82009C8.20534 8.82724 8.19605 8.83471 8.187 8.84253C7.47992 9.35898 6.52007 9.35898 5.81299 8.84253C5.60407 8.66195 5.28831 8.68494 5.10775 8.89386C4.92716 9.10277 4.95016 9.41854 5.15908 9.59909C5.1681 9.60691 5.17742 9.61439 5.187 9.62153C6.25724 10.4396 7.74274 10.4396 8.81299 9.62153C9.03433 9.45636 9.07985 9.14306 8.91468 8.92175Z" fill="black"/>
</g>
<defs>
<clipPath id="clip0_12_841">
<rect width="14" height="14" fill="white" transform="translate(0 0.231934)"/>
</clipPath>
</defs>
</svg>
