<svg width="31" height="29" viewBox="0 0 31 29" fill="none" xmlns="http://www.w3.org/2000/svg">
<path d="M30.0556 21.1255C26.0433 20.4652 24.235 16.3554 24.1619 16.1809C24.1562 16.1697 24.1525 16.1584 24.145 16.1471C23.9405 15.7307 23.8918 15.3875 24.0043 15.1267C24.2238 14.6128 25.0641 14.3464 25.6194 14.1701C25.7807 14.1194 25.9326 14.0707 26.0583 14.0219C26.606 13.8062 26.9962 13.5717 27.255 13.3072C27.5627 12.9902 27.6227 12.6863 27.6189 12.4894C27.6096 12.0092 27.2419 11.5815 26.6548 11.3733C26.4578 11.2926 26.2309 11.2495 26.002 11.2495C25.8463 11.2495 25.6137 11.2701 25.3943 11.3733C24.9253 11.5928 24.5051 11.7128 24.1431 11.7297C23.9518 11.7203 23.8167 11.679 23.7286 11.6396C23.7398 11.4521 23.7511 11.2589 23.7642 11.06L23.7698 10.9737C23.8993 8.94228 24.0587 6.41561 23.3872 4.91498C22.9276 3.88706 22.3105 3.00357 21.5508 2.28702C20.9149 1.68677 20.1758 1.19907 19.3543 0.838919C17.9268 0.208657 16.595 0.114868 15.9272 0.114868H15.9253C15.8991 0.114868 15.8747 0.114868 15.8522 0.114868C15.6665 0.116744 15.3645 0.120495 15.3363 0.120495C14.6704 0.120495 13.3368 0.214284 11.9055 0.844546C11.0858 1.2047 10.3505 1.69052 9.71651 2.29077C8.96057 3.00732 8.34531 3.88893 7.88762 4.91311C7.21609 6.41186 7.37554 8.93853 7.50309 10.9681V10.9719C7.51622 11.1895 7.53122 11.4164 7.54435 11.6378C7.44681 11.6809 7.28737 11.7297 7.0529 11.7297C6.67399 11.7297 6.22381 11.6096 5.71547 11.3714C5.56541 11.302 5.39471 11.2664 5.20714 11.2664C4.90514 11.2664 4.58438 11.3545 4.30864 11.5177C3.95974 11.7222 3.73465 12.0092 3.67275 12.3299C3.63336 12.54 3.63523 12.9583 4.10043 13.3822C4.35741 13.6148 4.73256 13.8306 5.21839 14.0219C5.34594 14.0725 5.49788 14.1194 5.65732 14.1701C6.21255 14.3464 7.05478 14.6128 7.27424 15.1267C7.38491 15.3875 7.33614 15.7307 7.13168 16.1471C7.12606 16.1584 7.12043 16.1697 7.11668 16.1809C7.06416 16.301 6.58583 17.3795 5.6048 18.5181C5.04769 19.1653 4.43431 19.7074 3.78154 20.1275C2.98434 20.6415 2.12336 20.9754 1.22111 21.1236C0.866584 21.1817 0.613354 21.4969 0.633988 21.8551C0.639615 21.9583 0.664 22.0615 0.707143 22.1609V22.1628C0.851578 22.4985 1.18359 22.7818 1.72382 23.0312C2.38409 23.337 3.37075 23.594 4.65941 23.7947C4.72506 23.9185 4.79259 24.228 4.83948 24.44C4.88825 24.6651 4.9389 24.8976 5.01205 25.1434C5.09084 25.4097 5.29342 25.7286 5.81676 25.7286C6.0156 25.7286 6.24257 25.6836 6.50705 25.633C6.89346 25.5579 7.42243 25.4548 8.08083 25.4548C8.4466 25.4548 8.82551 25.4866 9.20629 25.5504C9.9416 25.6723 10.5756 26.1188 11.309 26.6365C12.382 27.3943 13.5975 28.2515 15.4545 28.2515C15.5052 28.2515 15.5558 28.2497 15.6065 28.2459C15.6665 28.2497 15.7434 28.2515 15.8222 28.2515C17.6792 28.2515 18.8947 27.3943 19.9676 26.6384L19.9695 26.6365C20.7029 26.1207 21.337 25.6742 22.0723 25.5523C22.453 25.4885 22.8319 25.4566 23.1977 25.4566C23.828 25.4566 24.3269 25.5373 24.7715 25.6236C25.0622 25.6798 25.2873 25.708 25.4618 25.708H25.4787H25.4956C25.8782 25.708 26.1596 25.4979 26.2665 25.1321C26.3378 24.8901 26.3884 24.6651 26.4391 24.4343C26.4822 24.2355 26.5535 23.9166 26.6173 23.7928C27.9059 23.5902 28.8926 23.3351 29.5529 23.0294C30.0912 22.7799 30.4232 22.4967 30.5677 22.1628C30.6108 22.0633 30.6371 21.9602 30.6427 21.8533C30.6633 21.4987 30.4101 21.1817 30.0556 21.1255Z" fill="white"/>
</svg>
