<svg width="22" height="26" viewBox="0 0 22 26" fill="none" xmlns="http://www.w3.org/2000/svg">
<path d="M10.6453 14.2005C10.6711 14.2005 10.6969 14.2005 10.7278 14.2005C10.7381 14.2005 10.7484 14.2005 10.7588 14.2005C10.7742 14.2005 10.7949 14.2005 10.8104 14.2005C12.322 14.1748 13.5447 13.6434 14.4475 12.627C16.4338 10.388 16.1036 6.54959 16.0675 6.1833C15.9385 3.43349 14.6384 2.11792 13.5653 1.50398C12.7657 1.04482 11.8319 0.797187 10.7897 0.77655H10.7536C10.7484 0.77655 10.7381 0.77655 10.733 0.77655H10.702C10.1294 0.77655 9.00467 0.869414 7.92642 1.48335C6.843 2.09728 5.52227 3.41285 5.39329 6.1833C5.35718 6.54959 5.027 10.388 7.01326 12.627C7.91094 13.6434 9.13365 14.1748 10.6453 14.2005ZM6.77078 6.31227C6.77078 6.2968 6.77594 6.28132 6.77594 6.271C6.94619 2.57192 9.57217 2.17467 10.6969 2.17467H10.7175C10.7278 2.17467 10.7433 2.17467 10.7588 2.17467C12.1517 2.20562 14.5198 2.77312 14.6797 6.271C14.6797 6.28648 14.6797 6.30195 14.6848 6.31227C14.69 6.34839 15.0511 9.85658 13.4105 11.7035C12.7605 12.4361 11.8938 12.7973 10.7536 12.8076C10.7433 12.8076 10.7381 12.8076 10.7278 12.8076C10.7175 12.8076 10.7123 12.8076 10.702 12.8076C9.56701 12.7973 8.69512 12.4361 8.05024 11.7035C6.4148 9.8669 6.76562 6.34323 6.77078 6.31227Z" fill="#2C3FE9"/>
<path d="M21.3298 20.567C21.3298 20.5618 21.3298 20.5566 21.3298 20.5515C21.3298 20.5102 21.3246 20.4689 21.3246 20.4225C21.2936 19.401 21.2266 17.0123 18.9875 16.2488C18.972 16.2436 18.9514 16.2385 18.9359 16.2333C16.6092 15.64 14.6745 14.2986 14.6539 14.2832C14.3392 14.0613 13.9058 14.1387 13.684 14.4534C13.4621 14.7681 13.5395 15.2015 13.8542 15.4233C13.9419 15.4852 15.9952 16.9143 18.5645 17.5747C19.7665 18.0029 19.9007 19.2875 19.9368 20.4638C19.9368 20.5102 19.9368 20.5515 19.942 20.5927C19.9471 21.0571 19.9162 21.7742 19.8336 22.1869C18.9978 22.6615 15.7218 24.3021 10.7381 24.3021C5.77504 24.3021 2.47837 22.6564 1.63744 22.1818C1.55489 21.769 1.51878 21.0519 1.5291 20.5876C1.5291 20.5463 1.53426 20.505 1.53426 20.4586C1.57037 19.2823 1.70451 17.9977 2.90658 17.5695C5.47581 16.9091 7.52914 15.4749 7.61684 15.4182C7.93155 15.1963 8.00894 14.763 7.78709 14.4483C7.56525 14.1335 7.13189 14.0562 6.81718 14.278C6.79655 14.2935 4.8722 15.6348 2.53512 16.2281C2.51449 16.2333 2.49901 16.2385 2.48353 16.2436C0.244479 17.0123 0.177411 19.401 0.146456 20.4173C0.146456 20.4638 0.146456 20.505 0.141297 20.5463C0.141297 20.5515 0.141297 20.5566 0.141297 20.5618C0.136138 20.8301 0.130979 22.2075 0.404411 22.8989C0.456002 23.033 0.548866 23.1465 0.672685 23.2239C0.827458 23.3271 4.53686 25.6899 10.7433 25.6899C16.9497 25.6899 20.6591 23.3219 20.8138 23.2239C20.9325 23.1465 21.0305 23.033 21.0821 22.8989C21.3401 22.2127 21.3349 20.8352 21.3298 20.567Z" fill="#2C3FE9"/>
</svg>
