<svg width="39" height="39" viewBox="0 0 39 39" fill="none" xmlns="http://www.w3.org/2000/svg">
<path d="M19.0624 0.00708008C8.52842 0.00708008 0.00488281 8.53136 0.00488281 19.0646C0.00488281 29.5985 8.52917 38.1221 19.0624 38.1221C29.5963 38.1221 38.1199 29.5978 38.1199 19.0646C38.1199 8.53062 29.5956 0.00708008 19.0624 0.00708008ZM19.0624 35.1443C10.1744 35.1443 2.98262 27.952 2.98262 19.0646C2.98262 10.1766 10.175 2.98481 19.0624 2.98481C27.9504 2.98481 35.1421 10.1772 35.1421 19.0646C35.1421 27.9526 27.9498 35.1443 19.0624 35.1443Z" fill="#15175A"/>
<path d="M19.0624 9.60126C18.2401 9.60126 17.5735 10.2678 17.5735 11.0901V20.6779C17.5735 21.5002 18.2401 22.1668 19.0624 22.1668C19.8847 22.1668 20.5513 21.5002 20.5513 20.6779V11.0901C20.5513 10.2678 19.8847 9.60126 19.0624 9.60126Z" fill="#15175A"/>
<path d="M19.0624 28.0098C20.1725 28.0098 21.0724 27.1099 21.0724 25.9998C21.0724 24.8898 20.1725 23.9899 19.0624 23.9899C17.9523 23.9899 17.0524 24.8898 17.0524 25.9998C17.0524 27.1099 17.9523 28.0098 19.0624 28.0098Z" fill="#15175A"/>
</svg>
