<svg width="73" height="30" viewBox="0 0 73 30" fill="none" xmlns="http://www.w3.org/2000/svg">
<path fill-rule="evenodd" clip-rule="evenodd" d="M27.7013 7.50132C27.8287 7.27664 28.067 7.13779 28.3253 7.13779H44.9097C45.1674 7.13779 45.4053 7.27601 45.533 7.49988C45.6606 7.72375 45.6584 7.99888 45.5271 8.22065L37.2783 22.1568C37.1495 22.3745 36.9156 22.5082 36.6626 22.5088C36.4097 22.5094 36.1751 22.3767 36.0453 22.1596L27.7096 8.22349C27.5771 8.00182 27.5739 7.726 27.7013 7.50132ZM29.5904 8.57265L36.6577 20.3883L43.6514 8.57265H29.5904Z" fill="#15175A"/>
<path fill-rule="evenodd" clip-rule="evenodd" d="M41.3011 7.51072C41.6353 7.72365 41.7335 8.16714 41.5206 8.50129L32.7508 22.2637C32.6164 22.4747 32.3819 22.6004 32.1318 22.5955C31.8818 22.5906 31.6523 22.4559 31.5262 22.2398L25.3179 11.6033C25.1884 11.3814 25.1874 11.1072 25.3154 10.8844C25.4433 10.6616 25.6806 10.5242 25.9375 10.5242H30.279C30.6752 10.5242 30.9964 10.8454 30.9964 11.2416C30.9964 11.6379 30.6752 11.9591 30.279 11.9591H27.187L32.1727 20.501L40.3106 7.73021C40.5235 7.39606 40.967 7.29779 41.3011 7.51072Z" fill="#15175A"/>
<path fill-rule="evenodd" clip-rule="evenodd" d="M31.7716 7.41675C32.1096 7.2101 32.5512 7.31663 32.7579 7.65469L40.6161 20.5099L45.7044 12.3063H42.8692C42.473 12.3063 42.1517 11.9851 42.1517 11.5889C42.1517 11.1927 42.473 10.8715 42.8692 10.8715H46.9936C47.2539 10.8715 47.4939 11.0125 47.6205 11.24C47.7471 11.4676 47.7405 11.7458 47.6032 11.9671L41.2213 22.2563C41.09 22.468 40.8583 22.5964 40.6093 22.5956C40.3602 22.5948 40.1294 22.4648 39.9995 22.2523L31.5336 8.40305C31.327 8.06499 31.4335 7.6234 31.7716 7.41675Z" fill="#15175A"/>
<path d="M29.2428 0.603638C15.0421 2.69635 4.2255 12.1469 0.592285 16.6105C10.7072 26.5261 24.6546 29.6279 30.3639 29.9393C25.0075 28.3822 19.838 22.2784 19.838 16.6105C19.838 6.49563 26.1079 1.72472 29.2428 0.603638Z" fill="#15175A"/>
<path d="M43.9418 0.603378C58.1425 2.69609 68.9591 12.1466 72.5923 16.6103C62.4774 26.5258 48.53 29.6276 42.8207 29.939C48.1771 28.382 53.3466 22.2781 53.3466 16.6103C53.3466 6.49537 47.0767 1.72447 43.9418 0.603378Z" fill="#15175A"/>
</svg>
