<svg width="73" height="25" viewBox="0 0 73 25" fill="none" xmlns="http://www.w3.org/2000/svg">
<path d="M12.7043 10.8271L13.4403 7.54714H16.7843L13.7123 18.9391H10.1283L9.42429 15.5631C9.09362 13.9525 8.83762 12.5658 8.65629 11.4031C8.45362 12.6618 8.19229 14.0485 7.87229 15.5631L7.16829 18.9391H3.58429L0.512285 7.54714H3.85629L4.59229 10.8271C5.06162 12.9071 5.38162 14.4271 5.55229 15.3871C5.79762 13.8938 6.08029 12.3738 6.40029 10.8271L7.07229 7.54714H10.2243L10.8963 10.8271C11.2163 12.3738 11.499 13.8938 11.7443 15.3871C11.9256 14.4271 12.2456 12.9071 12.7043 10.8271ZM27.5767 18.9391H24.1847L23.7047 17.4511H19.2407L18.7607 18.9391H15.4967L19.5447 7.54714H23.3847L27.5767 18.9391ZM20.9047 12.1871L20.0727 14.8111H22.8407L21.9927 12.1871C21.694 11.2698 21.5127 10.6671 21.4487 10.3791C21.182 11.2645 21.0007 11.8671 20.9047 12.1871ZM26.221 7.54714H36.141V10.3951H32.781V18.9391H29.581V10.3951H26.221V7.54714ZM41.971 19.1951C40.2004 19.1951 38.787 18.6565 37.731 17.5791C36.6644 16.5125 36.131 15.0671 36.131 13.2431C36.131 11.4191 36.6537 9.96847 37.699 8.89114C38.7337 7.82447 40.1577 7.29114 41.971 7.29114C43.4324 7.29114 44.6804 7.68581 45.715 8.47514C46.7284 9.27514 47.3417 10.3791 47.555 11.7871H44.323C44.1737 11.2218 43.891 10.7898 43.475 10.4911C43.059 10.1818 42.5577 10.0271 41.971 10.0271C41.1497 10.0271 40.5257 10.3045 40.099 10.8591C39.6724 11.4138 39.459 12.2085 39.459 13.2431C39.459 14.2778 39.6724 15.0725 40.099 15.6271C40.5257 16.1818 41.1497 16.4591 41.971 16.4591C42.611 16.4591 43.139 16.2885 43.555 15.9471C43.9817 15.5951 44.2537 15.1045 44.371 14.4751H47.571C47.3897 15.9685 46.7924 17.1258 45.779 17.9471C44.755 18.7791 43.4857 19.1951 41.971 19.1951ZM55.8092 11.7071V7.54714H59.0092V18.9391H55.8092V14.5551H51.8892V18.9391H48.6892V7.54714H51.8892V11.7071H55.8092ZM67.891 9.40314V7.54714H70.931V18.9391H67.555L65.139 14.8911C64.4884 13.7925 63.9657 12.8538 63.571 12.0751C63.6244 13.6431 63.651 15.3125 63.651 17.0831V18.9391H60.611V7.54714H63.987L66.403 11.5951C66.979 12.5765 67.5017 13.5205 67.971 14.4271C67.9177 12.8591 67.891 11.1845 67.891 9.40314Z" fill="#15175A"/>
</svg>
